<?xml version="1.0" encoding="UTF-8"?>
<svg xmlns="http://www.w3.org/2000/svg" xmlns:xlink="http://www.w3.org/1999/xlink" width="48" height="48" viewBox="0 0 48 48" version="1.1">
<g id="surface1">
<path style=" stroke:none;fill-rule:nonzero;fill:rgb(0%,0%,0%);fill-opacity:1;" d="M 22.59375 0.140625 C 19.707031 0.722656 16.988281 3.121094 14.960938 6.863281 L 14.523438 7.679688 L 12.910156 7.679688 C 9.757812 7.6875 7.152344 8.371094 5.457031 9.628906 C 5.296875 9.75 5.109375 9.824219 5.0625 9.796875 C 5.015625 9.769531 4.734375 9.703125 4.445312 9.65625 C 2.757812 9.382812 1.125 10.574219 0.851562 12.289062 C 0.683594 13.332031 1.023438 14.324219 1.789062 15.085938 C 2.242188 15.523438 2.25 15.554688 2.25 16.085938 C 2.25 18.066406 3.207031 20.867188 4.6875 23.269531 L 5.148438 24 L 4.6875 24.730469 C 3.207031 27.132812 2.25 29.933594 2.25 31.921875 C 2.25 32.476562 2.242188 32.503906 1.820312 32.898438 C 1.566406 33.140625 1.273438 33.542969 1.105469 33.910156 C 0.84375 34.460938 0.824219 34.566406 0.863281 35.324219 C 0.890625 35.960938 0.957031 36.242188 1.144531 36.609375 C 1.632812 37.554688 2.476562 38.175781 3.515625 38.34375 C 3.992188 38.417969 4.828125 38.34375 5.0625 38.203125 C 5.101562 38.183594 5.417969 38.34375 5.765625 38.578125 C 6.945312 39.355469 8.738281 39.964844 10.59375 40.226562 C 11.035156 40.285156 12.09375 40.339844 12.964844 40.351562 L 14.53125 40.359375 L 15.027344 41.25 C 16.820312 44.484375 19.03125 46.648438 21.429688 47.523438 C 25.640625 49.058594 29.859375 46.78125 32.945312 41.296875 L 33.46875 40.367188 L 35.035156 40.351562 C 35.90625 40.351562 36.964844 40.292969 37.40625 40.226562 C 39.261719 39.964844 41.042969 39.355469 42.226562 38.578125 C 42.789062 38.210938 42.882812 38.175781 43.105469 38.269531 C 43.246094 38.324219 43.660156 38.371094 44.015625 38.371094 C 44.898438 38.371094 45.664062 38.042969 46.292969 37.367188 C 46.941406 36.683594 47.183594 36 47.136719 35.015625 C 47.089844 34.117188 46.875 33.636719 46.21875 32.953125 L 45.769531 32.484375 L 45.722656 31.59375 C 45.589844 29.476562 44.792969 27.1875 43.378906 24.863281 L 42.851562 24 L 43.378906 23.128906 C 44.792969 20.8125 45.582031 18.535156 45.722656 16.40625 L 45.777344 15.515625 L 46.199219 15.09375 C 46.835938 14.464844 47.164062 13.679688 47.164062 12.824219 C 47.164062 12.441406 47.109375 11.960938 47.023438 11.726562 C 46.695312 10.828125 45.882812 10.039062 44.953125 9.742188 C 44.503906 9.601562 43.460938 9.589844 43.097656 9.742188 C 42.871094 9.824219 42.769531 9.796875 42.140625 9.375 C 40.414062 8.25 38.035156 7.679688 35.054688 7.679688 L 33.488281 7.679688 L 32.925781 6.675781 C 30.140625 1.734375 26.410156 -0.628906 22.59375 0.140625 Z M 24.992188 1.695312 C 26.398438 1.949219 27.804688 2.785156 29.109375 4.144531 C 30.007812 5.0625 30.789062 6.113281 31.351562 7.132812 C 31.539062 7.472656 31.6875 7.773438 31.6875 7.800781 C 31.6875 7.835938 31.507812 7.882812 31.292969 7.921875 C 29.382812 8.210938 26.804688 8.859375 24.964844 9.515625 L 24 9.863281 L 23.042969 9.515625 C 21.195312 8.859375 18.628906 8.210938 16.707031 7.921875 C 16.378906 7.867188 16.3125 7.828125 16.359375 7.707031 C 16.5 7.3125 17.242188 6.121094 17.792969 5.382812 C 19.914062 2.570312 22.5 1.238281 24.992188 1.695312 Z M 13.753906 9.402344 C 13.023438 11.304688 12.261719 14.015625 11.914062 15.9375 L 11.738281 16.921875 L 11.136719 17.4375 C 10.050781 18.382812 7.867188 20.570312 7.003906 21.589844 L 6.148438 22.601562 L 5.832031 22.105469 C 5.015625 20.851562 4.265625 18.871094 3.992188 17.257812 C 3.777344 15.992188 3.75 16.078125 4.460938 15.945312 C 4.808594 15.882812 5.242188 15.757812 5.429688 15.65625 C 6.347656 15.1875 7.050781 14.195312 7.171875 13.179688 C 7.246094 12.601562 7.039062 11.679688 6.730469 11.175781 C 6.535156 10.855469 6.535156 10.847656 6.710938 10.707031 C 7.292969 10.265625 9.132812 9.628906 10.453125 9.429688 C 11.617188 9.253906 13.820312 9.234375 13.753906 9.402344 Z M 37.707031 9.46875 C 38.296875 9.5625 39.1875 9.796875 39.695312 9.976562 C 40.613281 10.304688 41.476562 10.742188 41.417969 10.855469 C 40.914062 11.820312 40.835938 12.066406 40.835938 12.796875 C 40.835938 13.40625 40.875 13.640625 41.082031 14.070312 C 41.558594 15.121094 42.367188 15.730469 43.527344 15.945312 C 44.25 16.078125 44.222656 15.992188 44.007812 17.257812 C 43.734375 18.851562 42.992188 20.8125 42.167969 22.105469 L 41.851562 22.601562 L 40.996094 21.589844 C 40.144531 20.585938 37.988281 18.414062 36.863281 17.4375 L 36.273438 16.921875 L 35.960938 15.367188 C 35.585938 13.519531 35.195312 12.085938 34.632812 10.527344 C 34.40625 9.898438 34.21875 9.367188 34.21875 9.335938 C 34.21875 9.195312 36.703125 9.289062 37.707031 9.46875 Z M 16.507812 9.515625 C 18.195312 9.769531 21.65625 10.613281 21.65625 10.773438 C 21.65625 10.800781 21.027344 11.136719 20.269531 11.503906 C 18.421875 12.414062 16.835938 13.320312 15.148438 14.445312 C 14.382812 14.960938 13.734375 15.355469 13.707031 15.335938 C 13.648438 15.273438 14.007812 13.828125 14.410156 12.476562 C 14.699219 11.503906 15.476562 9.375 15.535156 9.375 C 15.554688 9.375 15.984375 9.441406 16.507812 9.515625 Z M 32.859375 10.332031 C 33.449219 11.90625 34.3125 14.859375 34.3125 15.347656 C 34.3125 15.414062 34.03125 15.261719 33.683594 15.007812 C 32.109375 13.875 29.605469 12.402344 27.542969 11.410156 C 26.878906 11.101562 26.34375 10.808594 26.34375 10.773438 C 26.34375 10.574219 31.085938 9.476562 32.34375 9.382812 C 32.445312 9.375 32.605469 9.675781 32.859375 10.332031 Z M 4.921875 11.492188 C 5.558594 11.90625 5.773438 12.945312 5.363281 13.613281 C 4.507812 14.992188 2.4375 14.410156 2.4375 12.789062 C 2.4375 11.539062 3.863281 10.800781 4.921875 11.492188 Z M 44.898438 11.511719 C 45.515625 11.972656 45.757812 12.851562 45.421875 13.492188 C 44.972656 14.371094 43.847656 14.644531 43.039062 14.0625 C 42.195312 13.472656 42.234375 12.046875 43.105469 11.476562 C 43.621094 11.136719 44.410156 11.148438 44.898438 11.511719 Z M 24.917969 11.960938 C 27.683594 13.105469 31.304688 15.1875 33.851562 17.117188 L 34.753906 17.804688 L 34.867188 18.675781 C 35.269531 21.890625 35.269531 26.109375 34.867188 29.324219 L 34.753906 30.195312 L 33.851562 30.882812 C 32.671875 31.773438 31.257812 32.71875 29.839844 33.554688 C 28.613281 34.273438 25.191406 35.972656 24.421875 36.242188 L 23.953125 36.402344 L 23.015625 36.007812 C 20.015625 34.726562 16.707031 32.8125 14.148438 30.882812 L 13.246094 30.195312 L 13.132812 29.324219 C 12.722656 25.929688 12.722656 22.070312 13.132812 18.675781 L 13.238281 17.8125 L 13.867188 17.324219 C 14.746094 16.632812 16.828125 15.234375 18.09375 14.484375 C 19.914062 13.414062 23.558594 11.644531 23.980469 11.625 C 24.046875 11.625 24.46875 11.773438 24.917969 11.960938 Z M 11.398438 19.753906 C 11.257812 20.597656 11.175781 24.132812 11.257812 25.941406 C 11.296875 27.019531 11.363281 28.050781 11.398438 28.238281 C 11.429688 28.433594 11.417969 28.59375 11.363281 28.59375 C 11.101562 28.59375 7.171875 24.289062 7.171875 24 C 7.171875 23.710938 11.101562 19.40625 11.363281 19.40625 C 11.417969 19.40625 11.429688 19.566406 11.398438 19.753906 Z M 38.070312 20.785156 C 38.820312 21.554688 39.757812 22.585938 40.164062 23.082031 L 40.894531 24 L 40.164062 24.910156 C 39.355469 25.921875 36.703125 28.667969 36.617188 28.585938 C 36.589844 28.554688 36.609375 28.078125 36.65625 27.507812 C 36.75 26.457031 36.789062 21.675781 36.710938 21.027344 C 36.601562 20.136719 36.5625 19.40625 36.636719 19.40625 C 36.683594 19.40625 37.332031 20.023438 38.070312 20.785156 Z M 7.003906 26.410156 C 7.855469 27.421875 10.023438 29.597656 11.136719 30.5625 L 11.726562 31.078125 L 12.046875 32.671875 C 12.394531 34.398438 12.9375 36.347656 13.453125 37.734375 C 13.632812 38.210938 13.78125 38.632812 13.78125 38.664062 C 13.78125 38.773438 11.476562 38.71875 10.519531 38.570312 C 9.113281 38.363281 7.320312 37.761719 6.710938 37.292969 C 6.535156 37.152344 6.535156 37.144531 6.730469 36.824219 C 7.039062 36.320312 7.246094 35.398438 7.171875 34.820312 C 7.097656 34.164062 6.648438 33.289062 6.1875 32.867188 C 5.679688 32.417969 5.203125 32.183594 4.460938 32.054688 C 3.75 31.921875 3.777344 32.007812 3.992188 30.742188 C 4.265625 29.148438 4.867188 27.507812 5.691406 26.128906 C 5.933594 25.734375 6.140625 25.40625 6.140625 25.40625 C 6.148438 25.40625 6.535156 25.855469 7.003906 26.410156 Z M 42.84375 27.140625 C 43.332031 28.132812 43.820312 29.652344 44.007812 30.742188 C 44.222656 32.007812 44.25 31.921875 43.527344 32.054688 C 42.367188 32.269531 41.558594 32.878906 41.082031 33.929688 C 40.882812 34.351562 40.835938 34.59375 40.828125 35.203125 C 40.828125 35.851562 40.867188 36.027344 41.109375 36.515625 C 41.269531 36.824219 41.398438 37.105469 41.417969 37.132812 C 41.476562 37.265625 40.414062 37.78125 39.460938 38.101562 C 38.925781 38.277344 38.035156 38.492188 37.492188 38.570312 C 36.523438 38.71875 34.21875 38.773438 34.21875 38.664062 C 34.21875 38.632812 34.367188 38.210938 34.546875 37.734375 C 35.054688 36.367188 35.597656 34.425781 35.953125 32.679688 L 36.273438 31.078125 L 36.863281 30.5625 C 37.988281 29.585938 40.144531 27.421875 40.996094 26.410156 L 41.851562 25.398438 L 42.167969 25.894531 C 42.335938 26.164062 42.648438 26.726562 42.84375 27.140625 Z M 16.359375 34.332031 C 17.617188 35.117188 19.714844 36.253906 20.886719 36.796875 C 21.308594 36.992188 21.65625 37.179688 21.65625 37.21875 C 21.65625 37.304688 19.949219 37.78125 18.515625 38.109375 C 17.511719 38.335938 15.554688 38.652344 15.515625 38.605469 C 15.441406 38.523438 14.605469 36.207031 14.410156 35.53125 C 14.148438 34.660156 13.6875 32.832031 13.6875 32.652344 C 13.6875 32.585938 14.035156 32.785156 14.464844 33.085938 C 14.886719 33.382812 15.742188 33.945312 16.359375 34.332031 Z M 34.171875 33.347656 C 33.917969 34.507812 33.394531 36.234375 32.933594 37.453125 C 32.699219 38.070312 32.492188 38.585938 32.484375 38.605469 C 32.445312 38.644531 30.582031 38.351562 29.644531 38.148438 C 28.433594 37.894531 26.34375 37.304688 26.34375 37.226562 C 26.34375 37.191406 26.925781 36.882812 27.636719 36.535156 C 28.339844 36.195312 29.492188 35.585938 30.1875 35.195312 C 31.480469 34.460938 34.070312 32.785156 34.179688 32.617188 C 34.320312 32.382812 34.320312 32.671875 34.171875 33.347656 Z M 4.847656 33.863281 C 5.578125 34.304688 5.804688 35.34375 5.324219 36.066406 C 4.761719 36.910156 3.523438 37.011719 2.851562 36.261719 C 2.53125 35.914062 2.4375 35.671875 2.4375 35.183594 C 2.4375 33.945312 3.769531 33.214844 4.847656 33.863281 Z M 44.363281 33.65625 C 45.085938 33.863281 45.5625 34.472656 45.5625 35.203125 C 45.5625 36.09375 44.898438 36.769531 44.015625 36.769531 C 42.9375 36.769531 42.195312 35.804688 42.46875 34.773438 C 42.601562 34.304688 43.078125 33.796875 43.527344 33.664062 C 43.929688 33.554688 43.960938 33.554688 44.363281 33.65625 Z M 24.851562 38.445312 C 26.585938 39.085938 29.558594 39.835938 31.246094 40.078125 C 31.492188 40.105469 31.6875 40.164062 31.6875 40.191406 C 31.6875 40.320312 30.976562 41.539062 30.488281 42.234375 C 29.820312 43.171875 28.539062 44.523438 27.789062 45.054688 C 26.25 46.152344 24.582031 46.59375 23.007812 46.304688 C 20.773438 45.898438 18.375 43.894531 16.800781 41.128906 C 16.21875 40.117188 16.226562 40.152344 16.753906 40.078125 C 18.382812 39.851562 21.75 38.980469 23.25 38.398438 C 23.585938 38.277344 23.90625 38.164062 23.960938 38.164062 C 24.007812 38.15625 24.414062 38.289062 24.851562 38.445312 Z M 24.851562 38.445312 "/>
<path style=" stroke:none;fill-rule:nonzero;fill:rgb(0%,0%,0%);fill-opacity:1;" d="M 19.527344 18.628906 C 19.304688 18.835938 18.777344 20.007812 17.210938 23.785156 C 16.097656 26.464844 15.1875 28.753906 15.1875 28.855469 C 15.1875 29.136719 15.5625 29.523438 15.890625 29.585938 C 16.386719 29.679688 16.613281 29.390625 17.257812 27.84375 L 17.851562 26.4375 L 22.132812 26.4375 L 22.351562 26.925781 C 22.460938 27.195312 22.742188 27.851562 22.96875 28.386719 C 23.289062 29.164062 23.417969 29.382812 23.644531 29.492188 C 24.167969 29.765625 24.75 29.417969 24.75 28.835938 C 24.75 28.480469 20.804688 18.898438 20.550781 18.636719 C 20.457031 18.542969 20.257812 18.449219 20.101562 18.414062 C 19.855469 18.367188 19.753906 18.402344 19.527344 18.628906 Z M 20.757812 23.089844 C 21.132812 24 21.421875 24.769531 21.394531 24.796875 C 21.328125 24.863281 18.5625 24.863281 18.5625 24.789062 C 18.5625 24.730469 19.867188 21.5625 19.941406 21.441406 C 19.96875 21.394531 20.007812 21.375 20.023438 21.394531 C 20.042969 21.421875 20.371094 22.179688 20.757812 23.089844 Z M 20.757812 23.089844 "/>
<path style=" stroke:none;fill-rule:nonzero;fill:rgb(0%,0%,0%);fill-opacity:1;" d="M 26.089844 18.46875 C 25.761719 18.601562 25.566406 18.984375 25.632812 19.351562 C 25.726562 19.847656 25.882812 19.914062 26.992188 19.96875 L 27.984375 20.015625 L 27.984375 27.984375 L 26.980469 28.03125 C 25.855469 28.085938 25.714844 28.152344 25.632812 28.695312 C 25.585938 28.96875 25.621094 29.082031 25.808594 29.304688 L 26.042969 29.578125 L 28.714844 29.605469 L 31.378906 29.632812 L 31.679688 29.390625 C 32.054688 29.070312 32.082031 28.601562 31.734375 28.265625 C 31.527344 28.050781 31.445312 28.03125 30.5625 28.03125 L 29.625 28.03125 L 29.625 19.96875 L 30.5625 19.96875 C 31.445312 19.96875 31.527344 19.949219 31.734375 19.734375 C 32.082031 19.398438 32.054688 18.929688 31.679688 18.617188 L 31.386719 18.375 L 28.847656 18.382812 C 27.441406 18.382812 26.203125 18.421875 26.089844 18.46875 Z M 26.089844 18.46875 "/>
</g>
</svg>
