<?xml version="1.0" encoding="UTF-8"?>
<svg xmlns="http://www.w3.org/2000/svg" xmlns:xlink="http://www.w3.org/1999/xlink" width="48" height="48" viewBox="0 0 48 48" version="1.1">
<g id="surface1">
<path style=" stroke:none;fill-rule:nonzero;fill:rgb(0%,0%,0%);fill-opacity:1;" d="M 21.898438 2.164062 C 21.441406 2.210938 21.046875 2.269531 21.019531 2.296875 C 20.886719 2.417969 21.1875 2.476562 22.273438 2.539062 C 23.351562 2.605469 24.589844 2.757812 24.929688 2.867188 C 25.023438 2.898438 24.890625 3.066406 24.535156 3.382812 C 24.1875 3.695312 23.972656 3.976562 23.898438 4.199219 C 23.832031 4.414062 23.8125 5.15625 23.832031 6.167969 L 23.859375 7.800781 L 24.167969 8.070312 C 24.570312 8.4375 24.957031 8.4375 25.320312 8.070312 L 25.59375 7.800781 L 25.59375 4.800781 L 26.015625 4.425781 L 26.429688 4.058594 L 26.0625 3.757812 C 25.621094 3.414062 25.386719 3.007812 25.320312 2.484375 L 25.265625 2.109375 L 24 2.101562 C 23.304688 2.089844 22.359375 2.117188 21.898438 2.164062 Z M 21.898438 2.164062 "/>
<path style=" stroke:none;fill-rule:nonzero;fill:rgb(0%,0%,0%);fill-opacity:1;" d="M 12.320312 3.113281 C 12.226562 3.320312 11.992188 3.617188 11.792969 3.777344 L 11.4375 4.070312 L 12.1875 4.835938 L 12.1875 6.214844 C 12.1875 7.734375 12.261719 8.035156 12.703125 8.230469 C 13.011719 8.371094 13.144531 8.371094 13.453125 8.230469 C 13.914062 8.023438 13.96875 7.761719 13.96875 5.859375 L 13.96875 4.105469 L 13.386719 3.496094 C 12.570312 2.664062 12.535156 2.644531 12.320312 3.113281 Z M 12.320312 3.113281 "/>
<path style=" stroke:none;fill-rule:nonzero;fill:rgb(0%,0%,0%);fill-opacity:1;" d="M 29.25 2.992188 C 29.183594 3.148438 28.976562 3.421875 28.78125 3.601562 L 28.425781 3.917969 L 29.503906 4.445312 C 30.09375 4.734375 30.863281 5.15625 31.21875 5.382812 L 31.855469 5.792969 L 32.34375 5.652344 C 32.960938 5.476562 33.507812 5.550781 34.058594 5.90625 C 34.773438 6.355469 35.195312 7.339844 34.988281 8.101562 C 34.894531 8.417969 34.914062 8.457031 35.410156 9.066406 C 36.851562 10.808594 37.929688 12.9375 38.484375 15.113281 C 38.972656 17.042969 39.007812 18.488281 38.625 19.875 C 38.304688 21 38.382812 21.871094 38.851562 22.546875 C 38.953125 22.695312 39.46875 23.363281 39.992188 24.007812 C 41.839844 26.296875 42.65625 27.523438 42.65625 27.992188 C 42.65625 28.519531 41.578125 29.304688 40.105469 29.859375 L 39.65625 30.027344 L 39.65625 31.800781 L 39.300781 32.148438 C 39.113281 32.335938 38.792969 32.625 38.597656 32.792969 C 38.398438 32.972656 38.257812 33.167969 38.289062 33.234375 C 38.558594 33.957031 38.390625 34.453125 37.660156 35.082031 C 37.386719 35.316406 37.050781 35.726562 36.898438 36.007812 C 36.648438 36.46875 36.617188 36.628906 36.554688 37.78125 C 36.515625 38.476562 36.429688 39.214844 36.375 39.421875 C 36.039062 40.566406 35.101562 41.664062 34.210938 41.953125 C 33.824219 42.085938 33.507812 42.101562 32.679688 42.074219 C 31.714844 42.027344 31.527344 41.992188 30.074219 41.492188 C 28.585938 40.976562 28.5 40.960938 28.238281 41.101562 C 27.984375 41.230469 27.789062 41.53125 26.773438 43.3125 L 26.484375 43.828125 L 26.457031 45.816406 L 26.429688 47.8125 L 26.699219 47.8125 C 26.851562 47.8125 27.347656 47.746094 27.804688 47.671875 C 37.378906 46.03125 44.886719 38.597656 46.585938 29.082031 C 47.652344 23.136719 46.367188 17.128906 42.957031 12.101562 C 40.117188 7.902344 35.8125 4.6875 30.984375 3.160156 C 29.390625 2.664062 29.390625 2.664062 29.25 2.992188 Z M 29.25 2.992188 "/>
<path style=" stroke:none;fill-rule:nonzero;fill:rgb(0%,0%,0%);fill-opacity:1;" d="M 18 5.820312 C 18 7.789062 18.054688 8.042969 18.554688 8.25 C 18.917969 8.398438 19.359375 8.296875 19.59375 7.996094 C 19.761719 7.773438 19.78125 7.621094 19.78125 5.953125 L 19.78125 4.144531 L 19.179688 4.191406 C 18.851562 4.21875 18.449219 4.199219 18.289062 4.144531 L 18 4.039062 Z M 18 5.820312 "/>
<path style=" stroke:none;fill-rule:nonzero;fill:rgb(0%,0%,0%);fill-opacity:1;" d="M 6.488281 9 C 6.320312 9.207031 6.039062 9.441406 5.878906 9.523438 C 5.710938 9.609375 5.558594 9.695312 5.539062 9.710938 C 5.523438 9.730469 5.664062 9.917969 5.851562 10.132812 L 6.179688 10.527344 L 6 10.773438 C 5.148438 11.878906 3.75 14.042969 3.75 14.269531 C 3.75 14.304688 3.898438 14.269531 4.078125 14.195312 C 4.257812 14.128906 4.5 14.0625 4.621094 14.0625 C 4.820312 14.0625 4.882812 13.96875 5.0625 13.472656 C 5.277344 12.890625 5.992188 11.398438 6.253906 10.996094 L 6.394531 10.78125 L 6.628906 10.96875 C 6.851562 11.136719 7.011719 11.15625 8.710938 11.15625 C 10.753906 11.15625 10.875 11.128906 11.0625 10.554688 C 11.175781 10.191406 11.089844 9.890625 10.78125 9.609375 C 10.59375 9.441406 10.414062 9.421875 9.046875 9.394531 L 7.507812 9.367188 L 7.179688 8.992188 C 6.992188 8.792969 6.835938 8.625 6.824219 8.625 C 6.804688 8.625 6.65625 8.792969 6.488281 9 Z M 6.488281 9 "/>
<path style=" stroke:none;fill-rule:nonzero;fill:rgb(0%,0%,0%);fill-opacity:1;" d="M 30.609375 9 L 30.242188 9.375 L 28.847656 9.375 C 27.796875 9.375 27.394531 9.414062 27.1875 9.515625 C 26.632812 9.796875 26.550781 10.433594 26.992188 10.882812 L 27.261719 11.15625 L 30.957031 11.15625 L 31.601562 10.527344 C 31.960938 10.191406 32.25 9.851562 32.25 9.796875 C 32.25 9.730469 32.117188 9.628906 31.96875 9.5625 C 31.808594 9.496094 31.519531 9.261719 31.320312 9.039062 L 30.964844 8.632812 Z M 30.609375 9 "/>
<path style=" stroke:none;fill-rule:nonzero;fill:rgb(0%,0%,0%);fill-opacity:1;" d="M 14.109375 9.742188 C 13.386719 9.917969 12.742188 10.5 12.570312 11.128906 C 12.429688 11.617188 12.429688 20.632812 12.570312 21.121094 C 12.695312 21.5625 13.132812 22.078125 13.632812 22.339844 C 13.996094 22.539062 14.148438 22.546875 16.820312 22.574219 L 19.613281 22.601562 L 19.367188 22.292969 C 18.816406 21.5625 18.710938 20.878906 19.03125 20.042969 C 19.191406 19.621094 19.199219 19.539062 19.078125 19.40625 C 19.003906 19.332031 18.851562 19.023438 18.742188 18.722656 L 18.535156 18.1875 L 16.117188 18.1875 L 15.976562 18.535156 C 15.636719 19.339844 15.542969 19.492188 15.273438 19.585938 C 14.765625 19.761719 14.34375 19.445312 14.34375 18.898438 C 14.34375 18.589844 16.519531 12.890625 16.734375 12.65625 C 16.820312 12.5625 17.015625 12.449219 17.15625 12.421875 C 17.382812 12.375 17.417969 12.308594 17.464844 11.90625 C 17.550781 11.222656 17.832031 10.660156 18.367188 10.125 L 18.835938 9.65625 L 16.613281 9.664062 C 15.394531 9.675781 14.269531 9.703125 14.109375 9.742188 Z M 14.109375 9.742188 "/>
<path style=" stroke:none;fill-rule:nonzero;fill:rgb(0%,0%,0%);fill-opacity:1;" d="M 16.960938 15.898438 L 16.613281 16.78125 L 17.992188 16.78125 L 17.71875 16.023438 C 17.558594 15.601562 17.398438 15.195312 17.363281 15.132812 C 17.324219 15.054688 17.164062 15.335938 16.960938 15.898438 Z M 16.960938 15.898438 "/>
<path style=" stroke:none;fill-rule:nonzero;fill:rgb(0%,0%,0%);fill-opacity:1;" d="M 6.910156 15.394531 C 6.945312 15.515625 6.984375 15.84375 6.984375 16.125 C 6.984375 16.40625 6.945312 16.734375 6.910156 16.847656 L 6.835938 17.0625 L 8.53125 17.0625 C 10.492188 17.0625 10.78125 16.996094 11.035156 16.453125 C 11.195312 16.125 11.195312 16.097656 11.015625 15.769531 C 10.742188 15.261719 10.453125 15.195312 8.503906 15.195312 L 6.835938 15.1875 Z M 6.910156 15.394531 "/>
<path style=" stroke:none;fill-rule:nonzero;fill:rgb(0%,0%,0%);fill-opacity:1;" d="M 27.402344 15.253906 C 26.765625 15.375 26.492188 16.257812 26.953125 16.707031 C 27.273438 17.023438 27.515625 17.0625 29.363281 17.0625 L 30.957031 17.0625 L 30.882812 16.753906 C 30.835938 16.59375 30.796875 16.304688 30.796875 16.125 C 30.796875 15.945312 30.835938 15.65625 30.882812 15.488281 L 30.957031 15.1875 L 29.277344 15.195312 C 28.359375 15.207031 27.515625 15.234375 27.402344 15.253906 Z M 27.402344 15.253906 "/>
<path style=" stroke:none;fill-rule:nonzero;fill:rgb(0%,0%,0%);fill-opacity:1;" d="M 2.457031 17.089844 C 1.867188 18.722656 1.460938 20.371094 1.210938 22.21875 C 1.050781 23.371094 1.050781 26.691406 1.210938 27.84375 C 1.808594 32.25 3.460938 36.121094 6.148438 39.46875 C 6.816406 40.292969 8.765625 42.289062 9.253906 42.636719 L 9.535156 42.835938 L 10.246094 39.628906 C 11.148438 35.617188 11.175781 35.109375 10.480469 33.675781 C 10.273438 33.226562 9.910156 32.773438 9.054688 31.875 C 7.414062 30.167969 6.609375 29.0625 5.792969 27.421875 L 5.410156 26.644531 L 5.054688 26.691406 C 4.292969 26.792969 3.367188 26.242188 2.960938 25.433594 C 2.746094 25.003906 2.765625 24.148438 3.007812 23.652344 C 3.207031 23.242188 3.789062 22.6875 4.011719 22.6875 C 4.117188 22.6875 4.132812 22.59375 4.085938 22.285156 C 4.058594 22.070312 4.003906 21.027344 3.976562 19.988281 L 3.910156 18.074219 L 3.460938 17.625 C 3.148438 17.316406 2.972656 17.035156 2.878906 16.726562 L 2.746094 16.273438 Z M 2.457031 17.089844 "/>
<path style=" stroke:none;fill-rule:nonzero;fill:rgb(0%,0%,0%);fill-opacity:1;" d="M 6.167969 21.757812 C 5.8125 22.125 5.53125 22.460938 5.53125 22.5 C 5.53125 22.539062 5.632812 22.601562 5.757812 22.632812 C 6.007812 22.695312 6.5625 23.183594 6.730469 23.484375 C 6.824219 23.664062 6.851562 23.652344 7.171875 23.277344 L 7.5 22.882812 L 9.039062 22.855469 C 10.414062 22.828125 10.59375 22.808594 10.78125 22.640625 C 11.089844 22.359375 11.175781 22.058594 11.0625 21.695312 C 10.875 21.121094 10.761719 21.09375 8.671875 21.09375 L 6.796875 21.09375 Z M 6.167969 21.757812 "/>
<path style=" stroke:none;fill-rule:nonzero;fill:rgb(0%,0%,0%);fill-opacity:1;" d="M 26.992188 21.367188 C 26.550781 21.816406 26.632812 22.453125 27.1875 22.734375 C 27.394531 22.835938 27.796875 22.875 28.847656 22.875 L 30.242188 22.875 L 30.609375 23.25 L 30.976562 23.617188 L 31.304688 23.230469 C 31.480469 23.023438 31.800781 22.773438 32.007812 22.679688 L 32.390625 22.507812 L 31.679688 21.804688 L 30.976562 21.09375 L 27.261719 21.09375 Z M 26.992188 21.367188 "/>
<path style=" stroke:none;fill-rule:nonzero;fill:rgb(0%,0%,0%);fill-opacity:1;" d="M 12.664062 24.039062 C 12.253906 24.261719 12.195312 24.515625 12.1875 26.015625 L 12.1875 27.414062 L 11.804688 27.804688 L 11.417969 28.199219 L 11.839844 28.585938 C 12.074219 28.800781 12.308594 29.101562 12.375 29.25 C 12.441406 29.410156 12.523438 29.53125 12.5625 29.53125 C 12.589844 29.53125 12.929688 29.222656 13.292969 28.835938 L 13.96875 28.144531 L 13.96875 26.410156 C 13.96875 24.515625 13.921875 24.261719 13.492188 24.039062 C 13.171875 23.878906 12.957031 23.878906 12.664062 24.039062 Z M 12.664062 24.039062 "/>
<path style=" stroke:none;fill-rule:nonzero;fill:rgb(0%,0%,0%);fill-opacity:1;" d="M 18.476562 24.039062 C 18.046875 24.273438 18.007812 24.488281 18 26.410156 L 18 28.210938 L 18.289062 28.105469 C 18.449219 28.050781 18.851562 28.03125 19.179688 28.058594 L 19.78125 28.105469 L 19.78125 24.449219 L 19.507812 24.179688 C 19.210938 23.878906 18.851562 23.832031 18.476562 24.039062 Z M 18.476562 24.039062 "/>
<path style=" stroke:none;fill-rule:nonzero;fill:rgb(0%,0%,0%);fill-opacity:1;" d="M 24.167969 24.179688 L 23.859375 24.449219 L 23.832031 26.175781 C 23.804688 28.191406 23.820312 28.246094 24.722656 29.042969 L 25.304688 29.550781 L 25.433594 29.230469 C 25.507812 29.054688 25.753906 28.742188 25.988281 28.546875 L 26.398438 28.191406 L 25.59375 27.441406 L 25.59375 24.449219 L 25.320312 24.179688 C 24.957031 23.8125 24.570312 23.8125 24.167969 24.179688 Z M 24.167969 24.179688 "/>
</g>
</svg>
