<?xml version="1.0" encoding="UTF-8"?>
<svg xmlns="http://www.w3.org/2000/svg" xmlns:xlink="http://www.w3.org/1999/xlink" width="538" height="380" viewBox="0 0 538 380" version="1.1">
<defs>
<clipPath id="clip1">
  <path d="M 201 188 L 237 188 L 237 201 L 201 201 Z M 201 188 "/>
</clipPath>
<clipPath id="clip2">
  <path d="M 201.453125 189.238281 L 206.089844 202.921875 C 206.769531 204.953125 208.792969 206.226562 210.921875 205.960938 L 231.28125 203.742188 C 233.402344 203.484375 235.050781 201.777344 235.234375 199.652344 L 236.496094 185.265625 C 236.582031 184.3125 236.234375 183.371094 235.550781 182.699219 C 234.863281 182.03125 233.914062 181.707031 232.960938 181.816406 L 204.136719 185.039062 C 203.171875 185.144531 202.308594 185.679688 201.789062 186.496094 C 201.265625 187.3125 201.144531 188.320312 201.453125 189.238281 Z M 201.453125 189.238281 "/>
</clipPath>
</defs>
<g id="surface1">
<path style="fill:none;stroke-width:1.081625;stroke-linecap:butt;stroke-linejoin:miter;stroke:rgb(14.901961%,19.607843%,21.960784%);stroke-opacity:1;stroke-miterlimit:10;" d="M 438.630757 283.162007 L 42.937911 283.162007 " transform="matrix(0.76,0,0,0.76,0,0)"/>
<path style=" stroke:none;fill-rule:nonzero;fill:rgb(14.901961%,19.607843%,21.960784%);fill-opacity:1;" d="M 87.796875 127.558594 C 87.796875 125.46875 88.761719 123.933594 90.933594 123.933594 C 93.109375 123.933594 94.109375 125.453125 94.109375 127.558594 L 94.109375 134.898438 C 94.109375 136.988281 93.144531 138.523438 90.933594 138.523438 C 88.722656 138.523438 87.796875 137.003906 87.796875 134.898438 Z M 88.738281 134.960938 C 88.738281 136.480469 89.351562 137.667969 90.933594 137.667969 C 92.515625 137.667969 93.167969 136.519531 93.167969 134.960938 L 93.167969 127.496094 C 93.167969 125.976562 92.53125 124.792969 90.933594 124.792969 C 89.339844 124.792969 88.738281 125.941406 88.738281 127.496094 Z M 88.738281 134.960938 "/>
<path style=" stroke:none;fill-rule:nonzero;fill:rgb(14.901961%,19.607843%,21.960784%);fill-opacity:1;" d="M 95.609375 127.558594 C 95.609375 125.46875 96.574219 123.933594 98.738281 123.933594 C 100.90625 123.933594 101.914062 125.453125 101.914062 127.558594 L 101.914062 134.898438 C 101.914062 136.988281 100.957031 138.523438 98.738281 138.523438 C 96.519531 138.523438 95.609375 137.003906 95.609375 134.898438 Z M 96.550781 134.960938 C 96.550781 136.480469 97.164062 137.667969 98.738281 137.667969 C 100.3125 137.667969 100.972656 136.519531 100.972656 134.960938 L 100.972656 127.496094 C 100.972656 125.976562 100.34375 124.792969 98.738281 124.792969 C 97.136719 124.792969 96.550781 125.941406 96.550781 127.496094 Z M 96.550781 134.960938 "/>
<path style=" stroke:none;fill-rule:nonzero;fill:rgb(14.901961%,19.607843%,21.960784%);fill-opacity:1;" d="M 106.445312 124.054688 C 108.664062 124.054688 109.523438 125.453125 109.523438 127.542969 L 109.523438 129.101562 C 109.523438 131.382812 108.476562 132.5 106.203125 132.5 L 104.417969 132.5 L 104.417969 138.402344 L 103.472656 138.402344 L 103.472656 124.054688 Z M 106.203125 131.65625 C 107.859375 131.65625 108.582031 130.894531 108.582031 129.175781 L 108.582031 127.496094 C 108.582031 125.941406 108.050781 124.9375 106.445312 124.9375 L 104.417969 124.9375 L 104.417969 131.65625 Z M 106.203125 131.65625 "/>
<path style=" stroke:none;fill-rule:nonzero;fill:rgb(14.901961%,19.607843%,21.960784%);fill-opacity:1;" d="M 116.988281 127.519531 L 116.988281 127.824219 L 116.082031 127.824219 L 116.082031 127.460938 C 116.082031 125.941406 115.511719 124.792969 113.953125 124.792969 C 112.394531 124.792969 111.820312 125.925781 111.820312 127.4375 C 111.820312 130.925781 117.003906 130.984375 117.003906 134.9375 C 117.003906 137.003906 116.105469 138.523438 113.910156 138.523438 C 111.710938 138.523438 110.816406 137.003906 110.816406 134.9375 L 110.816406 134.179688 L 111.71875 134.179688 L 111.71875 134.9375 C 111.71875 136.457031 112.3125 137.582031 113.894531 137.582031 C 115.472656 137.582031 116.058594 136.472656 116.058594 134.9375 C 116.058594 131.496094 110.875 131.433594 110.875 127.4375 C 110.875 125.285156 111.820312 123.894531 113.917969 123.871094 C 116.015625 123.847656 116.988281 125.453125 116.988281 127.519531 Z M 116.988281 127.519531 "/>
<path style=" stroke:none;fill-rule:nonzero;fill:rgb(14.901961%,19.607843%,21.960784%);fill-opacity:1;" d="M 119.320312 136.601562 L 119.320312 138.402344 L 118.402344 138.402344 L 118.402344 136.601562 Z M 119.320312 136.601562 "/>
<path style=" stroke:none;fill-rule:nonzero;fill:rgb(14.901961%,19.607843%,21.960784%);fill-opacity:1;" d="M 121.902344 136.601562 L 121.902344 138.402344 L 120.984375 138.402344 L 120.984375 136.601562 Z M 121.902344 136.601562 "/>
<path style=" stroke:none;fill-rule:nonzero;fill:rgb(14.901961%,19.607843%,21.960784%);fill-opacity:1;" d="M 124.464844 136.601562 L 124.464844 138.402344 L 123.546875 138.402344 L 123.546875 136.601562 Z M 124.464844 136.601562 "/>
<path style=" stroke:none;fill-rule:nonzero;fill:rgb(14.901961%,19.607843%,21.960784%);fill-opacity:1;" d="M 54.15625 187.46875 L 70.308594 149.277344 L 79.996094 149.277344 L 79.996094 187.46875 L 84.191406 187.46875 L 84.191406 195.539062 L 79.996094 195.539062 L 79.996094 205.792969 L 71.273438 205.792969 L 71.273438 195.539062 L 54.15625 195.539062 Z M 71.273438 187.46875 L 71.273438 166.234375 L 62.320312 187.46875 Z M 71.273438 187.46875 "/>
<path style=" stroke:none;fill-rule:nonzero;fill:rgb(14.901961%,19.607843%,21.960784%);fill-opacity:1;" d="M 87.507812 162.835938 C 87.507812 153.800781 92.273438 148.632812 100.988281 148.632812 C 109.707031 148.632812 114.472656 153.800781 114.472656 162.835938 L 114.472656 192.226562 C 114.472656 201.269531 109.707031 206.4375 100.988281 206.4375 C 92.273438 206.4375 87.507812 201.269531 87.507812 192.226562 Z M 96.382812 192.796875 C 96.382812 196.832031 98.160156 198.367188 100.988281 198.367188 C 103.816406 198.367188 105.59375 196.847656 105.59375 192.796875 L 105.59375 162.273438 C 105.59375 158.238281 103.816406 156.703125 100.988281 156.703125 C 98.160156 156.703125 96.382812 158.222656 96.382812 162.273438 Z M 96.382812 192.796875 "/>
<path style=" stroke:none;fill-rule:nonzero;fill:rgb(14.901961%,19.607843%,21.960784%);fill-opacity:1;" d="M 118.105469 187.46875 L 134.253906 149.277344 L 143.945312 149.277344 L 143.945312 187.46875 L 148.140625 187.46875 L 148.140625 195.539062 L 143.945312 195.539062 L 143.945312 205.792969 L 135.21875 205.792969 L 135.21875 195.539062 L 118.105469 195.539062 Z M 135.21875 187.46875 L 135.21875 166.234375 L 126.257812 187.46875 Z M 135.21875 187.46875 "/>
<path style=" stroke:none;fill-rule:nonzero;fill:rgb(14.901961%,19.607843%,21.960784%);fill-opacity:1;" d="M 58.046875 219.367188 C 60.222656 219.367188 61.089844 220.734375 61.089844 222.777344 L 61.089844 224.296875 C 61.089844 226.527344 60.0625 227.636719 57.835938 227.636719 L 56.089844 227.636719 L 56.089844 233.410156 L 55.136719 233.410156 L 55.136719 219.367188 Z M 57.8125 226.800781 C 59.441406 226.800781 60.140625 226.039062 60.140625 224.367188 L 60.140625 222.71875 C 60.140625 221.199219 59.621094 220.210938 58.046875 220.210938 L 56.066406 220.210938 L 56.066406 226.800781 Z M 57.8125 226.800781 "/>
<path style=" stroke:none;fill-rule:nonzero;fill:rgb(14.901961%,19.607843%,21.960784%);fill-opacity:1;" d="M 63.535156 230.28125 L 62.828125 233.386719 L 61.992188 233.386719 L 65.03125 219.3125 L 66.378906 219.3125 L 69.507812 233.386719 L 68.613281 233.386719 L 67.914062 230.28125 Z M 63.671875 229.472656 L 67.769531 229.472656 L 65.703125 220.355469 Z M 63.671875 229.472656 "/>
<path style=" stroke:none;fill-rule:nonzero;fill:rgb(14.901961%,19.607843%,21.960784%);fill-opacity:1;" d="M 76.933594 222.800781 L 76.933594 223.84375 L 76.046875 223.84375 L 76.046875 222.742188 C 76.046875 221.222656 75.46875 220.089844 73.917969 220.089844 C 72.367188 220.089844 71.789062 221.234375 71.789062 222.742188 L 71.789062 230.050781 C 71.789062 231.570312 72.375 232.679688 73.917969 232.679688 C 75.460938 232.679688 76.046875 231.558594 76.046875 230.050781 L 76.046875 227.011719 L 74.183594 227.011719 L 74.183594 226.175781 L 76.933594 226.175781 L 76.933594 229.976562 C 76.933594 232.003906 76.046875 233.523438 73.894531 233.523438 C 71.742188 233.523438 70.855469 232.003906 70.855469 229.976562 L 70.855469 222.785156 C 70.855469 220.757812 71.738281 219.230469 73.894531 219.230469 C 76.054688 219.230469 76.933594 220.773438 76.933594 222.800781 Z M 76.933594 222.800781 "/>
<path style=" stroke:none;fill-rule:nonzero;fill:rgb(14.901961%,19.607843%,21.960784%);fill-opacity:1;" d="M 83.234375 225.871094 L 83.234375 226.714844 L 79.433594 226.714844 L 79.433594 232.558594 L 84.046875 232.558594 L 84.046875 233.394531 L 78.507812 233.394531 L 78.507812 219.367188 L 84.046875 219.367188 L 84.046875 220.210938 L 79.433594 220.210938 L 79.433594 225.871094 Z M 83.234375 225.871094 "/>
<path style=" stroke:none;fill-rule:nonzero;fill:rgb(14.901961%,19.607843%,21.960784%);fill-opacity:1;" d="M 89.480469 233.417969 L 88.640625 233.417969 L 88.640625 219.367188 L 89.847656 219.367188 L 94.066406 231.230469 L 94.066406 219.367188 L 94.910156 219.367188 L 94.910156 233.417969 L 93.882812 233.417969 L 89.480469 220.894531 Z M 89.480469 233.417969 "/>
<path style=" stroke:none;fill-rule:nonzero;fill:rgb(14.901961%,19.607843%,21.960784%);fill-opacity:1;" d="M 96.4375 222.800781 C 96.4375 220.75 97.378906 219.246094 99.476562 219.246094 C 101.574219 219.246094 102.585938 220.765625 102.585938 222.800781 L 102.585938 229.992188 C 102.585938 232.035156 101.640625 233.539062 99.476562 233.539062 C 97.308594 233.539062 96.4375 232.019531 96.4375 229.992188 Z M 97.355469 230.050781 C 97.355469 231.570312 97.957031 232.695312 99.507812 232.695312 C 101.058594 232.695312 101.695312 231.570312 101.695312 230.050781 L 101.695312 222.742188 C 101.695312 221.222656 101.074219 220.089844 99.507812 220.089844 C 97.941406 220.089844 97.355469 221.214844 97.355469 222.742188 Z M 97.355469 230.050781 "/>
<path style=" stroke:none;fill-rule:nonzero;fill:rgb(14.901961%,19.607843%,21.960784%);fill-opacity:1;" d="M 106.515625 233.417969 L 106.515625 220.210938 L 103.664062 220.210938 L 103.664062 219.367188 L 110.304688 219.367188 L 110.304688 220.210938 L 107.441406 220.210938 L 107.441406 233.417969 Z M 106.515625 233.417969 "/>
<path style=" stroke:none;fill-rule:nonzero;fill:rgb(14.901961%,19.607843%,21.960784%);fill-opacity:1;" d="M 119.128906 226.214844 L 119.128906 227.058594 L 115.519531 227.058594 L 115.519531 233.417969 L 114.601562 233.417969 L 114.601562 219.367188 L 119.921875 219.367188 L 119.921875 220.210938 L 115.519531 220.210938 L 115.519531 226.214844 Z M 119.128906 226.214844 "/>
<path style=" stroke:none;fill-rule:nonzero;fill:rgb(14.901961%,19.607843%,21.960784%);fill-opacity:1;" d="M 121.257812 222.800781 C 121.257812 220.75 122.199219 219.246094 124.296875 219.246094 C 126.394531 219.246094 127.414062 220.765625 127.414062 222.800781 L 127.414062 229.992188 C 127.414062 232.035156 126.464844 233.539062 124.296875 233.539062 C 122.132812 233.539062 121.257812 232.019531 121.257812 229.992188 Z M 122.175781 230.050781 C 122.175781 231.570312 122.785156 232.695312 124.328125 232.695312 C 125.871094 232.695312 126.515625 231.570312 126.515625 230.050781 L 126.515625 222.742188 C 126.515625 221.222656 125.894531 220.089844 124.328125 220.089844 C 122.761719 220.089844 122.175781 221.214844 122.175781 222.742188 Z M 122.175781 230.050781 "/>
<path style=" stroke:none;fill-rule:nonzero;fill:rgb(14.901961%,19.607843%,21.960784%);fill-opacity:1;" d="M 129.855469 230.027344 C 129.855469 231.550781 130.414062 232.695312 131.957031 232.695312 C 133.5 232.695312 134.070312 231.535156 134.070312 230.027344 L 134.070312 219.390625 L 134.929688 219.390625 L 134.929688 230.027344 C 134.929688 232.035156 134.085938 233.578125 131.945312 233.578125 C 129.800781 233.578125 128.902344 232.058594 128.902344 230.027344 L 128.902344 219.390625 L 129.832031 219.390625 Z M 129.855469 230.027344 "/>
<path style=" stroke:none;fill-rule:nonzero;fill:rgb(14.901961%,19.607843%,21.960784%);fill-opacity:1;" d="M 137.363281 233.417969 L 136.519531 233.417969 L 136.519531 219.367188 L 137.726562 219.367188 L 141.945312 231.230469 L 141.945312 219.367188 L 142.789062 219.367188 L 142.789062 233.417969 L 141.761719 233.417969 L 137.363281 220.894531 Z M 137.363281 233.417969 "/>
<path style=" stroke:none;fill-rule:nonzero;fill:rgb(14.901961%,19.607843%,21.960784%);fill-opacity:1;" d="M 147.441406 219.367188 C 149.613281 219.367188 150.554688 220.796875 150.554688 222.863281 L 150.554688 229.929688 C 150.554688 231.996094 149.613281 233.417969 147.441406 233.417969 L 144.398438 233.417969 L 144.398438 219.367188 Z M 147.441406 232.558594 C 149.003906 232.558594 149.644531 231.488281 149.644531 229.945312 L 149.644531 222.792969 C 149.644531 221.273438 148.984375 220.1875 147.441406 220.1875 L 145.289062 220.1875 L 145.289062 232.558594 Z M 147.441406 232.558594 "/>
<path style=" stroke:none;fill-rule:nonzero;fill:rgb(99.607843%,73.333333%,45.490196%);fill-opacity:1;" d="M 315.902344 62.425781 C 315.902344 62.425781 315.902344 58.671875 310.648438 53.429688 C 305.398438 48.183594 302.023438 45.175781 302.023438 45.175781 C 302.023438 45.175781 299.402344 53.800781 304.304688 59.050781 C 307.882812 62.734375 311.761719 66.117188 315.902344 69.160156 Z M 315.902344 62.425781 "/>
<path style=" stroke:none;fill-rule:nonzero;fill:rgb(99.607843%,73.333333%,45.490196%);fill-opacity:1;" d="M 308.277344 85.878906 C 308.277344 85.878906 308.277344 82.125 303.035156 76.882812 C 297.789062 71.636719 294.410156 68.628906 294.410156 68.628906 C 294.410156 68.628906 291.785156 77.253906 296.6875 82.503906 C 300.273438 86.195312 304.160156 89.582031 308.308594 92.628906 Z M 308.277344 85.878906 "/>
<path style=" stroke:none;fill-rule:nonzero;fill:rgb(99.607843%,73.333333%,45.490196%);fill-opacity:1;" d="M 315.566406 68.808594 C 315.566406 68.808594 315.96875 65.078125 321.738281 60.414062 C 327.507812 55.746094 331.183594 53.125 331.183594 53.125 C 331.183594 53.125 332.878906 61.976562 327.484375 66.683594 C 323.53125 69.976562 319.308594 72.929688 314.859375 75.519531 Z M 315.566406 68.808594 "/>
<path style=" stroke:none;fill-rule:nonzero;fill:rgb(99.607843%,73.333333%,45.490196%);fill-opacity:1;" d="M 306.363281 96.46875 C 306.363281 96.46875 307.125 92.796875 313.386719 88.761719 C 319.648438 84.726562 323.546875 82.503906 323.546875 82.503906 C 323.546875 82.503906 324.308594 91.488281 318.441406 95.601562 C 314.160156 98.460938 309.648438 100.957031 304.949219 103.0625 Z M 306.363281 96.46875 "/>
<path style=" stroke:none;fill-rule:nonzero;fill:rgb(99.607843%,73.333333%,45.490196%);fill-opacity:1;" d="M 308.097656 126.617188 C 308.097656 126.617188 308.097656 122.863281 313.347656 117.617188 C 318.597656 112.375 321.964844 109.363281 321.964844 109.363281 C 321.964844 109.363281 324.597656 117.988281 319.6875 123.242188 C 316.101562 126.933594 312.214844 130.320312 308.066406 133.363281 Z M 308.097656 126.617188 "/>
<path style=" stroke:none;fill-rule:nonzero;fill:rgb(99.607843%,73.333333%,45.490196%);fill-opacity:1;" d="M 308.011719 133.972656 C 308.011719 133.972656 308.542969 130.265625 304.089844 124.320312 C 299.636719 118.378906 296.726562 114.925781 296.726562 114.925781 C 296.726562 114.925781 292.925781 123.089844 296.984375 128.980469 C 300.007812 133.144531 303.371094 137.046875 307.039062 140.652344 Z M 308.011719 133.972656 "/>
<path style=" stroke:none;fill-rule:nonzero;fill:rgb(99.607843%,73.333333%,45.490196%);fill-opacity:1;" d="M 302.835938 155.800781 C 302.835938 155.800781 302.835938 152.054688 308.082031 146.800781 C 313.324219 141.550781 316.707031 138.546875 316.707031 138.546875 C 316.707031 138.546875 319.328125 147.175781 314.425781 152.425781 C 310.84375 156.121094 306.957031 159.503906 302.808594 162.546875 Z M 302.835938 155.800781 "/>
<path style=" stroke:none;fill-rule:nonzero;fill:rgb(99.607843%,73.333333%,45.490196%);fill-opacity:1;" d="M 306.339844 175.558594 C 306.339844 175.558594 305.390625 171.925781 309.136719 165.519531 C 312.882812 159.113281 315.398438 155.359375 315.398438 155.359375 C 315.398438 155.359375 320.121094 163.035156 316.738281 169.351562 C 314.203125 173.828125 311.300781 178.089844 308.058594 182.089844 Z M 306.339844 175.558594 "/>
<path style="fill:none;stroke-width:1.081625;stroke-linecap:round;stroke-linejoin:round;stroke:rgb(14.901961%,19.607843%,21.960784%);stroke-opacity:1;stroke-miterlimit:4;" d="M 416.277755 80.869655 C 415.933388 86.009457 415.301192 91.123561 414.391447 96.191406 C 411.662212 110.300164 404.841694 119.397615 402.112459 132.139186 C 399.378084 144.880757 407.211143 161.292146 405.108964 177.662418 C 403.011924 194.027549 396.648849 203.11986 398.468339 214.05222 C 400.287829 224.979441 409.837582 254.538446 409.837582 254.538446 " transform="matrix(0.76,0,0,0.76,0,0)"/>
<path style="fill:none;stroke-width:1.081625;stroke-linecap:round;stroke-linejoin:round;stroke:rgb(14.901961%,19.607843%,21.960784%);stroke-opacity:1;stroke-miterlimit:4;" d="M 415.162418 93.821957 L 422.599712 88.111637 " transform="matrix(0.76,0,0,0.76,0,0)"/>
<path style="fill:none;stroke-width:1.081625;stroke-linecap:round;stroke-linejoin:round;stroke:rgb(14.901961%,19.607843%,21.960784%);stroke-opacity:1;stroke-miterlimit:4;" d="M 415.501645 87.23787 L 412.392064 81.702303 " transform="matrix(0.76,0,0,0.76,0,0)"/>
<path style="fill:none;stroke-width:1.081625;stroke-linecap:round;stroke-linejoin:round;stroke:rgb(14.901961%,19.607843%,21.960784%);stroke-opacity:1;stroke-miterlimit:4;" d="M 402.518503 131.548109 C 402.518503 131.548109 408.747944 126.881168 415.162418 122.209087 " transform="matrix(0.76,0,0,0.76,0,0)"/>
<path style="fill:none;stroke-width:1.081625;stroke-linecap:round;stroke-linejoin:round;stroke:rgb(14.901961%,19.607843%,21.960784%);stroke-opacity:1;stroke-miterlimit:4;" d="M 405.628084 121.828742 C 405.628084 121.828742 400.442023 111.651933 394.562089 104.898232 " transform="matrix(0.76,0,0,0.76,0,0)"/>
<path style="fill:none;stroke-width:1.081625;stroke-linecap:round;stroke-linejoin:round;stroke:rgb(14.901961%,19.607843%,21.960784%);stroke-opacity:1;stroke-miterlimit:4;" d="M 405.638363 173.622533 C 409.205387 167.059005 413.707854 161.055715 419.00185 155.792558 " transform="matrix(0.76,0,0,0.76,0,0)"/>
<path style="fill:none;stroke-width:1.081625;stroke-linecap:round;stroke-linejoin:round;stroke:rgb(14.901961%,19.607843%,21.960784%);stroke-opacity:1;stroke-miterlimit:4;" d="M 404.42023 180.540707 C 402.528783 176.089638 400.27241 171.803043 397.671669 167.732319 C 394.037829 162.361225 393.518709 161.672492 393.518709 161.672492 " transform="matrix(0.76,0,0,0.76,0,0)"/>
<path style="fill:none;stroke-width:1.081625;stroke-linecap:round;stroke-linejoin:round;stroke:rgb(14.901961%,19.607843%,21.960784%);stroke-opacity:1;stroke-miterlimit:4;" d="M 398.468339 214.05222 C 400.046258 210.125411 401.922286 206.332237 404.081003 202.698396 C 406.234581 199.331826 408.665707 196.145148 411.348684 193.179482 " transform="matrix(0.76,0,0,0.76,0,0)"/>
<path style="fill:none;stroke-width:1.081625;stroke-linecap:round;stroke-linejoin:round;stroke:rgb(14.901961%,19.607843%,21.960784%);stroke-opacity:1;stroke-miterlimit:4;" d="M 405.329975 239.5919 C 404.970189 235.844984 405.612664 232.072368 407.190584 228.659539 C 409.791324 223.658512 412.731291 217.059005 413.939145 214.468544 " transform="matrix(0.76,0,0,0.76,0,0)"/>
<path style=" stroke:none;fill-rule:nonzero;fill:rgb(99.607843%,73.333333%,45.490196%);fill-opacity:1;" d="M 281.527344 112.480469 C 281.527344 112.480469 281.117188 110.132812 283.84375 106.269531 C 286.574219 102.410156 288.351562 100.191406 288.351562 100.191406 C 288.351562 100.191406 290.9375 105.3125 288.449219 109.136719 C 286.601562 111.839844 284.53125 114.382812 282.257812 116.734375 Z M 281.527344 112.480469 "/>
<path style=" stroke:none;fill-rule:nonzero;fill:rgb(99.607843%,73.333333%,45.490196%);fill-opacity:1;" d="M 288.84375 126.371094 C 288.84375 126.371094 288.433594 124.015625 291.164062 120.15625 C 293.890625 116.296875 295.671875 114.074219 295.671875 114.074219 C 295.671875 114.074219 298.253906 119.199219 295.769531 123.019531 C 293.921875 125.722656 291.851562 128.265625 289.574219 130.621094 Z M 288.84375 126.371094 "/>
<path style=" stroke:none;fill-rule:nonzero;fill:rgb(99.607843%,73.333333%,45.490196%);fill-opacity:1;" d="M 282.421875 116.484375 C 282.421875 116.484375 281.769531 114.207031 277.644531 111.886719 C 273.515625 109.570312 270.933594 108.339844 270.933594 108.339844 C 270.933594 108.339844 270.824219 114.074219 274.730469 116.441406 C 277.570312 118.074219 280.539062 119.472656 283.609375 120.613281 Z M 282.421875 116.484375 "/>
<path style=" stroke:none;fill-rule:nonzero;fill:rgb(99.607843%,73.333333%,45.490196%);fill-opacity:1;" d="M 291.203125 132.824219 C 291.203125 132.824219 290.3125 130.613281 285.964844 128.757812 C 281.617188 126.90625 278.914062 125.941406 278.914062 125.941406 C 278.914062 125.941406 279.414062 131.65625 283.53125 133.59375 C 286.53125 134.917969 289.628906 135.996094 292.804688 136.808594 Z M 291.203125 132.824219 "/>
<path style=" stroke:none;fill-rule:nonzero;fill:rgb(99.607843%,73.333333%,45.490196%);fill-opacity:1;" d="M 293.359375 151.917969 C 293.359375 151.917969 292.949219 149.566406 289.089844 146.847656 C 285.226562 144.125 282.789062 142.605469 282.789062 142.605469 C 282.789062 142.605469 282.074219 148.296875 285.699219 151.066406 C 288.339844 152.988281 291.136719 154.6875 294.058594 156.148438 Z M 293.359375 151.917969 "/>
<path style=" stroke:none;fill-rule:nonzero;fill:rgb(99.607843%,73.333333%,45.490196%);fill-opacity:1;" d="M 294.242188 156.558594 C 294.242188 156.558594 293.480469 154.28125 295.648438 150.085938 C 297.8125 145.890625 299.25 143.398438 299.25 143.398438 C 299.25 143.398438 302.53125 148.101562 300.609375 152.234375 C 299.167969 155.175781 297.484375 157.988281 295.570312 160.648438 Z M 294.242188 156.558594 "/>
<path style=" stroke:none;fill-rule:nonzero;fill:rgb(99.607843%,73.333333%,45.490196%);fill-opacity:1;" d="M 300.832031 175.492188 C 300.832031 175.492188 301.105469 173.121094 304.804688 170.171875 C 308.507812 167.222656 310.886719 165.613281 310.886719 165.613281 C 310.886719 165.613281 311.917969 171.257812 308.453125 174.222656 C 305.921875 176.296875 303.21875 178.15625 300.375 179.777344 Z M 300.832031 175.492188 "/>
<path style=" stroke:none;fill-rule:nonzero;fill:rgb(99.607843%,73.333333%,45.490196%);fill-opacity:1;" d="M 299.859375 169.640625 C 299.859375 169.640625 299.449219 167.292969 295.585938 164.5625 C 291.726562 161.835938 289.285156 160.328125 289.285156 160.328125 C 289.285156 160.328125 288.570312 166.023438 292.195312 168.789062 C 294.839844 170.710938 297.636719 172.410156 300.558594 173.871094 Z M 299.859375 169.640625 "/>
<path style=" stroke:none;fill-rule:nonzero;fill:rgb(99.607843%,73.333333%,45.490196%);fill-opacity:1;" d="M 299.804688 182.398438 C 299.804688 182.398438 300.003906 180.019531 296.960938 176.410156 C 293.921875 172.800781 291.9375 170.710938 291.9375 170.710938 C 291.9375 170.710938 289.804688 176.03125 292.613281 179.632812 C 294.695312 182.167969 296.984375 184.523438 299.457031 186.679688 Z M 299.804688 182.398438 "/>
<path style="fill:none;stroke-width:1.081625;stroke-linecap:round;stroke-linejoin:round;stroke:rgb(14.901961%,19.607843%,21.960784%);stroke-opacity:1;stroke-miterlimit:4;" d="M 369.901316 147.322163 C 370.677426 150.503701 371.628289 153.63898 372.748766 156.717722 C 375.991982 165.270354 381.26028 170.230263 384.359581 177.929688 C 387.458882 185.629112 384.359581 196.772204 387.407484 206.799959 C 390.460526 216.827714 395.492393 221.797903 395.528372 228.890831 C 395.56949 235.978618 392.788857 255.530428 392.788857 255.530428 " transform="matrix(0.76,0,0,0.76,0,0)"/>
<path style="fill:none;stroke-width:1.081625;stroke-linecap:round;stroke-linejoin:round;stroke:rgb(14.901961%,19.607843%,21.960784%);stroke-opacity:1;stroke-miterlimit:4;" d="M 372.008635 155.309416 L 366.730058 152.539062 " transform="matrix(0.76,0,0,0.76,0,0)"/>
<path style="fill:none;stroke-width:1.081625;stroke-linecap:round;stroke-linejoin:round;stroke:rgb(14.901961%,19.607843%,21.960784%);stroke-opacity:1;stroke-miterlimit:4;" d="M 371.078331 151.228413 L 372.430099 147.419819 " transform="matrix(0.76,0,0,0.76,0,0)"/>
<path style="fill:none;stroke-width:1.081625;stroke-linecap:round;stroke-linejoin:round;stroke:rgb(14.901961%,19.607843%,21.960784%);stroke-opacity:1;stroke-miterlimit:4;" d="M 383.999794 177.61102 C 383.999794 177.61102 379.589844 175.349507 375.061678 173.118832 " transform="matrix(0.76,0,0,0.76,0,0)"/>
<path style="fill:none;stroke-width:1.081625;stroke-linecap:round;stroke-linejoin:round;stroke:rgb(14.901961%,19.607843%,21.960784%);stroke-opacity:1;stroke-miterlimit:4;" d="M 380.99815 171.839021 C 382.29852 167.727179 384.020354 163.759252 386.127673 160.002056 " transform="matrix(0.76,0,0,0.76,0,0)"/>
<path style="fill:none;stroke-width:1.081625;stroke-linecap:round;stroke-linejoin:round;stroke:rgb(14.901961%,19.607843%,21.960784%);stroke-opacity:1;stroke-miterlimit:4;" d="M 386.651933 204.317434 C 383.701686 200.596217 380.232319 197.322163 376.351768 194.587788 " transform="matrix(0.76,0,0,0.76,0,0)"/>
<path style="fill:none;stroke-width:1.081625;stroke-linecap:round;stroke-linejoin:round;stroke:rgb(14.901961%,19.607843%,21.960784%);stroke-opacity:1;stroke-miterlimit:4;" d="M 388.157895 208.532072 C 388.862048 205.535567 389.807771 202.60588 391.000206 199.768709 C 392.70148 196.011513 392.948191 195.518092 392.948191 195.518092 " transform="matrix(0.76,0,0,0.76,0,0)"/>
<path style="fill:none;stroke-width:1.081625;stroke-linecap:round;stroke-linejoin:round;stroke:rgb(14.901961%,19.607843%,21.960784%);stroke-opacity:1;stroke-miterlimit:4;" d="M 395.291941 234.241365 C 397.008635 232.108347 398.910362 230.134663 400.981702 228.340872 C 402.292352 227.369449 403.525905 226.29523 404.672081 225.128495 " transform="matrix(0.76,0,0,0.76,0,0)"/>
<path style="fill:none;stroke-width:1.081625;stroke-linecap:round;stroke-linejoin:round;stroke:rgb(14.901961%,19.607843%,21.960784%);stroke-opacity:1;stroke-miterlimit:4;" d="M 395.528372 228.890831 C 394.114926 226.603618 392.526727 224.434622 390.779194 222.38898 C 389.0625 220.512952 387.191612 218.780839 385.192229 217.208059 " transform="matrix(0.76,0,0,0.76,0,0)"/>
<path style="fill:none;stroke-width:1.081625;stroke-linecap:round;stroke-linejoin:round;stroke:rgb(14.901961%,19.607843%,21.960784%);stroke-opacity:1;stroke-miterlimit:4;" d="M 394.00185 245.662007 C 393.821957 243.271998 393.009868 240.974507 391.637541 239.011102 C 389.468544 236.137952 386.908923 232.339638 385.870683 230.838816 " transform="matrix(0.76,0,0,0.76,0,0)"/>
<path style=" stroke:none;fill-rule:nonzero;fill:rgb(14.901961%,19.607843%,21.960784%);fill-opacity:1;" d="M 316.523438 219.792969 L 293.414062 219.792969 C 292.210938 219.789062 291.234375 218.8125 291.230469 217.609375 L 287.796875 191.605469 L 322.132812 191.605469 L 318.707031 217.609375 C 318.703125 218.8125 317.726562 219.789062 316.523438 219.792969 Z M 316.523438 219.792969 "/>
<path style=" stroke:none;fill-rule:nonzero;fill:rgb(14.901961%,19.607843%,21.960784%);fill-opacity:1;" d="M 321.835938 196.078125 L 287.796875 196.078125 C 286.316406 196.078125 285.113281 194.878906 285.113281 193.398438 C 285.113281 192.683594 285.394531 192 285.898438 191.496094 C 286.402344 190.992188 287.082031 190.707031 287.796875 190.707031 L 321.835938 190.707031 C 323.324219 190.707031 324.527344 191.910156 324.527344 193.398438 C 324.523438 194.878906 323.320312 196.078125 321.835938 196.078125 Z M 321.835938 196.078125 "/>
<path style=" stroke:none;fill-rule:nonzero;fill:rgb(14.901961%,19.607843%,21.960784%);fill-opacity:1;" d="M 289.042969 250.261719 C 287.808594 250.261719 286.65625 249.628906 286 248.578125 C 285.34375 247.53125 285.277344 246.21875 285.820312 245.109375 C 287.257812 242.226562 286.203125 238.726562 283.410156 237.121094 C 278.046875 233.683594 265.566406 233.136719 261.195312 233.207031 L 261.136719 233.207031 C 259.15625 233.226562 257.535156 231.632812 257.515625 229.652344 C 257.496094 227.671875 259.085938 226.050781 261.066406 226.03125 C 262.898438 225.992188 279.125 225.863281 287.273438 231.078125 C 295.304688 236.222656 294.058594 244.539062 292.273438 248.222656 C 291.675781 249.464844 290.421875 250.257812 289.042969 250.261719 Z M 289.042969 250.261719 "/>
<path style="fill-rule:nonzero;fill:rgb(100%,100%,100%);fill-opacity:1;stroke-width:1.081625;stroke-linecap:round;stroke-linejoin:round;stroke:rgb(14.901961%,19.607843%,21.960784%);stroke-opacity:1;stroke-miterlimit:4;" d="M 402.08162 354.188939 L 401.03824 357.719984 L 385.289885 331.820518 L 384.878701 326.228413 Z M 402.08162 354.188939 " transform="matrix(0.76,0,0,0.76,0,0)"/>
<path style="fill-rule:nonzero;fill:rgb(100%,100%,100%);fill-opacity:1;stroke-width:1.081625;stroke-linecap:round;stroke-linejoin:round;stroke:rgb(14.901961%,19.607843%,21.960784%);stroke-opacity:1;stroke-miterlimit:4;" d="M 401.03824 357.719984 L 405.962171 355.288857 L 406.841077 351.922286 L 402.08162 354.188939 Z M 401.03824 357.719984 " transform="matrix(0.76,0,0,0.76,0,0)"/>
<path style="fill-rule:nonzero;fill:rgb(100%,100%,100%);fill-opacity:1;stroke-width:1.081625;stroke-linecap:round;stroke-linejoin:round;stroke:rgb(14.901961%,19.607843%,21.960784%);stroke-opacity:1;stroke-miterlimit:4;" d="M 382.8125 323.329564 L 401.03824 322.702508 L 406.841077 351.922286 L 402.08162 354.188939 Z M 382.8125 323.329564 " transform="matrix(0.76,0,0,0.76,0,0)"/>
<path style="fill-rule:nonzero;fill:rgb(100%,100%,100%);fill-opacity:1;stroke-width:1.081625;stroke-linecap:round;stroke-linejoin:round;stroke:rgb(14.901961%,19.607843%,21.960784%);stroke-opacity:1;stroke-miterlimit:4;" d="M 380.319696 324.568257 L 398.550576 355.232319 L 392.552426 358.131168 L 365.609581 336.168791 Z M 380.319696 324.568257 " transform="matrix(0.76,0,0,0.76,0,0)"/>
<path style="fill-rule:nonzero;fill:rgb(100%,100%,100%);fill-opacity:1;stroke-width:1.081625;stroke-linecap:round;stroke-linejoin:round;stroke:rgb(14.901961%,19.607843%,21.960784%);stroke-opacity:1;stroke-miterlimit:4;" d="M 392.552426 358.131168 L 391.719778 361.240748 L 364.58162 339.689556 L 365.609581 336.168791 Z M 392.552426 358.131168 " transform="matrix(0.76,0,0,0.76,0,0)"/>
<path style="fill-rule:nonzero;fill:rgb(100%,100%,100%);fill-opacity:1;stroke-width:1.081625;stroke-linecap:round;stroke-linejoin:round;stroke:rgb(14.901961%,19.607843%,21.960784%);stroke-opacity:1;stroke-miterlimit:4;" d="M 392.552426 358.131168 L 398.550576 355.232319 L 397.728207 358.3419 L 391.719778 361.240748 Z M 392.552426 358.131168 " transform="matrix(0.76,0,0,0.76,0,0)"/>
<path style="fill-rule:nonzero;fill:rgb(99.607843%,73.333333%,45.490196%);fill-opacity:1;stroke-width:1.081625;stroke-linecap:round;stroke-linejoin:round;stroke:rgb(14.901961%,19.607843%,21.960784%);stroke-opacity:1;stroke-miterlimit:4;" d="M 393.141636 329.089915 C 393.141636 334.192598 389.002067 338.332167 383.899384 338.332167 C 378.796701 338.332167 374.657132 334.192598 374.657132 329.089915 C 374.657132 323.987232 378.796701 319.847663 383.899384 319.847663 C 389.002067 319.847663 393.141636 323.987232 393.141636 329.089915 Z M 393.141636 329.089915 " transform="matrix(0.537401,-0.537401,0.537401,0.537401,-91.3976,279.566)"/>
<path style="fill-rule:nonzero;fill:rgb(100%,100%,100%);fill-opacity:1;stroke-width:1.081625;stroke-linecap:round;stroke-linejoin:round;stroke:rgb(14.901961%,19.607843%,21.960784%);stroke-opacity:1;stroke-miterlimit:4;" d="M 189.170436 354.188939 L 190.208676 357.719984 L 205.951891 331.820518 L 206.368215 326.228413 Z M 189.170436 354.188939 " transform="matrix(0.76,0,0,0.76,0,0)"/>
<path style="fill-rule:nonzero;fill:rgb(100%,100%,100%);fill-opacity:1;stroke-width:1.081625;stroke-linecap:round;stroke-linejoin:round;stroke:rgb(14.901961%,19.607843%,21.960784%);stroke-opacity:1;stroke-miterlimit:4;" d="M 190.208676 357.719984 L 185.289885 355.288857 L 184.410979 351.922286 L 189.170436 354.188939 Z M 190.208676 357.719984 " transform="matrix(0.76,0,0,0.76,0,0)"/>
<path style="fill-rule:nonzero;fill:rgb(100%,100%,100%);fill-opacity:1;stroke-width:1.081625;stroke-linecap:round;stroke-linejoin:round;stroke:rgb(14.901961%,19.607843%,21.960784%);stroke-opacity:1;stroke-miterlimit:4;" d="M 208.439556 323.329564 L 190.208676 322.702508 L 184.410979 351.922286 L 189.170436 354.188939 Z M 208.439556 323.329564 " transform="matrix(0.76,0,0,0.76,0,0)"/>
<path style="fill-rule:nonzero;fill:rgb(100%,100%,100%);fill-opacity:1;stroke-width:1.081625;stroke-linecap:round;stroke-linejoin:round;stroke:rgb(14.901961%,19.607843%,21.960784%);stroke-opacity:1;stroke-miterlimit:4;" d="M 210.93236 324.568257 L 192.691201 355.232319 L 198.69963 358.131168 L 225.632196 336.168791 Z M 210.93236 324.568257 " transform="matrix(0.76,0,0,0.76,0,0)"/>
<path style="fill-rule:nonzero;fill:rgb(100%,100%,100%);fill-opacity:1;stroke-width:1.081625;stroke-linecap:round;stroke-linejoin:round;stroke:rgb(14.901961%,19.607843%,21.960784%);stroke-opacity:1;stroke-miterlimit:4;" d="M 198.69963 358.131168 L 199.532278 361.240748 L 226.670436 339.689556 L 225.632196 336.168791 Z M 198.69963 358.131168 " transform="matrix(0.76,0,0,0.76,0,0)"/>
<path style="fill-rule:nonzero;fill:rgb(100%,100%,100%);fill-opacity:1;stroke-width:1.081625;stroke-linecap:round;stroke-linejoin:round;stroke:rgb(14.901961%,19.607843%,21.960784%);stroke-opacity:1;stroke-miterlimit:4;" d="M 198.69963 358.131168 L 192.691201 355.232319 L 193.518709 358.3419 L 199.532278 361.240748 Z M 198.69963 358.131168 " transform="matrix(0.76,0,0,0.76,0,0)"/>
<path style=" stroke:none;fill-rule:nonzero;fill:rgb(14.901961%,19.607843%,21.960784%);fill-opacity:1;" d="M 158.035156 252.648438 C 156.515625 252.652344 155.15625 251.699219 154.640625 250.269531 C 154.128906 248.835938 154.574219 247.238281 155.753906 246.277344 C 184.269531 223.074219 178.464844 188.472656 178.402344 188.121094 C 178.105469 186.199219 179.402344 184.390625 181.316406 184.046875 C 183.234375 183.707031 185.074219 184.953125 185.460938 186.859375 C 185.742188 188.449219 192.042969 226 160.285156 251.839844 C 159.648438 252.359375 158.855469 252.644531 158.035156 252.648438 Z M 158.035156 252.648438 "/>
<path style="fill-rule:nonzero;fill:rgb(67.843137%,67.843137%,67.843137%);fill-opacity:1;stroke-width:1.081625;stroke-linecap:round;stroke-linejoin:round;stroke:rgb(14.901961%,19.607843%,21.960784%);stroke-opacity:1;stroke-miterlimit:4;" d="M 262.980245 234.508044 C 262.978008 244.718039 254.707308 252.988002 244.498132 252.990839 C 234.293211 252.987782 226.018174 244.717901 226.020412 234.507907 C 226.018394 224.303805 234.293349 216.027949 244.498269 216.031005 C 254.707445 216.028169 262.978227 224.303943 262.980245 234.508044 Z M 262.980245 234.508044 " transform="matrix(0.121117,-0.750287,0.750287,0.121117,-19.7372,333.2828)"/>
<path style="fill-rule:nonzero;fill:rgb(99.607843%,73.333333%,45.490196%);fill-opacity:1;stroke-width:1.081625;stroke-linecap:round;stroke-linejoin:round;stroke:rgb(14.901961%,19.607843%,21.960784%);stroke-opacity:1;stroke-miterlimit:4;" d="M 216.578939 329.091782 C 216.578939 334.194464 212.443004 338.330399 207.340322 338.330399 C 202.237639 338.330399 198.101704 334.194464 198.101704 329.091782 C 198.09807 323.985465 202.234005 319.84953 207.340322 319.853164 C 212.443004 319.853164 216.578939 323.989099 216.578939 329.091782 Z M 216.578939 329.091782 " transform="matrix(0.537401,-0.537401,0.537401,0.537401,-130.6972,184.68)"/>
<path style="fill-rule:nonzero;fill:rgb(67.843137%,67.843137%,67.843137%);fill-opacity:1;stroke-width:1.081625;stroke-linecap:round;stroke-linejoin:round;stroke:rgb(14.901961%,19.607843%,21.960784%);stroke-opacity:1;stroke-miterlimit:4;" d="M 323.319285 283.269942 C 323.319285 268.158923 310.187089 255.910773 293.991571 255.910773 C 277.790913 255.910773 264.658717 268.158923 264.658717 283.269942 C 264.658717 298.380962 277.790913 310.629112 293.991571 310.629112 C 310.187089 310.629112 323.319285 298.380962 323.319285 283.269942 Z M 323.319285 283.269942 " transform="matrix(0.76,0,0,0.76,0,0)"/>
<path style="fill-rule:nonzero;fill:rgb(14.901961%,19.607843%,21.960784%);fill-opacity:1;stroke-width:1.081625;stroke-linecap:round;stroke-linejoin:round;stroke:rgb(14.901961%,19.607843%,21.960784%);stroke-opacity:1;stroke-miterlimit:4;" d="M 278.710938 271.582031 L 281.450452 282.267681 C 283.120888 287.731291 288.471423 291.200658 294.140625 290.501645 C 299.799548 289.792352 304.132401 285.120271 304.409951 279.42023 L 304.94963 268.642064 Z M 278.710938 271.582031 " transform="matrix(0.76,0,0,0.76,0,0)"/>
<path style=" stroke:none;fill-rule:nonzero;fill:rgb(14.901961%,19.607843%,21.960784%);fill-opacity:1;" d="M 255.761719 165.519531 C 253.660156 165.550781 251.5625 165.265625 249.546875 164.667969 L 250.125 162.972656 C 250.222656 162.972656 260.203125 166.21875 270.363281 158.785156 L 271.417969 160.238281 C 266.90625 163.636719 261.414062 165.492188 255.761719 165.519531 Z M 255.761719 165.519531 "/>
<path style=" stroke:none;fill-rule:nonzero;fill:rgb(14.901961%,19.607843%,21.960784%);fill-opacity:1;" d="M 266.964844 179.003906 C 258.742188 166.988281 249.386719 167.890625 249.296875 167.898438 L 249.097656 166.121094 C 249.523438 166.074219 259.625 165.09375 268.441406 177.992188 Z M 266.964844 179.003906 "/>
<path style=" stroke:none;fill-rule:nonzero;fill:rgb(14.901961%,19.607843%,21.960784%);fill-opacity:1;" d="M 264.882812 187.492188 C 254.242188 184.214844 247.851562 170.050781 247.578125 169.449219 L 249.21875 168.691406 C 249.28125 168.835938 255.558594 182.710938 265.414062 185.742188 Z M 264.882812 187.492188 "/>
<path style="fill:none;stroke-width:1.081625;stroke-linecap:butt;stroke-linejoin:miter;stroke:rgb(14.901961%,19.607843%,21.960784%);stroke-opacity:1;stroke-miterlimit:10;" d="M 355.807977 210.521176 L 359.590872 207.997533 " transform="matrix(0.76,0,0,0.76,0,0)"/>
<path style="fill:none;stroke-width:1.081625;stroke-linecap:butt;stroke-linejoin:miter;stroke:rgb(14.901961%,19.607843%,21.960784%);stroke-opacity:1;stroke-miterlimit:10;" d="M 351.192434 232.771382 L 353.710938 237.798109 " transform="matrix(0.76,0,0,0.76,0,0)"/>
<path style="fill:none;stroke-width:1.081625;stroke-linecap:butt;stroke-linejoin:miter;stroke:rgb(14.901961%,19.607843%,21.960784%);stroke-opacity:1;stroke-miterlimit:10;" d="M 346.782484 244.731702 C 348.771587 245.235403 350.817229 245.518092 352.86801 245.56949 " transform="matrix(0.76,0,0,0.76,0,0)"/>
<path style="fill-rule:nonzero;fill:rgb(100%,100%,100%);fill-opacity:1;stroke-width:1.081625;stroke-linecap:round;stroke-linejoin:round;stroke:rgb(14.901961%,19.607843%,21.960784%);stroke-opacity:1;stroke-miterlimit:4;" d="M 240.63014 214.31949 L 244.120066 238.728413 L 330.972451 229.851974 L 330.648643 204.492188 Z M 240.63014 214.31949 " transform="matrix(0.76,0,0,0.76,0,0)"/>
<path style="fill-rule:nonzero;fill:rgb(89.803922%,89.803922%,89.803922%);fill-opacity:1;stroke-width:1.081625;stroke-linecap:round;stroke-linejoin:round;stroke:rgb(14.901961%,19.607843%,21.960784%);stroke-opacity:1;stroke-miterlimit:4;" d="M 244.120066 238.728413 L 259.652549 278.032484 L 326.531661 271.371299 L 330.972451 229.851974 Z M 244.120066 238.728413 " transform="matrix(0.76,0,0,0.76,0,0)"/>
<path style=" stroke:none;fill-rule:nonzero;fill:rgb(14.901961%,19.607843%,21.960784%);fill-opacity:1;" d="M 201.453125 189.238281 L 206.089844 202.921875 C 206.769531 204.953125 208.792969 206.226562 210.921875 205.960938 L 231.28125 203.742188 C 233.402344 203.484375 235.050781 201.777344 235.234375 199.652344 L 236.496094 185.265625 C 236.582031 184.3125 236.234375 183.371094 235.550781 182.699219 C 234.863281 182.03125 233.914062 181.707031 232.960938 181.816406 L 204.136719 185.039062 C 203.171875 185.144531 202.308594 185.679688 201.789062 186.496094 C 201.265625 187.3125 201.144531 188.320312 201.453125 189.238281 Z M 201.453125 189.238281 "/>
<g clip-path="url(#clip1)" clip-rule="nonzero">
<g clip-path="url(#clip2)" clip-rule="nonzero">
<path style="fill:none;stroke-width:1.081625;stroke-linecap:round;stroke-linejoin:round;stroke:rgb(100%,100%,100%);stroke-opacity:1;stroke-miterlimit:4;" d="M 265.069901 258.891859 L 276.130757 257.910156 L 279.641242 248.380962 L 287.900905 263.229852 L 292.100123 252.158717 L 294.202303 255.669202 L 314.242393 253.279194 " transform="matrix(0.76,0,0,0.76,0,0)"/>
</g>
</g>
<path style="fill:none;stroke-width:1.081625;stroke-linecap:round;stroke-linejoin:round;stroke:rgb(14.901961%,19.607843%,21.960784%);stroke-opacity:1;stroke-miterlimit:4;" d="M 265.069901 248.997738 L 271.170847 267.002467 C 272.065173 269.675164 274.72759 271.35074 277.528783 271.001234 L 304.317434 268.081826 C 307.108347 267.742599 309.277344 265.496505 309.518914 262.700452 L 311.179071 243.770559 C 311.292146 242.516447 310.834704 241.277755 309.935238 240.393709 C 309.030633 239.514803 307.781661 239.088199 306.527549 239.232113 L 268.600946 243.472451 C 267.331414 243.611225 266.195518 244.315378 265.511924 245.389597 C 264.823191 246.463816 264.663857 247.789885 265.069901 248.997738 Z M 265.069901 248.997738 " transform="matrix(0.76,0,0,0.76,0,0)"/>
<path style="fill-rule:nonzero;fill:rgb(100%,100%,100%);fill-opacity:1;stroke-width:1.081625;stroke-linecap:round;stroke-linejoin:round;stroke:rgb(14.901961%,19.607843%,21.960784%);stroke-opacity:1;stroke-miterlimit:4;" d="M 325.750411 241.318873 C 325.750411 244.00185 323.576275 246.181127 320.888158 246.181127 C 318.205181 246.181127 316.031044 244.00185 316.031044 241.318873 C 316.031044 238.635896 318.205181 236.46176 320.888158 236.46176 C 323.576275 236.46176 325.750411 238.635896 325.750411 241.318873 Z M 325.750411 241.318873 " transform="matrix(0.76,0,0,0.76,0,0)"/>
<path style="fill-rule:nonzero;fill:rgb(99.607843%,73.333333%,45.490196%);fill-opacity:1;stroke-width:1.081625;stroke-linecap:round;stroke-linejoin:round;stroke:rgb(14.901961%,19.607843%,21.960784%);stroke-opacity:1;stroke-miterlimit:4;" d="M 324.850946 256.52241 C 324.850946 259.040913 322.810444 261.081414 320.291941 261.081414 C 317.773438 261.081414 315.727796 259.040913 315.727796 256.52241 C 315.727796 254.003906 317.773438 251.958265 320.291941 251.958265 C 322.810444 251.958265 324.850946 254.003906 324.850946 256.52241 Z M 324.850946 256.52241 " transform="matrix(0.76,0,0,0.76,0,0)"/>
<path style="fill-rule:nonzero;fill:rgb(99.607843%,73.333333%,45.490196%);fill-opacity:1;stroke-width:1.081625;stroke-linecap:round;stroke-linejoin:round;stroke:rgb(14.901961%,19.607843%,21.960784%);stroke-opacity:1;stroke-miterlimit:4;" d="M 261.71875 246.597451 C 262.49486 249.167352 261.040296 251.881168 258.470395 252.657278 C 255.900493 253.428248 253.191817 251.973684 252.415707 249.408923 C 251.639597 246.839021 253.089021 244.125206 255.658923 243.349095 C 256.892475 242.97389 258.228824 243.107525 259.36472 243.714021 C 260.500617 244.325658 261.348684 245.363898 261.71875 246.597451 Z M 261.71875 246.597451 " transform="matrix(0.76,0,0,0.76,0,0)"/>
<path style="fill-rule:nonzero;fill:rgb(100%,100%,100%);fill-opacity:1;stroke-width:1.081625;stroke-linecap:round;stroke-linejoin:round;stroke:rgb(14.901961%,19.607843%,21.960784%);stroke-opacity:1;stroke-miterlimit:4;" d="M 265.432151 262.729664 C 265.431748 265.248744 263.38844 267.29272 260.86936 267.292317 C 258.35028 267.291914 256.310615 265.245806 256.306707 262.729525 C 256.30711 260.210445 258.353218 258.17078 260.872298 258.171183 C 263.388579 258.167275 265.428244 260.213383 265.432151 262.729664 Z M 265.432151 262.729664 " transform="matrix(0.413926,-0.63739,0.63739,0.413926,-77.178,257.2144)"/>
<path style="fill-rule:nonzero;fill:rgb(99.607843%,73.333333%,45.490196%);fill-opacity:1;stroke-width:1.081625;stroke-linecap:round;stroke-linejoin:round;stroke:rgb(14.901961%,19.607843%,21.960784%);stroke-opacity:1;stroke-miterlimit:4;" d="M 289.288651 302.718956 C 289.288651 295.83676 283.506373 290.260074 276.372327 290.260074 C 269.233141 290.260074 263.450863 295.83676 263.450863 302.718956 C 263.450863 309.601151 269.233141 315.177837 276.372327 315.177837 C 283.506373 315.177837 289.288651 309.601151 289.288651 302.718956 Z M 289.288651 302.718956 " transform="matrix(0.76,0,0,0.76,0,0)"/>
<path style="fill-rule:nonzero;fill:rgb(14.901961%,19.607843%,21.960784%);fill-opacity:1;stroke-width:1.081625;stroke-linecap:round;stroke-linejoin:round;stroke:rgb(14.901961%,19.607843%,21.960784%);stroke-opacity:1;stroke-miterlimit:4;" d="M 257.370477 330.679482 L 269.202303 304.122122 C 270.250822 301.757812 272.902961 300.560238 275.370066 301.331209 C 277.919408 302.112459 279.43565 304.728618 278.839433 307.329359 L 271.047492 342.249178 Z M 257.370477 330.679482 " transform="matrix(0.76,0,0,0.76,0,0)"/>
<path style="fill-rule:nonzero;fill:rgb(67.843137%,67.843137%,67.843137%);fill-opacity:1;stroke-width:1.081625;stroke-linecap:round;stroke-linejoin:round;stroke:rgb(14.901961%,19.607843%,21.960784%);stroke-opacity:1;stroke-miterlimit:4;" d="M 253.417969 289.997944 L 279.250617 350.79153 L 248.252467 355.052426 C 248.252467 355.052426 229.708059 336.19963 217.249178 300.339227 Z M 253.417969 289.997944 " transform="matrix(0.76,0,0,0.76,0,0)"/>
<path style="fill-rule:nonzero;fill:rgb(100%,100%,100%);fill-opacity:1;stroke-width:1.081625;stroke-linecap:round;stroke-linejoin:round;stroke:rgb(14.901961%,19.607843%,21.960784%);stroke-opacity:1;stroke-miterlimit:4;" d="M 253.417969 289.951686 L 254.630962 284.179688 L 280.46875 346.181127 L 279.250617 350.740132 Z M 253.417969 289.951686 " transform="matrix(0.76,0,0,0.76,0,0)"/>
<path style="fill-rule:nonzero;fill:rgb(100%,100%,100%);fill-opacity:1;stroke-width:1.081625;stroke-linecap:round;stroke-linejoin:round;stroke:rgb(14.901961%,19.607843%,21.960784%);stroke-opacity:1;stroke-miterlimit:4;" d="M 254.630962 284.179688 L 219.382196 294.808799 L 217.249178 300.287829 L 253.417969 289.951686 Z M 254.630962 284.179688 " transform="matrix(0.76,0,0,0.76,0,0)"/>
<path style="fill:none;stroke-width:1.081625;stroke-linecap:round;stroke-linejoin:round;stroke:rgb(14.901961%,19.607843%,21.960784%);stroke-opacity:1;stroke-miterlimit:4;" d="M 219.680304 306.059827 L 255.237459 295.122327 " transform="matrix(0.76,0,0,0.76,0,0)"/>
<path style="fill:none;stroke-width:1.081625;stroke-linecap:round;stroke-linejoin:round;stroke:rgb(14.901961%,19.607843%,21.960784%);stroke-opacity:1;stroke-miterlimit:4;" d="M 222.409539 312.438322 L 258.280222 302.718956 " transform="matrix(0.76,0,0,0.76,0,0)"/>
<path style="fill:none;stroke-width:1.081625;stroke-linecap:round;stroke-linejoin:round;stroke:rgb(14.901961%,19.607843%,21.960784%);stroke-opacity:1;stroke-miterlimit:4;" d="M 225.149054 319.130345 L 261.317845 309.410979 " transform="matrix(0.76,0,0,0.76,0,0)"/>
<path style="fill:none;stroke-width:1.081625;stroke-linecap:round;stroke-linejoin:round;stroke:rgb(14.901961%,19.607843%,21.960784%);stroke-opacity:1;stroke-miterlimit:4;" d="M 229.101563 327.33861 L 264.360609 317.002467 " transform="matrix(0.76,0,0,0.76,0,0)"/>
<path style="fill:none;stroke-width:1.081625;stroke-linecap:round;stroke-linejoin:round;stroke:rgb(14.901961%,19.607843%,21.960784%);stroke-opacity:1;stroke-miterlimit:4;" d="M 232.838199 333.86102 L 268.009868 324.599095 " transform="matrix(0.76,0,0,0.76,0,0)"/>
<path style="fill:none;stroke-width:1.081625;stroke-linecap:round;stroke-linejoin:round;stroke:rgb(14.901961%,19.607843%,21.960784%);stroke-opacity:1;stroke-miterlimit:4;" d="M 236.698191 339.818051 L 271.047492 331.589227 " transform="matrix(0.76,0,0,0.76,0,0)"/>
<path style="fill:none;stroke-width:1.081625;stroke-linecap:round;stroke-linejoin:round;stroke:rgb(14.901961%,19.607843%,21.960784%);stroke-opacity:1;stroke-miterlimit:4;" d="M 241.14926 345.548931 L 273.17023 337.978002 " transform="matrix(0.76,0,0,0.76,0,0)"/>
<path style="fill-rule:nonzero;fill:rgb(100%,100%,100%);fill-opacity:1;stroke-width:1.081625;stroke-linecap:round;stroke-linejoin:round;stroke:rgb(14.901961%,19.607843%,21.960784%);stroke-opacity:1;stroke-miterlimit:4;" d="M 244.299959 350.231291 L 276.110197 344.968133 " transform="matrix(0.76,0,0,0.76,0,0)"/>
<path style="fill-rule:nonzero;fill:rgb(99.607843%,73.333333%,45.490196%);fill-opacity:1;stroke-width:1.081625;stroke-linecap:round;stroke-linejoin:round;stroke:rgb(14.901961%,19.607843%,21.960784%);stroke-opacity:1;stroke-miterlimit:4;" d="M 323.69963 302.718956 C 323.69963 295.83676 317.917352 290.260074 310.778166 290.260074 C 303.64412 290.260074 297.861842 295.83676 297.861842 302.718956 C 297.861842 309.601151 303.64412 315.177837 310.778166 315.177837 C 317.917352 315.177837 323.69963 309.601151 323.69963 302.718956 Z M 323.69963 302.718956 " transform="matrix(0.76,0,0,0.76,0,0)"/>
<path style="fill-rule:nonzero;fill:rgb(14.901961%,19.607843%,21.960784%);fill-opacity:1;stroke-width:1.081625;stroke-linecap:round;stroke-linejoin:round;stroke:rgb(14.901961%,19.607843%,21.960784%);stroke-opacity:1;stroke-miterlimit:4;" d="M 329.769737 330.679482 L 317.937911 304.122122 C 316.889391 301.757812 314.237253 300.560238 311.770148 301.331209 C 309.220806 302.112459 307.709704 304.733758 308.311061 307.329359 L 316.097862 342.249178 Z M 329.769737 330.679482 " transform="matrix(0.76,0,0,0.76,0,0)"/>
<path style="fill-rule:nonzero;fill:rgb(67.843137%,67.843137%,67.843137%);fill-opacity:1;stroke-width:1.081625;stroke-linecap:round;stroke-linejoin:round;stroke:rgb(14.901961%,19.607843%,21.960784%);stroke-opacity:1;stroke-miterlimit:4;" d="M 333.732525 289.997944 L 307.889597 350.79153 L 338.887747 355.052426 C 338.887747 355.052426 357.432155 336.19963 369.891036 300.339227 Z M 333.732525 289.997944 " transform="matrix(0.76,0,0,0.76,0,0)"/>
<path style="fill-rule:nonzero;fill:rgb(100%,100%,100%);fill-opacity:1;stroke-width:1.081625;stroke-linecap:round;stroke-linejoin:round;stroke:rgb(14.901961%,19.607843%,21.960784%);stroke-opacity:1;stroke-miterlimit:4;" d="M 333.732525 289.951686 L 332.509252 284.179688 L 306.671464 346.181127 L 307.889597 350.740132 Z M 333.732525 289.951686 " transform="matrix(0.76,0,0,0.76,0,0)"/>
<path style="fill-rule:nonzero;fill:rgb(100%,100%,100%);fill-opacity:1;stroke-width:1.081625;stroke-linecap:round;stroke-linejoin:round;stroke:rgb(14.901961%,19.607843%,21.960784%);stroke-opacity:1;stroke-miterlimit:4;" d="M 332.509252 284.179688 L 367.768298 294.808799 L 369.901316 300.287829 L 333.732525 289.951686 Z M 332.509252 284.179688 " transform="matrix(0.76,0,0,0.76,0,0)"/>
<path style="fill:none;stroke-width:1.081625;stroke-linecap:round;stroke-linejoin:round;stroke:rgb(14.901961%,19.607843%,21.960784%);stroke-opacity:1;stroke-miterlimit:4;" d="M 367.45991 306.059827 L 331.897615 295.122327 " transform="matrix(0.76,0,0,0.76,0,0)"/>
<path style="fill:none;stroke-width:1.081625;stroke-linecap:round;stroke-linejoin:round;stroke:rgb(14.901961%,19.607843%,21.960784%);stroke-opacity:1;stroke-miterlimit:4;" d="M 364.730674 312.438322 L 328.859992 302.718956 " transform="matrix(0.76,0,0,0.76,0,0)"/>
<path style="fill:none;stroke-width:1.081625;stroke-linecap:round;stroke-linejoin:round;stroke:rgb(14.901961%,19.607843%,21.960784%);stroke-opacity:1;stroke-miterlimit:4;" d="M 361.99116 319.130345 L 325.822368 309.410979 " transform="matrix(0.76,0,0,0.76,0,0)"/>
<path style="fill:none;stroke-width:1.081625;stroke-linecap:round;stroke-linejoin:round;stroke:rgb(14.901961%,19.607843%,21.960784%);stroke-opacity:1;stroke-miterlimit:4;" d="M 358.038651 327.33861 L 322.779605 317.002467 " transform="matrix(0.76,0,0,0.76,0,0)"/>
<path style="fill:none;stroke-width:1.081625;stroke-linecap:round;stroke-linejoin:round;stroke:rgb(14.901961%,19.607843%,21.960784%);stroke-opacity:1;stroke-miterlimit:4;" d="M 354.302015 333.86102 L 319.140625 324.599095 " transform="matrix(0.76,0,0,0.76,0,0)"/>
<path style="fill:none;stroke-width:1.081625;stroke-linecap:round;stroke-linejoin:round;stroke:rgb(14.901961%,19.607843%,21.960784%);stroke-opacity:1;stroke-miterlimit:4;" d="M 350.442023 339.818051 L 316.097862 331.589227 " transform="matrix(0.76,0,0,0.76,0,0)"/>
<path style="fill:none;stroke-width:1.081625;stroke-linecap:round;stroke-linejoin:round;stroke:rgb(14.901961%,19.607843%,21.960784%);stroke-opacity:1;stroke-miterlimit:4;" d="M 346.001234 345.548931 L 313.969984 337.978002 " transform="matrix(0.76,0,0,0.76,0,0)"/>
<path style="fill:none;stroke-width:1.081625;stroke-linecap:round;stroke-linejoin:round;stroke:rgb(14.901961%,19.607843%,21.960784%);stroke-opacity:1;stroke-miterlimit:4;" d="M 342.840255 350.231291 L 311.030016 344.968133 " transform="matrix(0.76,0,0,0.76,0,0)"/>
<path style="fill:none;stroke-width:1.081625;stroke-linecap:butt;stroke-linejoin:miter;stroke:rgb(14.901961%,19.607843%,21.960784%);stroke-opacity:1;stroke-miterlimit:10;" d="M 357.277961 238.00884 L 360.639391 239.478824 " transform="matrix(0.76,0,0,0.76,0,0)"/>
<path style="fill:none;stroke-width:1.081625;stroke-linecap:butt;stroke-linejoin:miter;stroke:rgb(14.901961%,19.607843%,21.960784%);stroke-opacity:1;stroke-miterlimit:10;" d="M 355.180921 239.268092 L 358.542352 244.52097 " transform="matrix(0.76,0,0,0.76,0,0)"/>
<path style="fill:none;stroke-width:1.081625;stroke-linecap:butt;stroke-linejoin:miter;stroke:rgb(14.901961%,19.607843%,21.960784%);stroke-opacity:1;stroke-miterlimit:10;" d="M 353.289474 239.478824 L 352.662418 242.840255 " transform="matrix(0.76,0,0,0.76,0,0)"/>
<path style="fill:none;stroke-width:1.081625;stroke-linecap:butt;stroke-linejoin:miter;stroke:rgb(14.901961%,19.607843%,21.960784%);stroke-opacity:1;stroke-miterlimit:10;" d="M 361.482319 217.650082 L 369.659745 217.650082 " transform="matrix(0.76,0,0,0.76,0,0)"/>
<path style="fill:none;stroke-width:1.081625;stroke-linecap:butt;stroke-linejoin:miter;stroke:rgb(14.901961%,19.607843%,21.960784%);stroke-opacity:1;stroke-miterlimit:10;" d="M 355.180921 218.071546 L 366.93051 221.427837 " transform="matrix(0.76,0,0,0.76,0,0)"/>
<path style="fill:none;stroke-width:1.081625;stroke-linecap:butt;stroke-linejoin:miter;stroke:rgb(14.901961%,19.607843%,21.960784%);stroke-opacity:1;stroke-miterlimit:10;" d="M 359.590872 213.671875 L 367.141242 212.618215 " transform="matrix(0.76,0,0,0.76,0,0)"/>
<path style="fill:none;stroke-width:1.081625;stroke-linecap:butt;stroke-linejoin:miter;stroke:rgb(14.901961%,19.607843%,21.960784%);stroke-opacity:1;stroke-miterlimit:10;" d="M 332.509252 239.689556 L 334.611431 245.780222 " transform="matrix(0.76,0,0,0.76,0,0)"/>
<path style="fill:none;stroke-width:1.081625;stroke-linecap:butt;stroke-linejoin:miter;stroke:rgb(14.901961%,19.607843%,21.960784%);stroke-opacity:1;stroke-miterlimit:10;" d="M 335.238487 239.268092 L 341.108141 248.930921 " transform="matrix(0.76,0,0,0.76,0,0)"/>
<path style="fill:none;stroke-width:1.081625;stroke-linecap:butt;stroke-linejoin:miter;stroke:rgb(14.901961%,19.607843%,21.960784%);stroke-opacity:1;stroke-miterlimit:10;" d="M 337.340666 233.609169 L 342.999589 235.500617 " transform="matrix(0.76,0,0,0.76,0,0)"/>
<path style="fill-rule:nonzero;fill:rgb(99.607843%,73.333333%,45.490196%);fill-opacity:1;stroke-width:0.540812;stroke-linecap:round;stroke-linejoin:round;stroke:rgb(14.901961%,19.607843%,21.960784%);stroke-opacity:1;stroke-miterlimit:4;" d="M 368.611225 230.45847 L 366.719778 232.519531 L 368.092105 234.960938 L 365.537623 233.789063 L 363.651316 235.850123 L 363.969984 233.06949 L 361.430921 231.897615 L 364.170436 231.347656 L 364.499383 228.572163 L 365.871711 231.008429 Z M 368.611225 230.45847 " transform="matrix(0.76,0,0,0.76,0,0)"/>
<path style="fill-rule:nonzero;fill:rgb(99.607843%,73.333333%,45.490196%);fill-opacity:1;stroke-width:0.540812;stroke-linecap:round;stroke-linejoin:round;stroke:rgb(14.901961%,19.607843%,21.960784%);stroke-opacity:1;stroke-miterlimit:4;" d="M 371.551192 202.749794 L 369.649465 204.810855 L 371.032072 207.252262 L 368.47759 206.080387 L 366.591283 208.141447 L 366.909951 205.360814 L 364.370888 204.188939 L 367.110403 203.63898 L 367.429071 200.858347 L 368.811678 203.299753 Z M 371.551192 202.749794 " transform="matrix(0.76,0,0,0.76,0,0)"/>
<path style="fill-rule:nonzero;fill:rgb(99.607843%,73.333333%,45.490196%);fill-opacity:1;stroke-width:0.540812;stroke-linecap:round;stroke-linejoin:round;stroke:rgb(14.901961%,19.607843%,21.960784%);stroke-opacity:1;stroke-miterlimit:4;" d="M 340.902549 251.238692 L 339.011102 253.299753 L 340.378289 255.74116 L 337.839227 254.569285 L 335.9375 256.630345 L 336.261308 253.849712 L 333.722245 252.677837 L 336.46176 252.127878 L 336.790707 249.352385 L 338.157895 251.788651 Z M 340.902549 251.238692 " transform="matrix(0.76,0,0,0.76,0,0)"/>
<path style="fill-rule:nonzero;fill:rgb(67.843137%,67.843137%,67.843137%);fill-opacity:1;stroke-width:1.081625;stroke-linecap:round;stroke-linejoin:round;stroke:rgb(14.901961%,19.607843%,21.960784%);stroke-opacity:1;stroke-miterlimit:4;" d="M 264.412007 191.498766 C 264.412007 183.794202 258.095189 177.549342 250.298109 177.549342 C 242.506168 177.549342 236.18935 183.794202 236.18935 191.498766 C 236.18935 199.203331 242.506168 205.448191 250.298109 205.448191 C 258.095189 205.448191 264.412007 199.203331 264.412007 191.498766 Z M 264.412007 191.498766 " transform="matrix(0.76,0,0,0.76,0,0)"/>
<path style="fill-rule:nonzero;fill:rgb(67.843137%,67.843137%,67.843137%);fill-opacity:1;stroke-width:1.081625;stroke-linecap:round;stroke-linejoin:round;stroke:rgb(14.901961%,19.607843%,21.960784%);stroke-opacity:1;stroke-miterlimit:4;" d="M 325.899465 187.690173 C 325.899465 179.985609 319.582648 173.740748 311.790707 173.740748 C 303.998766 173.740748 297.681949 179.985609 297.681949 187.690173 C 297.681949 195.394737 303.998766 201.639597 311.790707 201.639597 C 319.582648 201.639597 325.899465 195.394737 325.899465 187.690173 Z M 325.899465 187.690173 " transform="matrix(0.76,0,0,0.76,0,0)"/>
<path style="fill-rule:nonzero;fill:rgb(99.607843%,73.333333%,45.490196%);fill-opacity:1;stroke-width:1.081625;stroke-linecap:round;stroke-linejoin:round;stroke:rgb(14.901961%,19.607843%,21.960784%);stroke-opacity:1;stroke-miterlimit:4;" d="M 301.171875 217.007607 C 301.171875 207.642887 293.2206 200.051398 283.418997 200.051398 C 273.617393 200.051398 265.671258 207.642887 265.671258 217.007607 C 265.671258 226.377467 273.617393 233.968956 283.418997 233.968956 C 293.2206 233.968956 301.171875 226.377467 301.171875 217.007607 Z M 301.171875 217.007607 " transform="matrix(0.76,0,0,0.76,0,0)"/>
<path style="fill-rule:nonzero;fill:rgb(14.901961%,19.607843%,21.960784%);fill-opacity:1;stroke-width:1.081625;stroke-linecap:round;stroke-linejoin:round;stroke:rgb(14.901961%,19.607843%,21.960784%);stroke-opacity:1;stroke-miterlimit:4;" d="M 270.430715 208.300781 L 272.882401 219.058388 C 274.393503 224.568257 279.646382 228.181538 285.331003 227.631579 C 291.010485 227.07648 295.471834 222.527755 295.908717 216.837993 L 296.741365 206.080387 Z M 270.430715 208.300781 " transform="matrix(0.76,0,0,0.76,0,0)"/>
<path style="fill-rule:nonzero;fill:rgb(100%,100%,100%);fill-opacity:1;stroke-width:1.081625;stroke-linecap:round;stroke-linejoin:round;stroke:rgb(14.901961%,19.607843%,21.960784%);stroke-opacity:1;stroke-miterlimit:4;" d="M 254.260896 162.967722 L 247.609992 189.602179 L 313.851768 184.210526 L 304.029605 158.85074 Z M 254.260896 162.967722 " transform="matrix(0.76,0,0,0.76,0,0)"/>
<path style="fill-rule:nonzero;fill:rgb(89.803922%,89.803922%,89.803922%);fill-opacity:1;stroke-width:1.081625;stroke-linecap:round;stroke-linejoin:round;stroke:rgb(14.901961%,19.607843%,21.960784%);stroke-opacity:1;stroke-miterlimit:4;" d="M 247.609992 189.602179 L 259.328742 218.76028 L 311.317845 213.692434 L 313.851768 184.210526 Z M 247.609992 189.602179 " transform="matrix(0.76,0,0,0.76,0,0)"/>
<path style="fill-rule:nonzero;fill:rgb(99.607843%,73.333333%,45.490196%);fill-opacity:1;stroke-width:1.081625;stroke-linecap:round;stroke-linejoin:round;stroke:rgb(14.901961%,19.607843%,21.960784%);stroke-opacity:1;stroke-miterlimit:4;" d="M 277.400288 201.490543 C 277.220395 205.628084 273.601974 208.891859 269.26912 209.220806 C 264.941406 209.549753 260.701069 206.841077 259.770765 202.739515 C 258.768503 198.041735 262.278988 193.421053 267.829975 193.071546 C 273.380962 192.722039 277.590461 196.772204 277.400288 201.490543 Z M 277.400288 201.490543 " transform="matrix(0.76,0,0,0.76,0,0)"/>
<path style="fill-rule:nonzero;fill:rgb(100%,100%,100%);fill-opacity:1;stroke-width:1.081625;stroke-linecap:round;stroke-linejoin:round;stroke:rgb(14.901961%,19.607843%,21.960784%);stroke-opacity:1;stroke-miterlimit:4;" d="M 274.090255 201.721834 C 273.977179 204.43565 271.803043 206.609786 269.089227 206.717722 C 266.339433 207.015831 263.80551 205.20662 263.188734 202.508224 C 262.700452 199.671053 264.931127 196.998355 268.189762 196.782484 C 269.634046 196.61801 271.08347 197.054893 272.198808 197.990337 C 273.309005 198.920641 273.997738 200.26727 274.090255 201.721834 Z M 274.090255 201.721834 " transform="matrix(0.76,0,0,0.76,0,0)"/>
<path style="fill-rule:nonzero;fill:rgb(99.607843%,73.333333%,45.490196%);fill-opacity:1;stroke-width:1.081625;stroke-linecap:round;stroke-linejoin:round;stroke:rgb(14.901961%,19.607843%,21.960784%);stroke-opacity:1;stroke-miterlimit:4;" d="M 306.871916 198.637952 C 306.702303 202.780633 303.078742 206.039268 298.751028 206.368215 C 294.418174 206.702303 290.167558 203.988487 289.247533 199.881785 C 288.199013 195.189145 291.760896 190.568462 297.311883 190.208676 C 302.85773 189.84889 307.072368 193.919613 306.871916 198.637952 Z M 306.871916 198.637952 " transform="matrix(0.76,0,0,0.76,0,0)"/>
<path style="fill-rule:nonzero;fill:rgb(100%,100%,100%);fill-opacity:1;stroke-width:1.081625;stroke-linecap:round;stroke-linejoin:round;stroke:rgb(14.901961%,19.607843%,21.960784%);stroke-opacity:1;stroke-miterlimit:4;" d="M 303.561883 198.869243 C 303.453947 201.588199 301.274671 203.762336 298.560855 203.870271 C 295.805921 204.16324 293.271998 202.34889 292.660362 199.650493 C 292.172081 196.808183 294.397615 194.150905 297.66139 193.929893 C 299.105674 193.76028 300.555099 194.197163 301.670436 195.132607 C 302.785773 196.062911 303.469367 197.419819 303.561883 198.869243 Z M 303.561883 198.869243 " transform="matrix(0.76,0,0,0.76,0,0)"/>
<path style="fill-rule:nonzero;fill:rgb(14.901961%,19.607843%,21.960784%);fill-opacity:1;stroke-width:1.081625;stroke-linecap:round;stroke-linejoin:round;stroke:rgb(14.901961%,19.607843%,21.960784%);stroke-opacity:1;stroke-miterlimit:4;" d="M 277.718956 213.512541 C 276.454564 213.522821 275.400905 212.535979 275.339227 211.271587 C 275.27241 210.007196 276.218133 208.917558 277.482525 208.799342 L 290.162418 207.529811 C 291.457648 207.401316 292.614104 208.347039 292.742599 209.64741 C 292.876234 210.94264 291.92537 212.099095 290.63014 212.22759 L 278.001645 213.502262 Z M 277.718956 213.512541 " transform="matrix(0.76,0,0,0.76,0,0)"/>
<path style="fill-rule:nonzero;fill:rgb(99.607843%,73.333333%,45.490196%);fill-opacity:1;stroke-width:1.081625;stroke-linecap:round;stroke-linejoin:round;stroke:rgb(14.901961%,19.607843%,21.960784%);stroke-opacity:1;stroke-miterlimit:4;" d="M 260.269326 171.278783 C 260.269326 173.925781 258.126028 176.069079 255.47903 176.069079 C 252.832031 176.069079 250.688734 173.925781 250.688734 171.278783 C 250.688734 168.636924 252.832031 166.488487 255.47903 166.488487 C 258.126028 166.488487 260.269326 168.636924 260.269326 171.278783 Z M 260.269326 171.278783 " transform="matrix(0.76,0,0,0.76,0,0)"/>
<path style="fill-rule:nonzero;fill:rgb(99.607843%,73.333333%,45.490196%);fill-opacity:1;stroke-width:1.081625;stroke-linecap:round;stroke-linejoin:round;stroke:rgb(14.901961%,19.607843%,21.960784%);stroke-opacity:1;stroke-miterlimit:4;" d="M 256.609786 168.48787 C 256.609786 170.749383 254.780016 172.579153 252.518503 172.579153 C 250.26213 172.579153 248.43236 170.749383 248.43236 168.48787 C 248.43236 166.231497 250.26213 164.401727 252.518503 164.401727 C 254.780016 164.401727 256.609786 166.231497 256.609786 168.48787 Z M 256.609786 168.48787 " transform="matrix(0.76,0,0,0.76,0,0)"/>
<path style="fill-rule:nonzero;fill:rgb(99.607843%,73.333333%,45.490196%);fill-opacity:1;stroke-width:1.081625;stroke-linecap:round;stroke-linejoin:round;stroke:rgb(14.901961%,19.607843%,21.960784%);stroke-opacity:1;stroke-miterlimit:4;" d="M 251.732113 164.139597 C 251.726974 165.917969 250.282689 167.351974 248.504317 167.351974 C 246.725946 167.346834 245.286801 165.902549 245.291941 164.124178 C 245.291941 162.350946 246.731086 160.911801 248.509457 160.911801 C 249.367804 160.911801 250.185033 161.251028 250.79153 161.857525 C 251.392887 162.464021 251.732113 163.28639 251.732113 164.139597 Z M 251.732113 164.139597 " transform="matrix(0.76,0,0,0.76,0,0)"/>
<path style="fill:none;stroke-width:1.081625;stroke-linecap:round;stroke-linejoin:round;stroke:rgb(14.901961%,19.607843%,21.960784%);stroke-opacity:1;stroke-miterlimit:4;" d="M 247.728207 163.00884 L 240.409128 156.208882 " transform="matrix(0.76,0,0,0.76,0,0)"/>
<path style="fill-rule:nonzero;fill:rgb(99.607843%,73.333333%,45.490196%);fill-opacity:1;stroke-width:1.081625;stroke-linecap:round;stroke-linejoin:round;stroke:rgb(14.901961%,19.607843%,21.960784%);stroke-opacity:1;stroke-miterlimit:4;" d="M 307.308799 167.96875 C 307.308799 170.615748 305.165502 172.759046 302.518503 172.759046 C 299.876645 172.759046 297.728207 170.615748 297.728207 167.96875 C 297.728207 165.326891 299.876645 163.178454 302.518503 163.178454 C 305.165502 163.178454 307.308799 165.326891 307.308799 167.96875 Z M 307.308799 167.96875 " transform="matrix(0.76,0,0,0.76,0,0)"/>
<path style="fill-rule:nonzero;fill:rgb(99.607843%,73.333333%,45.490196%);fill-opacity:1;stroke-width:1.081625;stroke-linecap:round;stroke-linejoin:round;stroke:rgb(14.901961%,19.607843%,21.960784%);stroke-opacity:1;stroke-miterlimit:4;" d="M 309.570312 165.177837 C 309.570312 167.43935 307.740543 169.26912 305.47903 169.26912 C 303.222656 169.26912 301.387747 167.43935 301.387747 165.177837 C 301.387747 162.921464 303.222656 161.091694 305.47903 161.091694 C 307.740543 161.091694 309.570312 162.921464 309.570312 165.177837 Z M 309.570312 165.177837 " transform="matrix(0.76,0,0,0.76,0,0)"/>
<path style="fill-rule:nonzero;fill:rgb(99.607843%,73.333333%,45.490196%);fill-opacity:1;stroke-width:1.081625;stroke-linecap:round;stroke-linejoin:round;stroke:rgb(14.901961%,19.607843%,21.960784%);stroke-opacity:1;stroke-miterlimit:4;" d="M 306.270559 160.829564 C 306.275699 162.607936 307.719984 164.041941 309.498355 164.041941 C 311.271587 164.036801 312.710732 162.592516 312.710732 160.814145 C 312.705592 159.040913 311.266447 157.601768 309.488076 157.601768 C 308.634868 157.601768 307.8125 157.940995 307.211143 158.547492 C 306.604646 159.153988 306.265419 159.976357 306.270559 160.829564 Z M 306.270559 160.829564 " transform="matrix(0.76,0,0,0.76,0,0)"/>
<path style="fill:none;stroke-width:1.081625;stroke-linecap:round;stroke-linejoin:round;stroke:rgb(14.901961%,19.607843%,21.960784%);stroke-opacity:1;stroke-miterlimit:4;" d="M 310.269326 159.688528 L 317.588405 152.898849 " transform="matrix(0.76,0,0,0.76,0,0)"/>
<path style="fill-rule:nonzero;fill:rgb(100%,100%,100%);fill-opacity:1;stroke-width:1.081625;stroke-linecap:round;stroke-linejoin:round;stroke:rgb(14.901961%,19.607843%,21.960784%);stroke-opacity:1;stroke-miterlimit:4;" d="M 299.547697 335.577714 C 299.547697 337.890625 298.021176 339.761513 296.129729 339.761513 C 294.238281 339.761513 292.722039 337.890625 292.722039 335.577714 C 292.722039 333.269942 294.248561 331.399054 296.129729 331.399054 C 298.010896 331.399054 299.547697 333.269942 299.547697 335.577714 Z M 299.547697 335.577714 " transform="matrix(0.76,0,0,0.76,0,0)"/>
<path style="fill-rule:nonzero;fill:rgb(100%,100%,100%);fill-opacity:1;stroke-width:1.081625;stroke-linecap:butt;stroke-linejoin:miter;stroke:rgb(14.901961%,19.607843%,21.960784%);stroke-opacity:1;stroke-miterlimit:10;" d="M 306.311678 339.077919 L 306.049548 339.077919 L 296.561472 337.690173 C 295.626028 337.515419 294.998972 336.636513 295.137747 335.695929 C 295.271382 334.755345 296.124589 334.092311 297.070312 334.189967 L 306.558388 335.567434 C 307.514391 335.659951 308.223684 336.497738 308.156867 337.458882 C 308.090049 338.414885 307.267681 339.144737 306.311678 339.098479 Z M 306.311678 339.077919 " transform="matrix(0.76,0,0,0.76,0,0)"/>
<path style="fill-rule:nonzero;fill:rgb(100%,100%,100%);fill-opacity:1;stroke-width:1.081625;stroke-linecap:round;stroke-linejoin:round;stroke:rgb(14.901961%,19.607843%,21.960784%);stroke-opacity:1;stroke-miterlimit:4;" d="M 173.679071 355.119243 C 172.440378 353.171258 172.681949 350.77097 174.321546 349.768709 C 175.961143 348.771587 178.202097 349.521998 179.440789 351.459704 C 180.679482 353.402549 180.391653 355.807977 178.788035 356.820518 C 177.189556 357.827919 174.907484 357.072368 173.679071 355.119243 Z M 173.679071 355.119243 " transform="matrix(0.76,0,0,0.76,0,0)"/>
<path style="fill-rule:nonzero;fill:rgb(100%,100%,100%);fill-opacity:1;stroke-width:1.081625;stroke-linecap:butt;stroke-linejoin:miter;stroke:rgb(14.901961%,19.607843%,21.960784%);stroke-opacity:1;stroke-miterlimit:10;" d="M 166.087582 355.792558 C 166.164679 355.746299 166.241776 355.705181 166.318873 355.669202 L 175.082237 351.757812 C 175.961143 351.413446 176.958265 351.81949 177.34375 352.688117 C 177.729235 353.551604 177.364309 354.564145 176.521382 354.990748 L 167.758018 358.902138 C 166.91509 359.277344 165.923109 358.932977 165.481086 358.120888 C 165.044202 357.30366 165.311472 356.285979 166.087582 355.792558 Z M 166.087582 355.792558 " transform="matrix(0.76,0,0,0.76,0,0)"/>
<path style="fill-rule:nonzero;fill:rgb(100%,100%,100%);fill-opacity:1;stroke-width:1.081625;stroke-linecap:round;stroke-linejoin:round;stroke:rgb(14.901961%,19.607843%,21.960784%);stroke-opacity:1;stroke-miterlimit:4;" d="M 400.308388 310.320724 C 399.069696 308.367599 399.357525 305.97759 400.950863 304.970189 C 402.539063 303.957648 404.831414 304.718339 406.070107 306.661184 C 407.308799 308.59889 407.02097 311.009457 405.427632 312.021998 C 403.839433 313.0294 401.541941 312.268709 400.308388 310.320724 Z M 400.308388 310.320724 " transform="matrix(0.76,0,0,0.76,0,0)"/>
<path style="fill-rule:nonzero;fill:rgb(100%,100%,100%);fill-opacity:1;stroke-width:1.081625;stroke-linecap:butt;stroke-linejoin:miter;stroke:rgb(14.901961%,19.607843%,21.960784%);stroke-opacity:1;stroke-miterlimit:10;" d="M 392.732319 310.999178 L 392.948191 310.880962 L 401.711554 306.969572 C 402.292352 306.676604 402.986225 306.728002 403.520765 307.103207 C 404.055304 307.478413 404.337993 308.115748 404.260896 308.763363 C 404.183799 309.410979 403.757196 309.960938 403.150699 310.202508 L 394.397615 314.108758 C 393.554688 314.483964 392.562706 314.144737 392.120683 313.327508 C 391.683799 312.515419 391.951069 311.497738 392.732319 310.999178 Z M 392.732319 310.999178 " transform="matrix(0.76,0,0,0.76,0,0)"/>
<path style="fill-rule:nonzero;fill:rgb(100%,100%,100%);fill-opacity:1;stroke-width:1.081625;stroke-linecap:butt;stroke-linejoin:miter;stroke:rgb(14.901961%,19.607843%,21.960784%);stroke-opacity:1;stroke-miterlimit:10;" d="M 231.178043 357.000411 C 227.179276 357.000411 223.96176 358.917558 223.96176 361.281867 C 223.96176 363.641036 227.189556 365.558183 231.178043 365.558183 C 235.171669 365.558183 238.409745 363.641036 238.409745 361.281867 C 238.409745 358.917558 235.171669 357.000411 231.178043 357.000411 Z M 231.178043 363.491982 C 229.122122 363.491982 227.451686 362.48972 227.451686 361.281867 C 227.451686 360.068873 229.122122 359.071752 231.178043 359.071752 C 233.239104 359.071752 234.919819 360.068873 234.919819 361.281867 C 234.919819 362.48972 233.249383 363.491982 231.178043 363.491982 Z M 231.178043 363.491982 " transform="matrix(0.76,0,0,0.76,0,0)"/>
<path style="fill-rule:nonzero;fill:rgb(100%,100%,100%);fill-opacity:1;stroke-width:1.081625;stroke-linecap:round;stroke-linejoin:round;stroke:rgb(14.901961%,19.607843%,21.960784%);stroke-opacity:1;stroke-miterlimit:4;" d="M 296.258224 357.689145 L 291.329153 355.689762 L 286.389803 357.689145 L 285.171669 362.088816 L 288.589638 365.61986 L 294.068668 365.61986 L 297.481497 362.088816 Z M 292.722039 363.312089 L 289.941406 363.312089 L 288.199013 361.518298 L 288.820929 359.287623 L 291.329153 358.290502 L 293.832237 359.287623 L 294.449013 361.518298 Z M 292.722039 363.312089 " transform="matrix(0.76,0,0,0.76,0,0)"/>
<path style="fill-rule:nonzero;fill:rgb(100%,100%,100%);fill-opacity:1;stroke-width:1.081625;stroke-linecap:round;stroke-linejoin:round;stroke:rgb(14.901961%,19.607843%,21.960784%);stroke-opacity:1;stroke-miterlimit:4;" d="M 389.818051 293.801398 L 384.878701 291.802015 L 379.93935 293.801398 L 378.721217 298.211349 L 382.139186 301.742393 L 387.618215 301.742393 L 391.041324 298.211349 Z M 386.271587 299.429482 L 383.490954 299.429482 L 381.75884 297.640831 L 382.370477 295.399877 L 384.878701 294.397615 L 387.392064 295.399877 L 388.00884 297.640831 Z M 386.271587 299.429482 " transform="matrix(0.76,0,0,0.76,0,0)"/>
<path style="fill-rule:nonzero;fill:rgb(100%,100%,100%);fill-opacity:1;stroke-width:1.081625;stroke-linecap:round;stroke-linejoin:round;stroke:rgb(14.901961%,19.607843%,21.960784%);stroke-opacity:1;stroke-miterlimit:4;" d="M 329.271176 367.732319 C 329.132401 367.732319 328.993627 367.70662 328.859992 367.660362 C 328.186678 367.377673 327.621299 366.889391 327.240954 366.267475 C 326.690995 365.419408 326.238692 363.908306 327.112459 361.569696 C 327.729235 359.832442 329.17352 358.516653 330.962171 358.059211 C 333.249383 357.504112 335.66509 358.059211 337.48972 359.549753 C 337.731291 359.745066 337.885485 360.032895 337.916324 360.346423 C 337.947163 360.659951 337.849507 360.968339 337.649054 361.20991 C 337.23787 361.71361 336.492599 361.785567 335.988898 361.369243 C 334.745066 360.377262 333.120888 360.012336 331.568668 360.372122 C 330.520148 360.639391 329.67722 361.415502 329.317434 362.438322 C 328.428248 364.792352 329.502467 365.439967 329.718339 365.501645 C 330.304276 365.758635 330.581826 366.431949 330.350535 367.028166 C 330.165502 367.45991 329.738898 367.737459 329.271176 367.732319 Z M 329.271176 367.732319 " transform="matrix(0.76,0,0,0.76,0,0)"/>
<path style="fill-rule:nonzero;fill:rgb(100%,100%,100%);fill-opacity:1;stroke-width:1.081625;stroke-linecap:round;stroke-linejoin:round;stroke:rgb(14.901961%,19.607843%,21.960784%);stroke-opacity:1;stroke-miterlimit:4;" d="M 353.64926 372.070312 C 353.279194 372.070312 352.903988 372.013775 352.549342 371.900699 L 333.362459 365.650699 C 332.123766 365.285773 331.183183 364.278372 330.905633 363.01912 C 330.628084 361.765008 331.054688 360.454359 332.02097 359.601151 C 332.987253 358.747944 334.339021 358.485814 335.552015 358.917558 L 354.749178 365.167558 C 356.393914 365.717516 357.406456 367.372533 357.134046 369.089227 C 356.856497 370.800781 355.386513 372.065173 353.64926 372.070312 Z M 353.64926 372.070312 " transform="matrix(0.76,0,0,0.76,0,0)"/>
<path style="fill:none;stroke-width:1.081625;stroke-linecap:round;stroke-linejoin:round;stroke:rgb(14.901961%,19.607843%,21.960784%);stroke-opacity:1;stroke-miterlimit:4;" d="M 332.781661 365.491365 C 332.781661 365.491365 333.542352 360.608553 339.638158 360.490337 " transform="matrix(0.76,0,0,0.76,0,0)"/>
<path style="fill:none;stroke-width:1.081625;stroke-linecap:round;stroke-linejoin:round;stroke:rgb(14.901961%,19.607843%,21.960784%);stroke-opacity:1;stroke-miterlimit:4;" d="M 336.888363 366.550164 C 336.888363 366.550164 337.659334 361.677632 343.75 361.549137 " transform="matrix(0.76,0,0,0.76,0,0)"/>
<path style="fill:none;stroke-width:1.081625;stroke-linecap:round;stroke-linejoin:round;stroke:rgb(14.901961%,19.607843%,21.960784%);stroke-opacity:1;stroke-miterlimit:4;" d="M 340.547903 367.922492 C 340.547903 367.922492 341.308594 363.049959 347.39926 362.921464 " transform="matrix(0.76,0,0,0.76,0,0)"/>
<path style="fill:none;stroke-width:1.081625;stroke-linecap:round;stroke-linejoin:round;stroke:rgb(14.901961%,19.607843%,21.960784%);stroke-opacity:1;stroke-miterlimit:4;" d="M 344.361637 369.00185 C 344.361637 369.00185 345.122327 364.129317 351.207854 364.000822 " transform="matrix(0.76,0,0,0.76,0,0)"/>
<path style="fill:none;stroke-width:1.081625;stroke-linecap:round;stroke-linejoin:round;stroke:rgb(14.901961%,19.607843%,21.960784%);stroke-opacity:1;stroke-miterlimit:4;" d="M 348.17023 370.358758 C 348.17023 370.358758 348.930921 365.491365 355.021587 365.35773 " transform="matrix(0.76,0,0,0.76,0,0)"/>
<path style="fill-rule:nonzero;fill:rgb(100%,100%,100%);fill-opacity:1;stroke-width:1.081625;stroke-linecap:round;stroke-linejoin:round;stroke:rgb(14.901961%,19.607843%,21.960784%);stroke-opacity:1;stroke-miterlimit:4;" d="M 353.63898 371.998355 C 353.505345 371.998355 353.366571 371.972656 353.238076 371.921258 C 352.564762 371.643709 351.994243 371.160567 351.608758 370.538651 C 351.058799 369.690584 350.611637 368.179482 351.480263 365.830592 C 352.107319 364.098479 353.546464 362.782689 355.329975 362.320107 C 357.622327 361.770148 360.038035 362.325247 361.857525 363.820929 C 362.104235 364.016242 362.258429 364.304071 362.289268 364.617599 C 362.320107 364.931127 362.222451 365.239515 362.021998 365.481086 C 361.605674 365.979646 360.860403 366.051604 360.361842 365.640419 C 359.11801 364.648438 357.488692 364.278372 355.941612 364.638158 C 354.893092 364.905428 354.045025 365.676398 353.690378 366.699219 C 352.801192 369.058388 353.870271 369.700863 354.091283 369.762541 C 354.600123 369.983553 354.887952 370.533512 354.780016 371.078331 C 354.672081 371.628289 354.199219 372.029194 353.63898 372.039474 Z M 353.63898 371.998355 " transform="matrix(0.76,0,0,0.76,0,0)"/>
</g>
</svg>
