<?xml version="1.0" encoding="UTF-8"?>
<svg xmlns="http://www.w3.org/2000/svg" xmlns:xlink="http://www.w3.org/1999/xlink" width="48" height="48" viewBox="0 0 48 48" version="1.1">
<g id="surface1">
<path style=" stroke:none;fill-rule:nonzero;fill:rgb(0%,0%,0%);fill-opacity:1;" d="M 10.59375 0.0859375 C 9.871094 0.308594 9.355469 0.757812 9.039062 1.453125 C 8.617188 2.335938 8.8125 3.355469 9.523438 4.070312 C 10.011719 4.566406 10.59375 4.78125 11.390625 4.78125 L 11.972656 4.78125 L 12.027344 6.394531 C 12.148438 9.757812 12.804688 12.449219 14.210938 15.28125 C 15.335938 17.539062 16.320312 18.929688 18.347656 21.074219 C 19.707031 22.519531 19.96875 22.976562 19.96875 24 C 19.96875 25.011719 19.707031 25.480469 18.394531 26.878906 C 16.304688 29.089844 15.335938 30.449219 14.210938 32.71875 C 12.804688 35.550781 12.148438 38.242188 12.027344 41.605469 L 11.972656 43.21875 L 11.390625 43.21875 C 10.59375 43.21875 10.011719 43.433594 9.523438 43.929688 C 8.363281 45.085938 8.679688 46.949219 10.171875 47.757812 L 10.546875 47.953125 L 37.453125 47.953125 L 37.828125 47.757812 C 39.320312 46.949219 39.636719 45.085938 38.476562 43.929688 C 37.988281 43.433594 37.40625 43.21875 36.609375 43.21875 L 36.027344 43.21875 L 35.972656 41.605469 C 35.851562 38.242188 35.195312 35.550781 33.789062 32.71875 C 32.664062 30.449219 31.695312 29.089844 29.605469 26.878906 C 28.292969 25.480469 28.03125 25.011719 28.03125 24 C 28.03125 22.988281 28.292969 22.519531 29.605469 21.121094 C 31.695312 18.910156 32.664062 17.550781 33.789062 15.28125 C 35.195312 12.449219 35.851562 9.757812 35.972656 6.394531 L 36.027344 4.78125 L 36.609375 4.78125 C 37.40625 4.78125 37.988281 4.566406 38.476562 4.070312 C 39.636719 2.914062 39.320312 1.050781 37.828125 0.242188 L 37.453125 0.046875 L 24.140625 0.0273438 C 16.820312 0.0195312 10.726562 0.046875 10.59375 0.0859375 Z M 37.320312 1.867188 C 37.695312 2.242188 37.660156 2.738281 37.226562 3.066406 C 37.011719 3.234375 10.988281 3.234375 10.773438 3.066406 C 10.339844 2.738281 10.304688 2.242188 10.679688 1.867188 L 10.949219 1.59375 L 37.050781 1.59375 Z M 34.40625 5.691406 C 34.40625 8.679688 33.703125 11.785156 32.445312 14.390625 C 31.425781 16.507812 30.460938 17.878906 28.632812 19.789062 C 26.773438 21.75 26.492188 22.304688 26.492188 24 C 26.492188 25.695312 26.773438 26.25 28.632812 28.210938 C 30.460938 30.121094 31.425781 31.492188 32.445312 33.609375 C 33.703125 36.214844 34.40625 39.320312 34.40625 42.300781 L 34.40625 43.21875 L 13.59375 43.21875 L 13.59375 42.300781 C 13.59375 39.320312 14.296875 36.214844 15.554688 33.609375 C 16.574219 31.480469 17.445312 30.253906 19.5 28.03125 C 20.851562 26.570312 21.148438 26.136719 21.421875 25.179688 C 21.636719 24.441406 21.582031 23.128906 21.289062 22.398438 C 20.992188 21.609375 20.625 21.113281 19.367188 19.789062 C 17.539062 17.878906 16.574219 16.507812 15.554688 14.390625 C 14.296875 11.804688 13.59375 8.664062 13.59375 5.699219 L 13.59375 4.78125 L 34.40625 4.78125 Z M 37.226562 44.933594 C 37.660156 45.261719 37.695312 45.757812 37.320312 46.132812 L 37.050781 46.40625 L 10.949219 46.40625 L 10.679688 46.132812 C 10.304688 45.757812 10.339844 45.261719 10.773438 44.933594 C 10.988281 44.765625 37.011719 44.765625 37.226562 44.933594 Z M 37.226562 44.933594 "/>
<path style=" stroke:none;fill-rule:nonzero;fill:rgb(0%,0%,0%);fill-opacity:1;" d="M 20.15625 10.820312 C 19.03125 11.070312 18.1875 11.785156 17.785156 12.824219 C 17.53125 13.460938 17.578125 13.753906 18.074219 14.605469 C 18.816406 15.898438 19.621094 16.960938 20.886719 18.300781 C 22.210938 19.707031 22.632812 20.363281 22.960938 21.5625 C 23.070312 21.945312 23.15625 22.472656 23.15625 22.734375 C 23.15625 23.617188 23.644531 24.160156 24.261719 23.945312 C 24.601562 23.832031 24.84375 23.324219 24.84375 22.734375 C 24.84375 22.097656 25.164062 21.007812 25.574219 20.203125 C 25.855469 19.648438 26.230469 19.226562 28.011719 17.4375 C 30.722656 14.726562 31.097656 14.164062 30.710938 13.425781 C 30.460938 12.929688 30.140625 12.835938 28.414062 12.742188 C 25.847656 12.609375 24.367188 12.261719 23.035156 11.484375 C 21.835938 10.773438 21.085938 10.601562 20.15625 10.820312 Z M 21.757812 12.609375 C 23.792969 13.742188 25.292969 14.175781 27.730469 14.316406 L 28.789062 14.371094 L 26.746094 16.445312 C 25.265625 17.933594 24.609375 18.675781 24.375 19.097656 C 24.195312 19.414062 24.027344 19.679688 24 19.679688 C 23.972656 19.679688 23.804688 19.425781 23.625 19.105469 C 23.445312 18.789062 22.800781 18 22.179688 17.351562 C 20.886719 15.984375 20.429688 15.402344 19.734375 14.277344 C 19.265625 13.519531 19.238281 13.445312 19.359375 13.226562 C 19.492188 12.964844 19.808594 12.648438 20.109375 12.488281 C 20.457031 12.289062 21.308594 12.355469 21.757812 12.609375 Z M 21.757812 12.609375 "/>
<path style=" stroke:none;fill-rule:nonzero;fill:rgb(0%,0%,0%);fill-opacity:1;" d="M 23.625 25.714844 C 23.304688 25.875 23.15625 26.210938 23.15625 26.792969 C 23.15625 27.414062 23.34375 27.796875 23.71875 27.917969 C 24.046875 28.039062 24.242188 27.992188 24.542969 27.722656 C 24.722656 27.554688 24.75 27.441406 24.75 26.820312 C 24.742188 26.082031 24.664062 25.894531 24.308594 25.707031 C 24.054688 25.566406 23.914062 25.566406 23.625 25.714844 Z M 23.625 25.714844 "/>
<path style=" stroke:none;fill-rule:nonzero;fill:rgb(0%,0%,0%);fill-opacity:1;" d="M 23.445312 29.851562 C 23.054688 30.261719 23.0625 31.414062 23.457031 31.78125 C 23.746094 32.042969 24.234375 32.023438 24.515625 31.734375 C 24.722656 31.539062 24.75 31.425781 24.75 30.796875 C 24.75 30.167969 24.722656 30.054688 24.515625 29.859375 C 24.207031 29.539062 23.738281 29.539062 23.445312 29.851562 Z M 23.445312 29.851562 "/>
<path style=" stroke:none;fill-rule:nonzero;fill:rgb(0%,0%,0%);fill-opacity:1;" d="M 21.421875 33.65625 C 20.699219 33.757812 20.054688 33.976562 19.40625 34.339844 C 18.75 34.695312 16.921875 36.554688 16.304688 37.480469 C 15.757812 38.289062 15.382812 39.394531 15.308594 40.398438 C 15.261719 41.082031 15.273438 41.117188 15.515625 41.34375 L 15.769531 41.578125 L 32.230469 41.578125 L 32.484375 41.34375 C 32.726562 41.117188 32.738281 41.082031 32.691406 40.398438 C 32.605469 39.382812 32.242188 38.289062 31.6875 37.472656 C 31.433594 37.085938 30.722656 36.273438 30.121094 35.664062 C 28.949219 34.480469 28.378906 34.097656 27.28125 33.789062 C 26.679688 33.609375 22.386719 33.515625 21.421875 33.65625 Z M 26.324219 35.25 C 27.5625 35.429688 28.433594 36.046875 29.925781 37.789062 C 30.355469 38.289062 30.863281 39.234375 30.992188 39.769531 L 31.050781 40.03125 L 16.949219 40.03125 L 17.007812 39.769531 C 17.230469 38.839844 17.839844 37.949219 19.191406 36.582031 C 19.949219 35.820312 20.746094 35.371094 21.589844 35.25 C 22.292969 35.148438 25.632812 35.148438 26.324219 35.25 Z M 26.324219 35.25 "/>
</g>
</svg>
