<?xml version="1.0" encoding="UTF-8"?>
<svg xmlns="http://www.w3.org/2000/svg" xmlns:xlink="http://www.w3.org/1999/xlink" width="538px" height="380px" viewBox="0 0 538 380" version="1.1">
<defs>
<filter id="alpha" filterUnits="objectBoundingBox" x="0%" y="0%" width="100%" height="100%">
  <feColorMatrix type="matrix" in="SourceGraphic" values="0 0 0 0 1 0 0 0 0 1 0 0 0 0 1 0 0 0 1 0"/>
</filter>
<mask id="mask0">
  <g filter="url(#alpha)">
<rect x="0" y="0" width="380" height="380" style="fill:rgb(0%,0%,0%);fill-opacity:0.2;stroke:none;"/>
  </g>
</mask>
<clipPath id="clip1">
  <rect x="0" y="0" width="380" height="380"/>
</clipPath>
<g id="surface5" clip-path="url(#clip1)">
<path style=" stroke:none;fill-rule:nonzero;fill:rgb(0%,0%,0%);fill-opacity:1;" d="M 121.882812 206.179688 L 260.277344 206.179688 C 262.09375 206.179688 263.566406 207.652344 263.566406 209.472656 L 263.566406 239.109375 L 118.558594 239.109375 L 118.558594 209.472656 C 118.558594 208.59375 118.910156 207.75 119.535156 207.132812 C 120.160156 206.515625 121.003906 206.171875 121.882812 206.179688 Z M 121.882812 206.179688 "/>
</g>
<mask id="mask1">
  <g filter="url(#alpha)">
<rect x="0" y="0" width="380" height="380" style="fill:rgb(0%,0%,0%);fill-opacity:0.901961;stroke:none;"/>
  </g>
</mask>
<clipPath id="clip2">
  <rect x="0" y="0" width="380" height="380"/>
</clipPath>
<g id="surface8" clip-path="url(#clip2)">
<path style=" stroke:none;fill-rule:nonzero;fill:rgb(100%,100%,100%);fill-opacity:1;" d="M 121.859375 154 L 260.308594 154 L 260.308594 239.097656 L 121.859375 239.097656 Z M 121.859375 154 "/>
</g>
<mask id="mask2">
  <g filter="url(#alpha)">
<rect x="0" y="0" width="380" height="380" style="fill:rgb(0%,0%,0%);fill-opacity:0.2;stroke:none;"/>
  </g>
</mask>
<clipPath id="clip3">
  <rect x="0" y="0" width="380" height="380"/>
</clipPath>
<g id="surface11" clip-path="url(#clip3)">
<path style=" stroke:none;fill-rule:nonzero;fill:rgb(0%,0%,0%);fill-opacity:1;" d="M 244.371094 180.179688 L 136.714844 180.179688 C 136.507812 180.179688 136.335938 180.011719 136.335938 179.800781 C 136.335938 179.589844 136.507812 179.421875 136.714844 179.421875 L 244.371094 179.421875 C 244.582031 179.421875 244.75 179.589844 244.75 179.800781 C 244.75 180.011719 244.582031 180.179688 244.371094 180.179688 Z M 244.371094 180.179688 "/>
</g>
<mask id="mask3">
  <g filter="url(#alpha)">
<rect x="0" y="0" width="380" height="380" style="fill:rgb(0%,0%,0%);fill-opacity:0.2;stroke:none;"/>
  </g>
</mask>
<clipPath id="clip4">
  <rect x="0" y="0" width="380" height="380"/>
</clipPath>
<g id="surface14" clip-path="url(#clip4)">
<path style=" stroke:none;fill-rule:nonzero;fill:rgb(0%,0%,0%);fill-opacity:1;" d="M 244.371094 185.941406 L 136.714844 185.941406 C 136.507812 185.941406 136.335938 185.769531 136.335938 185.5625 C 136.335938 185.351562 136.507812 185.179688 136.714844 185.179688 L 244.371094 185.179688 C 244.582031 185.179688 244.75 185.351562 244.75 185.5625 C 244.75 185.769531 244.582031 185.941406 244.371094 185.941406 Z M 244.371094 185.941406 "/>
</g>
<mask id="mask4">
  <g filter="url(#alpha)">
<rect x="0" y="0" width="380" height="380" style="fill:rgb(0%,0%,0%);fill-opacity:0.2;stroke:none;"/>
  </g>
</mask>
<clipPath id="clip5">
  <rect x="0" y="0" width="380" height="380"/>
</clipPath>
<g id="surface17" clip-path="url(#clip5)">
<path style=" stroke:none;fill-rule:nonzero;fill:rgb(0%,0%,0%);fill-opacity:1;" d="M 244.371094 191.703125 L 136.714844 191.703125 C 136.507812 191.703125 136.335938 191.53125 136.335938 191.324219 C 136.339844 191.113281 136.507812 190.945312 136.714844 190.941406 L 244.371094 190.941406 C 244.582031 190.941406 244.753906 191.109375 244.757812 191.324219 C 244.757812 191.425781 244.71875 191.523438 244.644531 191.59375 C 244.570312 191.664062 244.472656 191.703125 244.371094 191.703125 Z M 244.371094 191.703125 "/>
</g>
<mask id="mask5">
  <g filter="url(#alpha)">
<rect x="0" y="0" width="380" height="380" style="fill:rgb(0%,0%,0%);fill-opacity:0.2;stroke:none;"/>
  </g>
</mask>
<clipPath id="clip6">
  <rect x="0" y="0" width="380" height="380"/>
</clipPath>
<g id="surface20" clip-path="url(#clip6)">
<path style=" stroke:none;fill-rule:nonzero;fill:rgb(0%,0%,0%);fill-opacity:1;" d="M 244.371094 197.472656 L 136.714844 197.472656 C 136.535156 197.433594 136.40625 197.277344 136.40625 197.089844 C 136.40625 196.90625 136.535156 196.746094 136.714844 196.710938 L 244.371094 196.710938 C 244.523438 196.679688 244.679688 196.746094 244.769531 196.875 C 244.855469 197.003906 244.855469 197.175781 244.769531 197.304688 C 244.679688 197.4375 244.523438 197.5 244.371094 197.472656 Z M 244.371094 197.472656 "/>
</g>
<mask id="mask6">
  <g filter="url(#alpha)">
<rect x="0" y="0" width="380" height="380" style="fill:rgb(0%,0%,0%);fill-opacity:0.2;stroke:none;"/>
  </g>
</mask>
<clipPath id="clip7">
  <rect x="0" y="0" width="380" height="380"/>
</clipPath>
<g id="surface23" clip-path="url(#clip7)">
<path style=" stroke:none;fill-rule:nonzero;fill:rgb(0%,0%,0%);fill-opacity:1;" d="M 244.371094 203.230469 L 136.714844 203.230469 C 136.507812 203.226562 136.339844 203.058594 136.335938 202.851562 C 136.335938 202.640625 136.507812 202.472656 136.714844 202.472656 L 244.371094 202.472656 C 244.472656 202.46875 244.570312 202.507812 244.644531 202.582031 C 244.71875 202.652344 244.757812 202.75 244.757812 202.851562 C 244.753906 203.0625 244.582031 203.230469 244.371094 203.230469 Z M 244.371094 203.230469 "/>
</g>
<mask id="mask7">
  <g filter="url(#alpha)">
<rect x="0" y="0" width="380" height="380" style="fill:rgb(0%,0%,0%);fill-opacity:0.2;stroke:none;"/>
  </g>
</mask>
<clipPath id="clip8">
  <rect x="0" y="0" width="380" height="380"/>
</clipPath>
<g id="surface26" clip-path="url(#clip8)">
<path style=" stroke:none;fill-rule:nonzero;fill:rgb(0%,0%,0%);fill-opacity:1;" d="M 171.609375 209 L 136.714844 209 C 136.507812 209 136.335938 208.828125 136.335938 208.621094 C 136.335938 208.410156 136.507812 208.238281 136.714844 208.238281 L 171.609375 208.238281 C 171.816406 208.238281 171.988281 208.410156 171.988281 208.621094 C 171.988281 208.828125 171.816406 209 171.609375 209 Z M 171.609375 209 "/>
</g>
<mask id="mask8">
  <g filter="url(#alpha)">
<rect x="0" y="0" width="380" height="380" style="fill:rgb(0%,0%,0%);fill-opacity:0.2;stroke:none;"/>
  </g>
</mask>
<clipPath id="clip9">
  <rect x="0" y="0" width="380" height="380"/>
</clipPath>
<g id="surface29" clip-path="url(#clip9)">
<path style=" stroke:none;fill-rule:nonzero;fill:rgb(0%,0%,0%);fill-opacity:1;" d="M 244.371094 226.28125 L 136.714844 226.28125 C 136.535156 226.246094 136.40625 226.085938 136.40625 225.902344 C 136.40625 225.71875 136.535156 225.558594 136.714844 225.523438 L 244.371094 225.523438 C 244.523438 225.492188 244.679688 225.554688 244.769531 225.6875 C 244.855469 225.816406 244.855469 225.988281 244.769531 226.117188 C 244.679688 226.25 244.523438 226.3125 244.371094 226.28125 Z M 244.371094 226.28125 "/>
</g>
<mask id="mask9">
  <g filter="url(#alpha)">
<rect x="0" y="0" width="380" height="380" style="fill:rgb(0%,0%,0%);fill-opacity:0.2;stroke:none;"/>
  </g>
</mask>
<clipPath id="clip10">
  <rect x="0" y="0" width="380" height="380"/>
</clipPath>
<g id="surface32" clip-path="url(#clip10)">
<path style=" stroke:none;fill-rule:nonzero;fill:rgb(0%,0%,0%);fill-opacity:1;" d="M 218.476562 170.695312 L 162.640625 170.695312 C 162.429688 170.695312 162.261719 170.527344 162.261719 170.316406 C 162.261719 170.105469 162.429688 169.9375 162.640625 169.9375 L 218.5 169.9375 C 218.710938 169.9375 218.878906 170.105469 218.878906 170.316406 C 218.878906 170.527344 218.710938 170.695312 218.5 170.695312 Z M 218.476562 170.695312 "/>
</g>
<mask id="mask10">
  <g filter="url(#alpha)">
<rect x="0" y="0" width="380" height="380" style="fill:rgb(0%,0%,0%);fill-opacity:0.301961;stroke:none;"/>
  </g>
</mask>
<clipPath id="clip11">
  <rect x="0" y="0" width="380" height="380"/>
</clipPath>
<g id="surface35" clip-path="url(#clip11)">
<path style=" stroke:none;fill-rule:nonzero;fill:rgb(0%,0%,0%);fill-opacity:1;" d="M 110.039062 273.738281 L 103.488281 313.257812 C 103.382812 313.898438 103.566406 314.550781 103.984375 315.046875 C 104.40625 315.539062 105.023438 315.824219 105.671875 315.824219 L 276.351562 315.824219 C 277 315.824219 277.613281 315.539062 278.035156 315.046875 C 278.453125 314.550781 278.632812 313.894531 278.523438 313.257812 L 271.972656 273.738281 C 271.796875 272.671875 270.878906 271.890625 269.800781 271.890625 L 112.222656 271.890625 C 111.140625 271.890625 110.21875 272.671875 110.039062 273.738281 Z M 110.039062 273.738281 "/>
</g>
<mask id="mask11">
  <g filter="url(#alpha)">
<rect x="0" y="0" width="380" height="380" style="fill:rgb(0%,0%,0%);fill-opacity:0.2;stroke:none;"/>
  </g>
</mask>
<clipPath id="clip12">
  <rect x="0" y="0" width="380" height="380"/>
</clipPath>
<g id="surface38" clip-path="url(#clip12)">
<path style=" stroke:none;fill-rule:nonzero;fill:rgb(0%,0%,0%);fill-opacity:1;" d="M 194.515625 229.929688 L 194.515625 239.105469 L 185.515625 239.105469 L 185.515625 229.929688 L 188.90625 229.929688 L 188.90625 232.300781 L 191.117188 232.300781 L 191.117188 229.929688 Z M 194.515625 229.929688 "/>
</g>
<mask id="mask12">
  <g filter="url(#alpha)">
<rect x="0" y="0" width="380" height="380" style="fill:rgb(0%,0%,0%);fill-opacity:0.501961;stroke:none;"/>
  </g>
</mask>
<clipPath id="clip13">
  <rect x="0" y="0" width="380" height="380"/>
</clipPath>
<g id="surface41" clip-path="url(#clip13)">
<path style=" stroke:none;fill-rule:nonzero;fill:rgb(100%,100%,100%);fill-opacity:1;" d="M 106.527344 223.441406 L 121.859375 223.441406 L 121.859375 228.355469 L 106.527344 228.355469 Z M 106.527344 223.441406 "/>
</g>
<mask id="mask13">
  <g filter="url(#alpha)">
<rect x="0" y="0" width="380" height="380" style="fill:rgb(0%,0%,0%);fill-opacity:0.301961;stroke:none;"/>
  </g>
</mask>
<clipPath id="clip14">
  <rect x="0" y="0" width="380" height="380"/>
</clipPath>
<g id="surface44" clip-path="url(#clip14)">
<path style=" stroke:none;fill-rule:nonzero;fill:rgb(100%,100%,100%);fill-opacity:1;" d="M 95.433594 251.164062 L 285.023438 251.164062 C 286.53125 251.164062 287.75 252.386719 287.75 253.894531 L 287.75 253.902344 C 287.75 255.40625 286.53125 256.628906 285.023438 256.628906 L 95.433594 256.628906 C 93.925781 256.628906 92.703125 255.40625 92.703125 253.902344 L 92.703125 253.894531 C 92.703125 252.386719 93.925781 251.164062 95.433594 251.164062 Z M 95.433594 251.164062 "/>
</g>
<mask id="mask14">
  <g filter="url(#alpha)">
<rect x="0" y="0" width="380" height="380" style="fill:rgb(0%,0%,0%);fill-opacity:0.4;stroke:none;"/>
  </g>
</mask>
<clipPath id="clip15">
  <rect x="0" y="0" width="380" height="380"/>
</clipPath>
<g id="surface47" clip-path="url(#clip15)">
<path style=" stroke:none;fill-rule:nonzero;fill:rgb(100%,100%,100%);fill-opacity:1;" d="M 283.84375 183.335938 L 303.019531 183.335938 C 303.976562 183.335938 304.753906 184.109375 304.753906 185.066406 L 304.753906 330.433594 C 304.753906 331.390625 303.976562 332.164062 303.019531 332.164062 L 283.84375 332.164062 C 282.886719 332.164062 282.113281 331.390625 282.113281 330.433594 L 282.113281 185.066406 C 282.113281 184.109375 282.886719 183.335938 283.84375 183.335938 Z M 283.84375 183.335938 "/>
</g>
<mask id="mask15">
  <g filter="url(#alpha)">
<rect x="0" y="0" width="380" height="380" style="fill:rgb(0%,0%,0%);fill-opacity:0.2;stroke:none;"/>
  </g>
</mask>
<clipPath id="clip16">
  <rect x="0" y="0" width="380" height="380"/>
</clipPath>
<g id="surface50" clip-path="url(#clip16)">
<path style=" stroke:none;fill-rule:nonzero;fill:rgb(0%,0%,0%);fill-opacity:1;" d="M 316.316406 284.851562 L 326.515625 284.296875 C 326.832031 284.277344 327.101562 284.519531 327.117188 284.832031 L 329.214844 323.347656 C 329.234375 323.660156 328.992188 323.929688 328.679688 323.945312 L 318.480469 324.503906 C 318.164062 324.519531 317.894531 324.277344 317.878906 323.964844 L 315.78125 285.453125 C 315.761719 285.136719 316.003906 284.867188 316.316406 284.851562 Z M 316.316406 284.851562 "/>
</g>
<mask id="mask16">
  <g filter="url(#alpha)">
<rect x="0" y="0" width="380" height="380" style="fill:rgb(0%,0%,0%);fill-opacity:0.2;stroke:none;"/>
  </g>
</mask>
<clipPath id="clip17">
  <rect x="0" y="0" width="380" height="380"/>
</clipPath>
<g id="surface53" clip-path="url(#clip17)">
<path style=" stroke:none;fill-rule:nonzero;fill:rgb(100%,100%,100%);fill-opacity:1;" d="M 67.175781 256.515625 L 59.144531 274.125 L 71.859375 280.441406 L 76.796875 270.179688 C 78.621094 266.917969 77.6875 262.132812 75.277344 259.257812 C 74.320312 258.097656 71.179688 255.574219 67.175781 256.515625 Z M 67.175781 256.515625 "/>
</g>
<mask id="mask17">
  <g filter="url(#alpha)">
<rect x="0" y="0" width="380" height="380" style="fill:rgb(0%,0%,0%);fill-opacity:0.4;stroke:none;"/>
  </g>
</mask>
<clipPath id="clip18">
  <rect x="0" y="0" width="380" height="380"/>
</clipPath>
<g id="surface56" clip-path="url(#clip18)">
<path style=" stroke:none;fill-rule:nonzero;fill:rgb(100%,100%,100%);fill-opacity:1;" d="M 89.042969 248.976562 C 89.042969 248.976562 102.320312 252.078125 105.609375 257.59375 C 108.902344 263.113281 108.777344 274.625 106.371094 287.578125 C 103.960938 300.527344 107.371094 301.421875 100.921875 306.75 C 94.46875 312.078125 66.136719 311.539062 63.726562 305.429688 C 61.734375 300.359375 70.164062 281.832031 68.386719 272.695312 C 66.605469 263.558594 63.777344 258.253906 69.386719 254.007812 C 74.996094 249.757812 89.042969 248.976562 89.042969 248.976562 Z M 89.042969 248.976562 "/>
</g>
<mask id="mask18">
  <g filter="url(#alpha)">
<rect x="0" y="0" width="380" height="380" style="fill:rgb(0%,0%,0%);fill-opacity:0.2;stroke:none;"/>
  </g>
</mask>
<clipPath id="clip19">
  <rect x="0" y="0" width="380" height="380"/>
</clipPath>
<g id="surface59" clip-path="url(#clip19)">
<path style=" stroke:none;fill-rule:nonzero;fill:rgb(0%,0%,0%);fill-opacity:1;" d="M 78.878906 246.894531 L 79.929688 249.628906 C 81.585938 248.648438 83.21875 246.742188 83.441406 244.847656 C 83.59375 243.480469 82.855469 242.296875 82.308594 242.28125 Z M 78.878906 246.894531 "/>
</g>
<mask id="mask19">
  <g filter="url(#alpha)">
<rect x="0" y="0" width="380" height="380" style="fill:rgb(0%,0%,0%);fill-opacity:0.2;stroke:none;"/>
  </g>
</mask>
<clipPath id="clip20">
  <rect x="0" y="0" width="380" height="380"/>
</clipPath>
<g id="surface62" clip-path="url(#clip20)">
<path style=" stroke:none;fill-rule:nonzero;fill:rgb(0%,0%,0%);fill-opacity:1;" d="M 86.9375 326.800781 C 79.730469 321.714844 68.515625 314.761719 56.535156 307.449219 C 66.15625 312.253906 72.671875 315.773438 77.4375 318.660156 C 83.136719 315.179688 91.117188 312.542969 97.8125 310.511719 C 91.96875 313.554688 84.019531 317.0625 78.765625 320.15625 C 84.792969 324.328125 86.835938 326.707031 86.9375 326.800781 Z M 86.9375 326.800781 "/>
</g>
<mask id="mask20">
  <g filter="url(#alpha)">
<rect x="0" y="0" width="380" height="380" style="fill:rgb(0%,0%,0%);fill-opacity:0.2;stroke:none;"/>
  </g>
</mask>
<clipPath id="clip21">
  <rect x="0" y="0" width="380" height="380"/>
</clipPath>
<g id="surface65" clip-path="url(#clip21)">
<path style=" stroke:none;fill-rule:nonzero;fill:rgb(0%,0%,0%);fill-opacity:1;" d="M 64.046875 285.988281 C 64.046875 285.988281 56.125 290.761719 54.644531 292.410156 C 54.644531 292.410156 60.238281 286.839844 64.585938 284.050781 Z M 64.046875 285.988281 "/>
</g>
<mask id="mask21">
  <g filter="url(#alpha)">
<rect x="0" y="0" width="380" height="380" style="fill:rgb(0%,0%,0%);fill-opacity:0.2;stroke:none;"/>
  </g>
</mask>
<clipPath id="clip22">
  <rect x="0" y="0" width="380" height="380"/>
</clipPath>
<g id="surface68" clip-path="url(#clip22)">
<path style=" stroke:none;fill-rule:nonzero;fill:rgb(100%,100%,100%);fill-opacity:1;" d="M 104.570312 256.386719 C 107.222656 258.78125 110.824219 265.507812 111.621094 278.78125 L 99.121094 279.542969 C 99.121094 279.542969 95.996094 267.726562 96.171875 260.894531 C 96.238281 258.332031 97.152344 256.84375 98.269531 255.992188 C 100.191406 254.59375 102.835938 254.761719 104.570312 256.386719 Z M 104.570312 256.386719 "/>
</g>
<mask id="mask22">
  <g filter="url(#alpha)">
<rect x="0" y="0" width="380" height="380" style="fill:rgb(0%,0%,0%);fill-opacity:0.2;stroke:none;"/>
  </g>
</mask>
<clipPath id="clip23">
  <rect x="0" y="0" width="380" height="380"/>
</clipPath>
<g id="surface71" clip-path="url(#clip23)">
<path style=" stroke:none;fill-rule:nonzero;fill:rgb(0%,0%,0%);fill-opacity:1;" d="M 75.679688 278.644531 L 76.78125 296.78125 L 65.582031 292.910156 L 64.425781 274.921875 Z M 75.679688 278.644531 "/>
</g>
</defs>
<g id="surface1">
<path style=" stroke:none;fill-rule:nonzero;fill:rgb(96.078431%,96.078431%,96.078431%);fill-opacity:1;" d="M 342.433594 333.480469 C 342.433594 329.277344 274.226562 325.871094 190.089844 325.871094 C 105.953125 325.871094 37.75 329.277344 37.75 333.480469 C 37.75 337.683594 105.953125 341.089844 190.089844 341.089844 C 274.226562 341.089844 342.433594 337.683594 342.433594 333.480469 Z M 342.433594 333.480469 "/>
<path style=" stroke:none;fill-rule:nonzero;fill:rgb(25.098039%,48.235294%,100%);fill-opacity:1;" d="M 263.574219 239.105469 L 118.558594 239.105469 L 118.558594 209.464844 C 118.558594 208.585938 118.90625 207.746094 119.523438 207.125 C 120.140625 206.507812 120.980469 206.15625 121.859375 206.15625 L 260.269531 206.15625 C 262.09375 206.15625 263.574219 207.636719 263.574219 209.464844 Z M 263.574219 239.105469 "/>
<use xlink:href="#surface5" mask="url(#mask0)"/>
<path style=" stroke:none;fill-rule:nonzero;fill:rgb(14.901961%,19.607843%,21.960784%);fill-opacity:1;" d="M 121.859375 154 L 260.308594 154 L 260.308594 239.097656 L 121.859375 239.097656 Z M 121.859375 154 "/>
<use xlink:href="#surface8" mask="url(#mask1)"/>
<use xlink:href="#surface11" mask="url(#mask2)"/>
<use xlink:href="#surface14" mask="url(#mask3)"/>
<use xlink:href="#surface17" mask="url(#mask4)"/>
<use xlink:href="#surface20" mask="url(#mask5)"/>
<use xlink:href="#surface23" mask="url(#mask6)"/>
<use xlink:href="#surface26" mask="url(#mask7)"/>
<use xlink:href="#surface29" mask="url(#mask8)"/>
<use xlink:href="#surface32" mask="url(#mask9)"/>
<path style=" stroke:none;fill-rule:nonzero;fill:rgb(25.098039%,48.235294%,100%);fill-opacity:1;" d="M 289.445312 332.164062 L 92.605469 332.164062 C 91.421875 332.167969 90.296875 331.648438 89.53125 330.75 C 88.761719 329.851562 88.421875 328.660156 88.609375 327.492188 L 89.011719 324.90625 L 89.09375 324.40625 L 101.253906 247.53125 C 101.300781 247.25 101.355469 246.96875 101.421875 246.695312 L 101.558594 246.203125 C 102.832031 241.984375 106.71875 239.097656 111.128906 239.105469 L 270.957031 239.105469 C 275.359375 239.121094 279.234375 242.019531 280.492188 246.238281 L 280.628906 246.734375 C 280.691406 247.007812 280.742188 247.289062 280.789062 247.570312 L 292.949219 324.445312 L 293.03125 324.945312 L 293.445312 327.53125 C 293.613281 328.691406 293.269531 329.871094 292.503906 330.761719 C 291.734375 331.648438 290.621094 332.164062 289.445312 332.164062 Z M 289.445312 332.164062 "/>
<path style=" stroke:none;fill-rule:nonzero;fill:rgb(14.901961%,19.607843%,21.960784%);fill-opacity:1;" d="M 293.03125 324.90625 L 88.980469 324.90625 L 89.0625 324.40625 L 292.949219 324.40625 Z M 293.03125 324.90625 "/>
<use xlink:href="#surface35" mask="url(#mask10)"/>
<path style=" stroke:none;fill-rule:nonzero;fill:rgb(100%,100%,100%);fill-opacity:1;" d="M 122.960938 279.839844 C 122.960938 281.816406 121.359375 283.417969 119.378906 283.417969 C 117.402344 283.417969 115.800781 281.816406 115.800781 279.839844 C 115.800781 277.863281 117.402344 276.261719 119.378906 276.261719 C 121.359375 276.261719 122.960938 277.863281 122.960938 279.839844 Z M 122.960938 279.839844 "/>
<path style=" stroke:none;fill-rule:nonzero;fill:rgb(100%,100%,100%);fill-opacity:1;" d="M 134.054688 279.839844 C 134.0625 281.820312 132.457031 283.429688 130.472656 283.433594 C 128.492188 283.4375 126.882812 281.832031 126.882812 279.851562 C 126.878906 277.867188 128.488281 276.261719 130.46875 276.261719 C 131.417969 276.257812 132.332031 276.632812 133.003906 277.304688 C 133.679688 277.976562 134.054688 278.890625 134.054688 279.839844 Z M 134.054688 279.839844 "/>
<path style=" stroke:none;fill-rule:nonzero;fill:rgb(100%,100%,100%);fill-opacity:1;" d="M 145.160156 279.839844 C 145.160156 281.816406 143.558594 283.417969 141.582031 283.417969 C 139.601562 283.417969 138 281.816406 138 279.839844 C 138 277.863281 139.601562 276.261719 141.582031 276.261719 C 143.558594 276.261719 145.160156 277.863281 145.160156 279.839844 Z M 145.160156 279.839844 "/>
<path style=" stroke:none;fill-rule:nonzero;fill:rgb(100%,100%,100%);fill-opacity:1;" d="M 156.234375 279.839844 C 156.234375 281.816406 154.628906 283.417969 152.652344 283.417969 C 150.675781 283.417969 149.074219 281.816406 149.074219 279.839844 C 149.074219 277.863281 150.675781 276.261719 152.652344 276.261719 C 154.628906 276.261719 156.234375 277.863281 156.234375 279.839844 Z M 156.234375 279.839844 "/>
<path style=" stroke:none;fill-rule:nonzero;fill:rgb(100%,100%,100%);fill-opacity:1;" d="M 167.328125 279.839844 C 167.332031 281.292969 166.460938 282.601562 165.117188 283.160156 C 163.777344 283.71875 162.230469 283.410156 161.207031 282.382812 C 160.179688 281.355469 159.871094 279.8125 160.429688 278.472656 C 160.988281 277.128906 162.296875 276.257812 163.75 276.261719 C 165.726562 276.261719 167.328125 277.863281 167.328125 279.839844 Z M 167.328125 279.839844 "/>
<path style=" stroke:none;fill-rule:nonzero;fill:rgb(100%,100%,100%);fill-opacity:1;" d="M 178.417969 279.839844 C 178.417969 281.816406 176.816406 283.417969 174.839844 283.417969 C 172.859375 283.417969 171.257812 281.816406 171.257812 279.839844 C 171.257812 277.863281 172.859375 276.261719 174.839844 276.261719 C 176.816406 276.261719 178.417969 277.863281 178.417969 279.839844 Z M 178.417969 279.839844 "/>
<path style=" stroke:none;fill-rule:nonzero;fill:rgb(100%,100%,100%);fill-opacity:1;" d="M 189.511719 279.839844 C 189.515625 281.292969 188.644531 282.601562 187.300781 283.160156 C 185.960938 283.71875 184.417969 283.410156 183.390625 282.382812 C 182.363281 281.355469 182.054688 279.8125 182.613281 278.472656 C 183.171875 277.128906 184.480469 276.257812 185.933594 276.261719 C 187.910156 276.261719 189.511719 277.863281 189.511719 279.839844 Z M 189.511719 279.839844 "/>
<path style=" stroke:none;fill-rule:nonzero;fill:rgb(100%,100%,100%);fill-opacity:1;" d="M 200.640625 279.839844 C 200.640625 281.816406 199.039062 283.417969 197.058594 283.417969 C 195.082031 283.417969 193.480469 281.816406 193.480469 279.839844 C 193.480469 277.863281 195.082031 276.261719 197.058594 276.261719 C 199.039062 276.261719 200.640625 277.863281 200.640625 279.839844 Z M 200.640625 279.839844 "/>
<path style=" stroke:none;fill-rule:nonzero;fill:rgb(100%,100%,100%);fill-opacity:1;" d="M 211.699219 279.839844 C 211.703125 281.820312 210.097656 283.429688 208.117188 283.433594 C 206.132812 283.4375 204.523438 281.832031 204.523438 279.851562 C 204.523438 277.867188 206.128906 276.261719 208.109375 276.261719 C 209.0625 276.257812 209.972656 276.632812 210.648438 277.304688 C 211.320312 277.976562 211.699219 278.890625 211.699219 279.839844 Z M 211.699219 279.839844 "/>
<path style=" stroke:none;fill-rule:nonzero;fill:rgb(100%,100%,100%);fill-opacity:1;" d="M 222.785156 279.839844 C 222.785156 281.816406 221.183594 283.417969 219.207031 283.417969 C 217.230469 283.417969 215.628906 281.816406 215.628906 279.839844 C 215.628906 277.863281 217.230469 276.261719 219.207031 276.261719 C 221.183594 276.261719 222.785156 277.863281 222.785156 279.839844 Z M 222.785156 279.839844 "/>
<path style=" stroke:none;fill-rule:nonzero;fill:rgb(100%,100%,100%);fill-opacity:1;" d="M 233.882812 279.839844 C 233.886719 281.820312 232.285156 283.429688 230.304688 283.433594 C 228.324219 283.441406 226.714844 281.839844 226.707031 279.859375 C 226.699219 277.878906 228.300781 276.269531 230.28125 276.261719 C 231.234375 276.253906 232.148438 276.628906 232.824219 277.300781 C 233.503906 277.972656 233.882812 278.886719 233.882812 279.839844 Z M 233.882812 279.839844 "/>
<path style=" stroke:none;fill-rule:nonzero;fill:rgb(100%,100%,100%);fill-opacity:1;" d="M 244.972656 279.839844 C 244.972656 281.292969 244.101562 282.601562 242.761719 283.160156 C 241.417969 283.71875 239.875 283.410156 238.847656 282.382812 C 237.820312 281.355469 237.515625 279.8125 238.070312 278.472656 C 238.628906 277.128906 239.9375 276.257812 241.390625 276.261719 C 243.367188 276.261719 244.972656 277.863281 244.972656 279.839844 Z M 244.972656 279.839844 "/>
<path style=" stroke:none;fill-rule:nonzero;fill:rgb(100%,100%,100%);fill-opacity:1;" d="M 256.058594 279.839844 C 256.058594 281.816406 254.457031 283.417969 252.480469 283.417969 C 250.503906 283.417969 248.898438 281.816406 248.898438 279.839844 C 248.898438 277.863281 250.503906 276.261719 252.480469 276.261719 C 254.457031 276.261719 256.058594 277.863281 256.058594 279.839844 Z M 256.058594 279.839844 "/>
<path style=" stroke:none;fill-rule:nonzero;fill:rgb(100%,100%,100%);fill-opacity:1;" d="M 267.15625 279.839844 C 267.160156 281.292969 266.285156 282.601562 264.945312 283.160156 C 263.601562 283.71875 262.058594 283.410156 261.03125 282.382812 C 260.003906 281.355469 259.699219 279.8125 260.253906 278.472656 C 260.8125 277.128906 262.125 276.257812 263.574219 276.261719 C 265.550781 276.261719 267.15625 277.863281 267.15625 279.839844 Z M 267.15625 279.839844 "/>
<path style=" stroke:none;fill-rule:nonzero;fill:rgb(100%,100%,100%);fill-opacity:1;" d="M 122.960938 291.871094 C 122.960938 293.847656 121.359375 295.449219 119.378906 295.449219 C 117.402344 295.449219 115.800781 293.847656 115.800781 291.871094 C 115.800781 289.894531 117.402344 288.289062 119.378906 288.289062 C 121.359375 288.289062 122.960938 289.894531 122.960938 291.871094 Z M 122.960938 291.871094 "/>
<path style=" stroke:none;fill-rule:nonzero;fill:rgb(100%,100%,100%);fill-opacity:1;" d="M 134.046875 291.871094 C 134.046875 293.847656 132.445312 295.449219 130.46875 295.449219 C 128.492188 295.449219 126.890625 293.847656 126.890625 291.871094 C 126.890625 289.894531 128.492188 288.289062 130.46875 288.289062 C 132.445312 288.289062 134.046875 289.894531 134.046875 291.871094 Z M 134.046875 291.871094 "/>
<path style=" stroke:none;fill-rule:nonzero;fill:rgb(100%,100%,100%);fill-opacity:1;" d="M 145.160156 291.839844 C 145.15625 293.816406 143.550781 295.414062 141.574219 295.410156 C 139.597656 295.410156 138 293.804688 138 291.828125 C 138.003906 289.855469 139.605469 288.253906 141.582031 288.253906 C 142.53125 288.253906 143.441406 288.632812 144.113281 289.304688 C 144.785156 289.976562 145.160156 290.890625 145.160156 291.839844 Z M 145.160156 291.839844 "/>
<path style=" stroke:none;fill-rule:nonzero;fill:rgb(100%,100%,100%);fill-opacity:1;" d="M 156.234375 291.839844 C 156.230469 293.816406 154.625 295.414062 152.648438 295.410156 C 150.671875 295.410156 149.074219 293.804688 149.074219 291.828125 C 149.074219 289.855469 150.675781 288.253906 152.652344 288.253906 C 153.605469 288.253906 154.515625 288.632812 155.1875 289.304688 C 155.859375 289.976562 156.234375 290.890625 156.234375 291.839844 Z M 156.234375 291.839844 "/>
<path style=" stroke:none;fill-rule:nonzero;fill:rgb(100%,100%,100%);fill-opacity:1;" d="M 167.328125 291.871094 C 167.328125 293.847656 165.726562 295.449219 163.75 295.449219 C 161.773438 295.449219 160.171875 293.847656 160.171875 291.871094 C 160.171875 289.894531 161.773438 288.289062 163.75 288.289062 C 165.726562 288.289062 167.328125 289.894531 167.328125 291.871094 Z M 167.328125 291.871094 "/>
<path style=" stroke:none;fill-rule:nonzero;fill:rgb(100%,100%,100%);fill-opacity:1;" d="M 178.417969 291.871094 C 178.417969 293.847656 176.816406 295.449219 174.839844 295.449219 C 172.859375 295.449219 171.257812 293.847656 171.257812 291.871094 C 171.257812 289.894531 172.859375 288.289062 174.839844 288.289062 C 176.816406 288.289062 178.417969 289.894531 178.417969 291.871094 Z M 178.417969 291.871094 "/>
<path style=" stroke:none;fill-rule:nonzero;fill:rgb(100%,100%,100%);fill-opacity:1;" d="M 189.511719 291.839844 C 189.511719 293.820312 187.90625 295.429688 185.925781 295.425781 C 183.941406 295.425781 182.335938 293.816406 182.339844 291.835938 C 182.34375 289.851562 183.953125 288.25 185.933594 288.253906 C 186.882812 288.253906 187.796875 288.632812 188.46875 289.304688 C 189.140625 289.976562 189.515625 290.890625 189.511719 291.839844 Z M 189.511719 291.839844 "/>
<path style=" stroke:none;fill-rule:nonzero;fill:rgb(100%,100%,100%);fill-opacity:1;" d="M 200.640625 291.839844 C 200.636719 293.816406 199.03125 295.414062 197.054688 295.410156 C 195.078125 295.410156 193.480469 293.804688 193.480469 291.828125 C 193.480469 289.855469 195.085938 288.253906 197.058594 288.253906 C 198.011719 288.253906 198.921875 288.632812 199.59375 289.304688 C 200.265625 289.976562 200.640625 290.890625 200.640625 291.839844 Z M 200.640625 291.839844 "/>
<path style=" stroke:none;fill-rule:nonzero;fill:rgb(100%,100%,100%);fill-opacity:1;" d="M 211.691406 291.871094 C 211.691406 293.847656 210.085938 295.449219 208.109375 295.449219 C 206.132812 295.449219 204.53125 293.847656 204.53125 291.871094 C 204.53125 289.894531 206.132812 288.289062 208.109375 288.289062 C 210.085938 288.289062 211.691406 289.894531 211.691406 291.871094 Z M 211.691406 291.871094 "/>
<path style=" stroke:none;fill-rule:nonzero;fill:rgb(100%,100%,100%);fill-opacity:1;" d="M 222.785156 291.871094 C 222.785156 293.847656 221.183594 295.449219 219.207031 295.449219 C 217.230469 295.449219 215.628906 293.847656 215.628906 291.871094 C 215.628906 289.894531 217.230469 288.289062 219.207031 288.289062 C 221.183594 288.289062 222.785156 289.894531 222.785156 291.871094 Z M 222.785156 291.871094 "/>
<path style=" stroke:none;fill-rule:nonzero;fill:rgb(100%,100%,100%);fill-opacity:1;" d="M 233.882812 291.839844 C 233.882812 293.820312 232.277344 295.425781 230.296875 295.425781 C 228.3125 295.425781 226.707031 293.820312 226.707031 291.839844 C 226.707031 289.859375 228.3125 288.253906 230.296875 288.253906 C 231.246094 288.25 232.160156 288.628906 232.832031 289.300781 C 233.507812 289.972656 233.882812 290.886719 233.882812 291.839844 Z M 233.882812 291.839844 "/>
<path style=" stroke:none;fill-rule:nonzero;fill:rgb(100%,100%,100%);fill-opacity:1;" d="M 244.972656 291.839844 C 244.972656 293.820312 243.363281 295.429688 241.382812 295.425781 C 239.398438 295.425781 237.792969 293.816406 237.796875 291.835938 C 237.800781 289.851562 239.410156 288.25 241.390625 288.253906 C 242.34375 288.253906 243.253906 288.632812 243.925781 289.304688 C 244.597656 289.976562 244.972656 290.890625 244.972656 291.839844 Z M 244.972656 291.839844 "/>
<path style=" stroke:none;fill-rule:nonzero;fill:rgb(100%,100%,100%);fill-opacity:1;" d="M 256.058594 291.871094 C 256.058594 293.847656 254.457031 295.449219 252.480469 295.449219 C 250.503906 295.449219 248.898438 293.847656 248.898438 291.871094 C 248.898438 289.894531 250.503906 288.289062 252.480469 288.289062 C 254.457031 288.289062 256.058594 289.894531 256.058594 291.871094 Z M 256.058594 291.871094 "/>
<path style=" stroke:none;fill-rule:nonzero;fill:rgb(100%,100%,100%);fill-opacity:1;" d="M 267.15625 291.871094 C 267.15625 293.847656 265.550781 295.449219 263.574219 295.449219 C 261.597656 295.449219 259.996094 293.847656 259.996094 291.871094 C 259.996094 289.894531 261.597656 288.289062 263.574219 288.289062 C 265.550781 288.289062 267.15625 289.894531 267.15625 291.871094 Z M 267.15625 291.871094 "/>
<path style=" stroke:none;fill-rule:nonzero;fill:rgb(100%,100%,100%);fill-opacity:1;" d="M 145.160156 303.894531 C 145.160156 305.871094 143.558594 307.472656 141.582031 307.472656 C 139.601562 307.472656 138 305.871094 138 303.894531 C 138 301.917969 139.601562 300.3125 141.582031 300.3125 C 143.558594 300.3125 145.160156 301.917969 145.160156 303.894531 Z M 145.160156 303.894531 "/>
<path style=" stroke:none;fill-rule:nonzero;fill:rgb(100%,100%,100%);fill-opacity:1;" d="M 244.972656 303.894531 C 244.972656 305.347656 244.101562 306.65625 242.761719 307.214844 C 241.417969 307.769531 239.875 307.464844 238.847656 306.4375 C 237.820312 305.410156 237.515625 303.867188 238.070312 302.523438 C 238.628906 301.183594 239.9375 300.3125 241.390625 300.3125 C 243.367188 300.3125 244.972656 301.917969 244.972656 303.894531 Z M 244.972656 303.894531 "/>
<path style=" stroke:none;fill-rule:nonzero;fill:rgb(100%,100%,100%);fill-opacity:1;" d="M 155.738281 301.285156 L 230.023438 301.285156 C 231.726562 301.285156 233.105469 302.667969 233.105469 304.371094 L 233.105469 304.386719 C 233.105469 306.089844 231.726562 307.472656 230.023438 307.472656 L 155.738281 307.472656 C 154.035156 307.472656 152.652344 306.089844 152.652344 304.386719 L 152.652344 304.371094 C 152.652344 302.667969 154.035156 301.285156 155.738281 301.285156 Z M 155.738281 301.285156 "/>
<path style=" stroke:none;fill-rule:nonzero;fill:rgb(14.901961%,19.607843%,21.960784%);fill-opacity:1;" d="M 280.628906 246.695312 L 101.390625 246.695312 L 101.527344 246.203125 L 280.492188 246.203125 Z M 280.628906 246.695312 "/>
<path style=" stroke:none;fill-rule:nonzero;fill:rgb(14.901961%,19.607843%,21.960784%);fill-opacity:1;" d="M 111.984375 234.074219 L 111.292969 239.105469 L 174.988281 239.105469 L 174.988281 234.074219 Z M 111.984375 234.074219 "/>
<path style=" stroke:none;fill-rule:nonzero;fill:rgb(14.901961%,19.607843%,21.960784%);fill-opacity:1;" d="M 207.023438 234.074219 L 207.023438 239.105469 L 270.726562 239.105469 L 270.035156 234.074219 Z M 207.023438 234.074219 "/>
<path style=" stroke:none;fill-rule:nonzero;fill:rgb(14.901961%,19.607843%,21.960784%);fill-opacity:1;" d="M 255.085938 234.078125 L 254.328125 234.078125 L 254.328125 220.105469 C 254.328125 219.148438 253.554688 218.375 252.601562 218.371094 L 129.421875 218.371094 C 128.464844 218.375 127.695312 219.148438 127.695312 220.105469 L 127.695312 234.078125 L 126.933594 234.078125 L 126.933594 220.105469 C 126.933594 218.726562 128.050781 217.609375 129.429688 217.609375 L 252.601562 217.609375 C 253.976562 217.613281 255.085938 218.730469 255.085938 220.105469 Z M 255.085938 234.078125 "/>
<path style=" stroke:none;fill-rule:nonzero;fill:rgb(25.098039%,48.235294%,100%);fill-opacity:1;" d="M 133.507812 216 L 157.097656 216 L 157.097656 219.988281 L 133.507812 219.988281 Z M 133.507812 216 "/>
<path style=" stroke:none;fill-rule:nonzero;fill:rgb(25.098039%,48.235294%,100%);fill-opacity:1;" d="M 225.097656 216 L 248.6875 216 L 248.6875 219.988281 L 225.097656 219.988281 Z M 225.097656 216 "/>
<path style=" stroke:none;fill-rule:nonzero;fill:rgb(25.098039%,48.235294%,100%);fill-opacity:1;" d="M 194.515625 229.929688 L 194.515625 239.105469 L 185.515625 239.105469 L 185.515625 229.929688 L 188.90625 229.929688 L 188.90625 232.300781 L 191.117188 232.300781 L 191.117188 229.929688 Z M 194.515625 229.929688 "/>
<use xlink:href="#surface38" mask="url(#mask11)"/>
<path style=" stroke:none;fill-rule:nonzero;fill:rgb(14.901961%,19.607843%,21.960784%);fill-opacity:1;" d="M 106.527344 223.441406 L 121.859375 223.441406 L 121.859375 228.355469 L 106.527344 228.355469 Z M 106.527344 223.441406 "/>
<use xlink:href="#surface41" mask="url(#mask12)"/>
<path style=" stroke:none;fill-rule:nonzero;fill:rgb(25.098039%,48.235294%,100%);fill-opacity:1;" d="M 106.527344 220.316406 L 112.65625 220.316406 L 112.65625 231.746094 L 106.527344 231.746094 Z M 106.527344 220.316406 "/>
<path style=" stroke:none;fill-rule:nonzero;fill:rgb(25.098039%,48.235294%,100%);fill-opacity:1;" d="M 95.433594 251.164062 L 285.023438 251.164062 C 286.53125 251.164062 287.75 252.386719 287.75 253.894531 L 287.75 253.902344 C 287.75 255.40625 286.53125 256.628906 285.023438 256.628906 L 95.433594 256.628906 C 93.925781 256.628906 92.703125 255.40625 92.703125 253.902344 L 92.703125 253.894531 C 92.703125 252.386719 93.925781 251.164062 95.433594 251.164062 Z M 95.433594 251.164062 "/>
<use xlink:href="#surface44" mask="url(#mask13)"/>
<path style=" stroke:none;fill-rule:nonzero;fill:rgb(14.901961%,19.607843%,21.960784%);fill-opacity:1;" d="M 114.167969 264.753906 C 114.167969 266.015625 113.144531 267.042969 111.878906 267.042969 C 110.617188 267.042969 109.59375 266.015625 109.59375 264.753906 C 109.59375 263.488281 110.617188 262.464844 111.878906 262.464844 C 113.144531 262.464844 114.167969 263.488281 114.167969 264.753906 Z M 114.167969 264.753906 "/>
<path style=" stroke:none;fill-rule:nonzero;fill:rgb(14.901961%,19.607843%,21.960784%);fill-opacity:1;" d="M 121.667969 264.753906 C 121.667969 266.015625 120.644531 267.042969 119.378906 267.042969 C 118.117188 267.042969 117.09375 266.015625 117.09375 264.753906 C 117.09375 263.488281 118.117188 262.464844 119.378906 262.464844 C 120.644531 262.464844 121.667969 263.488281 121.667969 264.753906 Z M 121.667969 264.753906 "/>
<path style=" stroke:none;fill-rule:nonzero;fill:rgb(25.098039%,48.235294%,100%);fill-opacity:1;" d="M 283.835938 183.335938 L 303.011719 183.335938 C 303.96875 183.335938 304.746094 184.109375 304.746094 185.066406 L 304.746094 330.433594 C 304.746094 331.390625 303.96875 332.164062 303.011719 332.164062 L 283.835938 332.164062 C 282.878906 332.164062 282.105469 331.390625 282.105469 330.433594 L 282.105469 185.066406 C 282.105469 184.109375 282.878906 183.335938 283.835938 183.335938 Z M 283.835938 183.335938 "/>
<use xlink:href="#surface47" mask="url(#mask14)"/>
<path style=" stroke:none;fill-rule:nonzero;fill:rgb(14.901961%,19.607843%,21.960784%);fill-opacity:1;" d="M 282.113281 203.527344 L 304.753906 203.527344 L 304.753906 205.632812 L 282.113281 205.632812 Z M 282.113281 203.527344 "/>
<path style=" stroke:none;fill-rule:nonzero;fill:rgb(14.901961%,19.607843%,21.960784%);fill-opacity:1;" d="M 282.113281 313.265625 L 304.753906 313.265625 L 304.753906 321.699219 L 282.113281 321.699219 Z M 282.113281 313.265625 "/>
<path style=" stroke:none;fill-rule:nonzero;fill:rgb(14.901961%,19.607843%,21.960784%);fill-opacity:1;" d="M 282.113281 306.828125 L 304.753906 306.828125 L 304.753906 308.933594 L 282.113281 308.933594 Z M 282.113281 306.828125 "/>
<path style=" stroke:none;fill-rule:nonzero;fill:rgb(25.098039%,48.235294%,100%);fill-opacity:1;" d="M 332.589844 331.15625 L 314.175781 332.058594 C 313.621094 332.089844 313.078125 331.894531 312.664062 331.519531 C 312.25 331.148438 312.003906 330.625 311.980469 330.066406 L 305.582031 200.375 L 305.472656 198.328125 L 305.328125 195.289062 L 305.230469 193.246094 L 304.851562 185.605469 C 304.796875 184.449219 305.6875 183.46875 306.84375 183.410156 L 325.265625 182.5 C 325.820312 182.46875 326.363281 182.664062 326.777344 183.039062 C 327.1875 183.410156 327.4375 183.933594 327.460938 184.488281 L 327.839844 192.128906 L 327.941406 194.171875 L 328.085938 197.210938 L 328.191406 199.257812 L 334.589844 328.957031 C 334.640625 330.117188 333.75 331.097656 332.589844 331.15625 Z M 332.589844 331.15625 "/>
<use xlink:href="#surface50" mask="url(#mask15)"/>
<path style=" stroke:none;fill-rule:nonzero;fill:rgb(14.901961%,19.607843%,21.960784%);fill-opacity:1;" d="M 327.941406 194.179688 L 305.328125 195.289062 L 305.230469 193.253906 L 327.839844 192.136719 Z M 327.941406 194.179688 "/>
<path style=" stroke:none;fill-rule:nonzero;fill:rgb(14.901961%,19.607843%,21.960784%);fill-opacity:1;" d="M 328.191406 199.25 L 305.582031 200.375 L 305.472656 198.328125 L 328.085938 197.210938 Z M 328.191406 199.25 "/>
<path style=" stroke:none;fill-rule:nonzero;fill:rgb(25.098039%,48.235294%,100%);fill-opacity:1;" d="M 67.175781 256.515625 L 59.144531 274.125 L 71.859375 280.441406 L 76.796875 270.179688 C 78.621094 266.917969 77.6875 262.132812 75.277344 259.257812 C 74.320312 258.097656 71.179688 255.574219 67.175781 256.515625 Z M 67.175781 256.515625 "/>
<use xlink:href="#surface53" mask="url(#mask16)"/>
<path style=" stroke:none;fill-rule:nonzero;fill:rgb(25.098039%,48.235294%,100%);fill-opacity:1;" d="M 89.042969 248.976562 C 89.042969 248.976562 102.320312 252.078125 105.609375 257.59375 C 108.902344 263.113281 108.777344 274.625 106.371094 287.578125 C 103.960938 300.527344 107.371094 301.421875 100.921875 306.75 C 94.46875 312.078125 66.136719 311.539062 63.726562 305.429688 C 61.734375 300.359375 70.164062 281.832031 68.386719 272.695312 C 66.605469 263.558594 63.777344 258.253906 69.386719 254.007812 C 74.996094 249.757812 89.042969 248.976562 89.042969 248.976562 Z M 89.042969 248.976562 "/>
<use xlink:href="#surface56" mask="url(#mask17)"/>
<path style=" stroke:none;fill-rule:nonzero;fill:rgb(14.901961%,19.607843%,21.960784%);fill-opacity:1;" d="M 73.410156 222.519531 C 72.046875 221.601562 68.390625 222.34375 67.191406 225.019531 C 65.90625 227.871094 64.609375 232.894531 62.835938 232.058594 C 63.609375 233.328125 65.085938 233.984375 66.546875 233.707031 C 66.546875 233.707031 65.414062 235.722656 63.324219 235.5625 C 64.46875 237.355469 66.53125 238.339844 68.644531 238.101562 C 72.101562 237.804688 74.511719 227.164062 74.882812 225.421875 C 74.480469 223.699219 74.382812 223.796875 73.410156 222.519531 Z M 73.410156 222.519531 "/>
<path style=" stroke:none;fill-rule:nonzero;fill:rgb(14.901961%,19.607843%,21.960784%);fill-opacity:1;" d="M 75.582031 222.460938 C 78.460938 221.410156 81.648438 221.601562 84.382812 222.992188 C 86.160156 223.917969 87.695312 225.332031 87.660156 227.460938 C 87.398438 231.894531 86.890625 236.308594 86.136719 240.683594 L 69.417969 233.085938 C 69.417969 233.085938 68.292969 228.523438 70.042969 225.773438 C 71 224.34375 73.445312 223.210938 75.582031 222.460938 Z M 75.582031 222.460938 "/>
<path style=" stroke:none;fill-rule:nonzero;fill:rgb(14.901961%,19.607843%,21.960784%);fill-opacity:1;" d="M 72.960938 222.808594 C 72.960938 222.808594 77.019531 218.195312 84.632812 221.503906 C 92.25 224.808594 87.773438 235.066406 87.773438 235.066406 C 87.773438 235.066406 86.59375 239.414062 88.644531 239.941406 C 88.042969 240.351562 87.359375 240.632812 86.640625 240.769531 C 86.640625 240.769531 87.542969 241.792969 88.328125 241.527344 C 88.328125 241.527344 87.308594 242.234375 85.105469 241.808594 C 82.902344 241.382812 72.960938 222.808594 72.960938 222.808594 Z M 72.960938 222.808594 "/>
<path style=" stroke:none;fill-rule:nonzero;fill:rgb(100%,70.980392%,45.098039%);fill-opacity:1;" d="M 78.851562 246.824219 L 78.851562 246.886719 L 79.898438 249.621094 C 80.117188 250.636719 80.164062 251.683594 80.042969 252.714844 C 79.738281 253.777344 79.792969 255.609375 81.632812 255.359375 C 84.398438 254.988281 89.078125 250.472656 89.132812 249.226562 C 87.4375 245.5625 85.886719 241.230469 85.707031 237.582031 L 82.902344 241.382812 Z M 78.851562 246.824219 "/>
<use xlink:href="#surface59" mask="url(#mask18)"/>
<path style=" stroke:none;fill-rule:nonzero;fill:rgb(100%,70.980392%,45.098039%);fill-opacity:1;" d="M 71.210938 241.734375 C 71.441406 242.332031 71.691406 242.917969 71.972656 243.488281 C 74.253906 248.566406 80.832031 248.34375 84.453125 244.042969 C 84.78125 243.652344 85.078125 243.234375 85.339844 242.796875 C 87.542969 239.148438 86.625 236.625 85.605469 230.78125 C 85.160156 228.011719 83.308594 225.671875 80.71875 224.601562 C 78.125 223.527344 75.164062 223.878906 72.890625 225.523438 C 68.253906 228.804688 68.902344 235.78125 71.210938 241.734375 Z M 71.210938 241.734375 "/>
<path style=" stroke:none;fill-rule:nonzero;fill:rgb(14.901961%,19.607843%,21.960784%);fill-opacity:1;" d="M 77.519531 236.019531 C 77.632812 236.472656 77.519531 236.90625 77.1875 236.992188 C 76.851562 237.074219 76.546875 236.753906 76.425781 236.300781 C 76.304688 235.84375 76.425781 235.402344 76.753906 235.328125 C 77.078125 235.25 77.390625 235.5625 77.511719 236.019531 "/>
<path style=" stroke:none;fill-rule:nonzero;fill:rgb(14.901961%,19.607843%,21.960784%);fill-opacity:1;" d="M 72.710938 237.179688 C 72.832031 237.644531 72.710938 238.078125 72.382812 238.152344 C 72.054688 238.230469 71.742188 237.917969 71.621094 237.460938 C 71.5 237.007812 71.621094 236.574219 71.957031 236.496094 C 72.292969 236.421875 72.59375 236.726562 72.71875 237.179688 "/>
<path style=" stroke:none;fill-rule:nonzero;fill:rgb(14.901961%,19.607843%,21.960784%);fill-opacity:1;" d="M 76.667969 242.195312 L 76.507812 242.195312 C 76.40625 242.195312 76.324219 242.117188 76.320312 242.015625 C 76.320312 241.914062 76.402344 241.832031 76.5 241.832031 C 77.21875 241.808594 77.898438 241.492188 78.378906 240.957031 C 78.859375 240.421875 79.101562 239.714844 79.046875 238.996094 C 79.046875 238.894531 79.128906 238.816406 79.230469 238.816406 C 79.332031 238.816406 79.414062 238.894531 79.414062 238.996094 C 79.503906 240.628906 78.292969 242.039062 76.667969 242.195312 Z M 76.667969 242.195312 "/>
<path style=" stroke:none;fill-rule:nonzero;fill:rgb(14.901961%,19.607843%,21.960784%);fill-opacity:1;" d="M 85.71875 231.296875 C 85.71875 231.296875 83.957031 231.570312 84.039062 233.097656 C 84.125 234.628906 84.300781 234.808594 84.300781 234.808594 L 82.246094 235.472656 C 82.246094 235.472656 82.246094 229.609375 80.726562 229.847656 C 79.207031 230.082031 80.589844 227.292969 79.632812 227.011719 C 77.351562 226.351562 71.460938 226.914062 69.554688 230.707031 C 69.761719 228.511719 70.765625 226.464844 72.375 224.960938 C 74.980469 222.777344 80.574219 221.789062 83.144531 224.320312 C 85.710938 226.851562 85.71875 231.296875 85.71875 231.296875 Z M 85.71875 231.296875 "/>
<path style=" stroke:none;fill-rule:nonzero;fill:rgb(100%,70.980392%,45.098039%);fill-opacity:1;" d="M 88.988281 234.011719 C 88.90625 235.503906 88.242188 236.902344 87.132812 237.902344 C 85.660156 239.210938 84.054688 238.101562 83.746094 236.253906 C 83.464844 234.589844 83.890625 231.90625 85.71875 231.296875 C 86.539062 231.046875 87.429688 231.226562 88.085938 231.773438 C 88.746094 232.320312 89.085938 233.160156 88.988281 234.011719 "/>
<path style=" stroke:none;fill-rule:nonzero;fill:rgb(14.901961%,19.607843%,21.960784%);fill-opacity:1;" d="M 70.253906 235.457031 C 70.335938 235.4375 70.402344 235.375 70.421875 235.296875 C 70.5 234.976562 70.703125 234.703125 70.984375 234.535156 C 71.285156 234.394531 71.628906 234.367188 71.949219 234.460938 C 72.074219 234.5 72.207031 234.433594 72.246094 234.308594 C 72.285156 234.183594 72.21875 234.050781 72.09375 234.011719 C 71.652344 233.878906 71.175781 233.921875 70.761719 234.125 C 70.375 234.363281 70.097656 234.75 70.003906 235.195312 C 69.984375 235.257812 69.992188 235.320312 70.023438 235.375 C 70.050781 235.429688 70.101562 235.46875 70.164062 235.484375 C 70.195312 235.484375 70.226562 235.472656 70.253906 235.457031 Z M 70.253906 235.457031 "/>
<path style=" stroke:none;fill-rule:nonzero;fill:rgb(14.901961%,19.607843%,21.960784%);fill-opacity:1;" d="M 78.878906 233.625 C 78.917969 233.613281 78.949219 233.597656 78.980469 233.570312 C 79.078125 233.46875 79.078125 233.308594 78.980469 233.207031 C 78.625 232.839844 78.148438 232.617188 77.640625 232.582031 C 77.128906 232.585938 76.640625 232.804688 76.296875 233.183594 C 76.222656 233.246094 76.191406 233.34375 76.210938 233.4375 C 76.234375 233.53125 76.304688 233.605469 76.398438 233.628906 C 76.488281 233.652344 76.589844 233.625 76.652344 233.554688 C 76.902344 233.277344 77.253906 233.117188 77.625 233.105469 C 77.992188 233.140625 78.335938 233.296875 78.597656 233.554688 C 78.667969 233.636719 78.78125 233.664062 78.878906 233.625 Z M 78.878906 233.625 "/>
<path style=" stroke:none;fill-rule:nonzero;fill:rgb(92.941176%,53.72549%,24.313725%);fill-opacity:1;" d="M 74.152344 235.683594 C 74.128906 236.695312 73.804688 237.679688 73.226562 238.511719 C 72.285156 239.78125 74.8125 240.105469 74.8125 240.105469 Z M 74.152344 235.683594 "/>
<path style=" stroke:none;fill-rule:nonzero;fill:rgb(14.901961%,19.607843%,21.960784%);fill-opacity:1;" d="M 84.664062 307.480469 C 84.664062 307.480469 44.382812 286.414062 38.972656 302.109375 C 34.640625 314.640625 63.132812 332.257812 87.824219 333.570312 Z M 84.664062 307.480469 "/>
<path style=" stroke:none;fill-rule:nonzero;fill:rgb(100%,70.980392%,45.098039%);fill-opacity:1;" d="M 64.546875 327.234375 L 74.039062 326.832031 L 70.222656 331.839844 L 61.050781 332.417969 Z M 64.546875 327.234375 "/>
<path style=" stroke:none;fill-rule:nonzero;fill:rgb(25.098039%,48.235294%,100%);fill-opacity:1;" d="M 67.109375 326.890625 C 67.109375 326.890625 60.480469 325.058594 57.761719 326.550781 C 53.488281 328.882812 46.292969 332.058594 47.121094 335.554688 C 47.949219 339.050781 62.722656 332.972656 62.722656 332.972656 Z M 67.109375 326.890625 "/>
<path style=" stroke:none;fill-rule:nonzero;fill:rgb(25.098039%,48.235294%,100%);fill-opacity:1;" d="M 64.386719 329.078125 C 64.386719 329.078125 66.667969 329.238281 66.15625 330.980469 C 65.648438 332.71875 62.699219 332.972656 62.699219 332.972656 Z M 64.386719 329.078125 "/>
<path style=" stroke:none;fill-rule:nonzero;fill:rgb(14.901961%,19.607843%,21.960784%);fill-opacity:1;" d="M 77.785156 306.765625 C 77.785156 306.765625 121.449219 288.0625 123.234375 305.914062 C 124.554688 319.078125 97.308594 330.804688 67.753906 332.949219 Z M 77.785156 306.765625 "/>
<use xlink:href="#surface62" mask="url(#mask19)"/>
<path style=" stroke:none;fill-rule:nonzero;fill:rgb(100%,70.980392%,45.098039%);fill-opacity:1;" d="M 91.292969 327.855469 L 87.195312 328.378906 L 87.757812 333 L 95.054688 332.84375 Z M 91.292969 327.855469 "/>
<path style=" stroke:none;fill-rule:nonzero;fill:rgb(25.098039%,48.235294%,100%);fill-opacity:1;" d="M 88.714844 327.652344 C 88.714844 327.652344 95.226562 325.46875 98.039062 326.800781 C 102.425781 328.898438 109.78125 331.679688 109.167969 335.222656 C 108.550781 338.761719 93.441406 333.472656 93.441406 333.472656 Z M 88.714844 327.652344 "/>
<path style=" stroke:none;fill-rule:nonzero;fill:rgb(25.098039%,48.235294%,100%);fill-opacity:1;" d="M 91.542969 329.6875 C 91.542969 329.6875 89.316406 329.96875 89.878906 331.679688 C 90.441406 333.390625 93.433594 333.480469 93.433594 333.480469 Z M 91.542969 329.6875 "/>
<path style=" stroke:none;fill-rule:nonzero;fill:rgb(100%,70.980392%,45.098039%);fill-opacity:1;" d="M 108.679688 269.117188 C 109.683594 273.507812 110.480469 277.839844 111.082031 282.285156 C 111.394531 284.507812 111.636719 286.742188 111.839844 289.011719 C 112.042969 291.363281 112.125 293.722656 112.085938 296.082031 C 112.085938 296.710938 112.015625 297.363281 111.941406 298.070312 C 111.851562 298.941406 111.671875 299.800781 111.410156 300.632812 C 111.363281 300.761719 111.316406 300.90625 111.242188 301.082031 C 111.164062 301.257812 111.121094 301.378906 111.011719 301.589844 C 110.90625 301.804688 110.816406 301.964844 110.664062 302.199219 L 110.40625 302.554688 C 110.308594 302.683594 110.207031 302.804688 110.09375 302.921875 C 109.964844 303.058594 109.828125 303.195312 109.683594 303.324219 L 109.449219 303.519531 L 109.105469 303.75 C 108.695312 304.011719 108.25 304.210938 107.78125 304.34375 C 107.226562 304.484375 106.648438 304.542969 106.074219 304.507812 C 105.46875 304.464844 104.875 304.347656 104.300781 304.152344 C 103.914062 304.023438 103.535156 303.875 103.164062 303.703125 C 102.003906 303.152344 100.886719 302.519531 99.820312 301.8125 C 98.824219 301.164062 97.886719 300.480469 96.96875 299.804688 C 93.390625 297.097656 89.972656 294.183594 86.730469 291.078125 L 89.71875 287.203125 C 93.425781 289.414062 97.195312 291.65625 100.898438 293.6875 C 101.824219 294.1875 102.757812 294.660156 103.65625 295.101562 C 104.472656 295.511719 105.320312 295.863281 106.1875 296.148438 C 106.320312 296.1875 106.457031 296.21875 106.597656 296.242188 C 106.671875 296.242188 106.71875 296.242188 106.429688 296.1875 C 106.132812 296.167969 105.832031 296.195312 105.542969 296.277344 C 105.203125 296.367188 104.882812 296.507812 104.589844 296.695312 C 104.5 296.75 104.414062 296.8125 104.332031 296.878906 L 104.171875 297.007812 C 104.078125 297.082031 103.988281 297.167969 103.90625 297.257812 C 103.675781 297.507812 103.480469 297.789062 103.328125 298.09375 C 103.308594 297.871094 103.308594 297.644531 103.328125 297.417969 C 103.328125 297.039062 103.328125 296.589844 103.277344 296.132812 C 103.140625 294.257812 102.859375 292.167969 102.515625 290.105469 C 102.175781 288.046875 101.800781 285.925781 101.421875 283.820312 L 99.035156 271.144531 Z M 108.679688 269.117188 "/>
<path style=" stroke:none;fill-rule:nonzero;fill:rgb(100%,70.980392%,45.098039%);fill-opacity:1;" d="M 68.398438 288.800781 C 66.429688 291.609375 64.300781 294.300781 62.015625 296.863281 C 61.453125 297.515625 60.84375 298.15625 60.207031 298.800781 C 59.523438 299.496094 58.800781 300.152344 58.042969 300.761719 C 57.820312 300.9375 57.5625 301.105469 57.28125 301.300781 C 56.859375 301.574219 56.398438 301.789062 55.921875 301.941406 C 55.6875 302.007812 55.453125 302.0625 55.214844 302.101562 C 55.085938 302.101562 54.839844 302.101562 54.660156 302.101562 L 54.355469 302.101562 L 53.945312 302.0625 L 53.503906 301.957031 L 53.023438 301.796875 C 52.664062 301.648438 52.328125 301.449219 52.03125 301.203125 C 51.738281 300.941406 51.484375 300.644531 51.269531 300.320312 C 51.089844 300.066406 50.945312 299.792969 50.835938 299.5 L 50.761719 299.289062 L 50.714844 299.144531 L 50.632812 298.839844 C 50.59375 298.660156 50.570312 298.476562 50.554688 298.292969 C 50.554688 298.171875 50.554688 298.035156 50.554688 297.898438 C 50.554688 297.761719 50.554688 297.644531 50.554688 297.570312 C 50.554688 297.496094 50.554688 297.191406 50.601562 297.0625 L 50.675781 296.664062 C 50.789062 296.125 50.914062 295.554688 51.042969 295.109375 C 51.171875 294.660156 51.285156 294.1875 51.429688 293.769531 C 52.773438 290.078125 53.992188 287.164062 55.3125 284.027344 C 56.636719 280.886719 58.261719 277.398438 59.773438 274.40625 L 67.128906 278.0625 C 65.816406 280.996094 64.433594 284.773438 63.027344 287.660156 L 65.308594 285.789062 Z M 68.398438 288.800781 "/>
<use xlink:href="#surface65" mask="url(#mask20)"/>
<path style=" stroke:none;fill-rule:nonzero;fill:rgb(25.098039%,48.235294%,100%);fill-opacity:1;" d="M 104.570312 256.386719 C 107.222656 258.78125 110.824219 265.507812 111.621094 278.78125 L 99.121094 279.542969 C 99.121094 279.542969 95.996094 267.726562 96.171875 260.894531 C 96.238281 258.332031 97.152344 256.84375 98.269531 255.992188 C 100.191406 254.59375 102.835938 254.761719 104.570312 256.386719 Z M 104.570312 256.386719 "/>
<use xlink:href="#surface68" mask="url(#mask21)"/>
<path style=" stroke:none;fill-rule:nonzero;fill:rgb(25.098039%,48.235294%,100%);fill-opacity:1;" d="M 65.582031 292.910156 L 76.78125 296.78125 L 89.429688 295.449219 L 87.945312 277.542969 L 75.679688 278.644531 L 64.425781 274.921875 Z M 65.582031 292.910156 "/>
<path style=" stroke:none;fill-rule:nonzero;fill:rgb(96.078431%,96.078431%,96.078431%);fill-opacity:1;" d="M 64.828125 275.058594 L 65.710938 274.457031 L 75.726562 277.808594 L 87.332031 276.738281 L 87.398438 277.597656 L 75.679688 278.644531 Z M 64.828125 275.058594 "/>
<use xlink:href="#surface71" mask="url(#mask22)"/>
<path style=" stroke:none;fill-rule:nonzero;fill:rgb(100%,70.980392%,45.098039%);fill-opacity:1;" d="M 89.984375 285.761719 C 89.984375 285.761719 90.320312 285.417969 89.816406 284.179688 C 89.480469 283.316406 88.960938 282.539062 88.296875 281.898438 L 88.554688 285.625 C 88.554688 285.625 86.101562 286.929688 85.941406 288.851562 C 85.621094 292.730469 88.152344 293.761719 88.980469 293.976562 C 89.808594 294.1875 91.140625 291.945312 91.191406 289.613281 C 91.234375 288.230469 90.808594 286.871094 89.984375 285.761719 Z M 89.984375 285.761719 "/>
<path style=" stroke:none;fill-rule:nonzero;fill:rgb(100%,70.980392%,45.098039%);fill-opacity:1;" d="M 63.558594 284.574219 C 63.558594 284.574219 63.195312 284.277344 63.558594 282.984375 C 63.789062 282.089844 64.207031 281.25 64.78125 280.523438 L 65.039062 284.230469 C 65.039062 284.230469 67.570312 285.25 67.96875 287.144531 C 68.726562 290.941406 66.363281 292.28125 65.59375 292.601562 C 64.828125 292.917969 63.210938 290.835938 62.867188 288.535156 C 62.65625 287.175781 62.898438 285.78125 63.558594 284.574219 Z M 63.558594 284.574219 "/>
</g>
</svg>
