<?xml version="1.0" encoding="UTF-8"?>
<svg xmlns="http://www.w3.org/2000/svg" xmlns:xlink="http://www.w3.org/1999/xlink" width="48" height="48" viewBox="0 0 48 48" version="1.1">
<g id="surface1">
<path style=" stroke:none;fill-rule:nonzero;fill:rgb(0%,0%,0%);fill-opacity:1;" d="M 17.363281 3.09375 C 11.773438 5.101562 8.691406 6.261719 8.476562 6.421875 C 7.480469 7.179688 7.339844 8.210938 8.015625 9.957031 C 8.0625 10.070312 7.96875 10.171875 7.660156 10.351562 C 6.804688 10.855469 6.027344 11.898438 5.773438 12.890625 C 5.257812 14.851562 6.140625 16.855469 7.921875 17.773438 C 8.671875 18.167969 9 18.234375 11.203125 18.476562 C 12.917969 18.65625 13.105469 18.695312 13.453125 18.9375 C 14.007812 19.3125 15.140625 19.867188 15.882812 20.117188 C 16.761719 20.417969 17.699219 20.585938 19.320312 20.726562 L 20.699219 20.839844 L 20.925781 21.421875 L 21.160156 22.003906 L 20.851562 22.257812 C 20.371094 22.640625 20.15625 23.15625 19.828125 24.75 L 19.539062 26.203125 L 18.320312 26.699219 C 17.652344 26.972656 13.414062 28.695312 8.90625 30.523438 C 4.398438 32.351562 0.675781 33.882812 0.636719 33.917969 C 0.554688 34.003906 1.023438 35.34375 1.132812 35.34375 C 1.179688 35.34375 3.441406 34.453125 6.160156 33.367188 C 8.886719 32.277344 11.304688 31.3125 11.550781 31.210938 L 11.992188 31.039062 L 13.304688 34.988281 C 14.023438 37.164062 14.605469 38.953125 14.585938 38.972656 C 14.570312 38.992188 11.4375 40.292969 7.632812 41.867188 C 3.816406 43.453125 0.675781 44.765625 0.628906 44.804688 C 0.589844 44.839844 0.695312 45.167969 0.863281 45.542969 L 1.171875 46.210938 L 1.96875 45.882812 C 2.410156 45.695312 4.601562 44.785156 6.84375 43.855469 C 9.085938 42.929688 13.753906 40.996094 17.210938 39.5625 L 23.503906 36.957031 L 25.40625 37.179688 C 26.457031 37.304688 27.335938 37.433594 27.367188 37.453125 C 27.394531 37.480469 27.722656 38.445312 28.097656 39.589844 L 28.773438 41.671875 L 27.664062 42.796875 C 27.046875 43.414062 26.476562 44.070312 26.382812 44.25 C 26.082031 44.839844 26.164062 45.554688 26.671875 46.828125 C 26.925781 47.445312 27.132812 47.960938 27.140625 47.980469 C 27.167969 48.019531 39.882812 43.023438 39.964844 42.945312 C 40.058594 42.851562 39.347656 40.941406 39.054688 40.5 C 38.933594 40.3125 38.617188 40.050781 38.335938 39.898438 C 37.847656 39.628906 37.78125 39.617188 36.207031 39.570312 L 34.574219 39.515625 L 33.9375 37.96875 C 33.582031 37.117188 33.289062 36.375 33.28125 36.328125 C 33.28125 36.273438 34.070312 35.839844 35.035156 35.363281 C 36 34.875 36.917969 34.378906 37.078125 34.257812 C 37.566406 33.890625 37.914062 33.148438 37.914062 32.484375 C 37.914062 31.976562 37.707031 31.359375 35.726562 26.0625 C 33.382812 19.773438 33.195312 19.292969 32.878906 18.945312 C 32.53125 18.570312 31.800781 18.28125 31.179688 18.28125 C 30.683594 18.28125 30.414062 18.375 28.855469 19.050781 C 27.804688 19.5 27.046875 19.773438 27 19.726562 C 26.953125 19.679688 26.832031 19.414062 26.726562 19.152344 L 26.53125 18.65625 L 27.65625 17.34375 C 28.265625 16.621094 28.894531 15.851562 29.042969 15.636719 C 29.679688 14.710938 30.273438 13.265625 30.476562 12.160156 C 30.570312 11.625 30.648438 11.511719 31.820312 10.085938 C 33.242188 8.351562 33.394531 8.117188 33.609375 7.367188 C 34.144531 5.523438 33.167969 3.414062 31.359375 2.523438 C 30.742188 2.222656 30.65625 2.203125 29.699219 2.203125 L 28.695312 2.203125 L 28.5 1.660156 C 28.386719 1.359375 28.164062 0.964844 28.003906 0.777344 C 27.617188 0.335938 26.886719 0 26.34375 0 C 26.023438 0.0078125 23.746094 0.789062 17.363281 3.09375 Z M 26.898438 1.929688 C 27.054688 2.136719 28.679688 6.835938 28.960938 7.929688 C 29.269531 9.113281 29.242188 10.988281 28.902344 12.234375 C 28.714844 12.945312 28.144531 14.195312 27.742188 14.785156 C 27.488281 15.140625 25.773438 17.195312 24.917969 18.148438 C 24.742188 18.347656 24.75 18.367188 25.085938 19.265625 C 25.273438 19.761719 25.386719 20.203125 25.351562 20.242188 C 25.238281 20.335938 22.667969 21.394531 22.640625 21.355469 C 22.621094 21.335938 22.445312 20.90625 22.238281 20.390625 L 21.863281 19.453125 L 20.148438 19.292969 C 18.007812 19.097656 17.304688 18.992188 16.566406 18.730469 C 14.492188 18.027344 12.757812 16.601562 11.785156 14.8125 C 11.371094 14.070312 9.1875 8.539062 9.1875 8.257812 C 9.1875 7.867188 9.582031 7.640625 11.625 6.910156 C 12.730469 6.507812 16.425781 5.175781 19.828125 3.945312 C 23.304688 2.691406 26.164062 1.707031 26.363281 1.695312 C 26.625 1.6875 26.746094 1.742188 26.898438 1.929688 Z M 30.582031 3.84375 C 30.769531 3.898438 31.132812 4.132812 31.398438 4.367188 C 32.15625 5.054688 32.4375 6.085938 32.109375 7.039062 C 31.949219 7.507812 30.851562 8.960938 30.757812 8.839844 C 30.722656 8.804688 30.636719 8.457031 30.582031 8.089844 C 30.515625 7.714844 30.195312 6.589844 29.867188 5.578125 L 29.269531 3.75 L 29.757812 3.75 C 30.019531 3.75 30.394531 3.796875 30.582031 3.84375 Z M 9.375 13.273438 C 10.117188 15.046875 10.285156 15.394531 10.894531 16.292969 L 11.351562 16.976562 L 10.949219 16.929688 C 10.726562 16.902344 10.292969 16.855469 9.984375 16.828125 C 8.726562 16.707031 7.894531 16.179688 7.507812 15.273438 C 7.003906 14.117188 7.191406 13.050781 8.023438 12.214844 C 8.304688 11.933594 8.585938 11.71875 8.644531 11.738281 C 8.699219 11.757812 9.039062 12.449219 9.375 13.273438 Z M 31.632812 19.773438 C 31.773438 19.929688 32.464844 21.5625 32.410156 21.617188 C 32.398438 21.628906 31.59375 21.898438 30.609375 22.21875 C 29.632812 22.539062 28.789062 22.835938 28.742188 22.882812 C 28.621094 22.996094 29.035156 24.28125 29.183594 24.28125 C 29.242188 24.28125 30.09375 24.027344 31.070312 23.710938 C 32.035156 23.398438 32.867188 23.175781 32.90625 23.222656 C 33.046875 23.351562 33.824219 25.546875 33.769531 25.601562 C 33.730469 25.640625 32.914062 25.921875 31.949219 26.25 C 30.976562 26.570312 30.1875 26.832031 30.1875 26.839844 C 30.195312 26.933594 30.636719 28.226562 30.664062 28.265625 C 30.695312 28.285156 31.539062 28.039062 32.53125 27.703125 C 33.523438 27.367188 34.359375 27.113281 34.378906 27.132812 C 34.453125 27.195312 35.25 29.363281 35.25 29.476562 C 35.25 29.539062 34.507812 29.832031 33.542969 30.140625 C 32.597656 30.441406 31.808594 30.703125 31.789062 30.722656 C 31.707031 30.777344 32.195312 32.15625 32.289062 32.15625 C 32.34375 32.15625 33.121094 31.902344 34.011719 31.59375 C 34.914062 31.285156 35.699219 31.03125 35.765625 31.03125 C 35.914062 31.03125 36.28125 31.960938 36.28125 32.335938 C 36.28125 32.484375 36.214844 32.652344 36.140625 32.71875 C 36.066406 32.785156 34.554688 33.554688 32.804688 34.414062 C 30.375 35.617188 29.523438 36 29.257812 35.992188 C 29.070312 35.992188 27.804688 35.859375 26.445312 35.691406 L 23.972656 35.390625 L 22.527344 31.078125 L 21.085938 26.765625 L 21.367188 25.273438 C 21.523438 24.460938 21.703125 23.710938 21.769531 23.605469 C 21.945312 23.34375 30.683594 19.601562 31.132812 19.59375 C 31.351562 19.59375 31.527344 19.660156 31.632812 19.773438 Z M 21.054688 31.695312 C 21.757812 33.777344 22.339844 35.539062 22.339844 35.605469 C 22.359375 35.738281 16.210938 38.371094 16.117188 38.269531 C 16.03125 38.175781 13.472656 30.460938 13.507812 30.421875 C 13.566406 30.375 15.214844 29.71875 15.234375 29.746094 C 15.242188 29.757812 15.683594 31.070312 16.21875 32.671875 C 16.753906 34.265625 17.195312 35.585938 17.203125 35.597656 C 17.230469 35.632812 18.507812 35.230469 18.582031 35.164062 C 18.628906 35.128906 18.214844 33.777344 17.671875 32.15625 C 17.128906 30.535156 16.6875 29.175781 16.6875 29.148438 C 16.6875 29.082031 19.714844 27.84375 19.761719 27.882812 C 19.773438 27.898438 20.351562 29.617188 21.054688 31.695312 Z M 32.296875 38.25 C 32.625 39 32.859375 39.636719 32.832031 39.664062 C 32.738281 39.75 30.160156 40.59375 30.121094 40.554688 C 30.074219 40.507812 29.15625 37.882812 29.15625 37.789062 C 29.15625 37.742188 29.335938 37.6875 29.558594 37.660156 C 29.773438 37.640625 30.308594 37.445312 30.75 37.226562 C 31.191406 37.023438 31.585938 36.863281 31.621094 36.871094 C 31.667969 36.882812 31.96875 37.507812 32.296875 38.25 Z M 37.527344 41.25 C 37.660156 41.351562 37.808594 41.570312 37.867188 41.71875 C 37.949219 41.980469 37.941406 42.019531 37.753906 42.085938 C 37.640625 42.132812 35.429688 43.011719 32.832031 44.054688 C 30.242188 45.09375 28.085938 45.9375 28.039062 45.9375 C 27.917969 45.9375 27.75 45.488281 27.75 45.160156 C 27.75 44.898438 27.910156 44.699219 29.128906 43.519531 L 30.515625 42.1875 L 32.203125 41.632812 L 33.890625 41.070312 L 35.585938 41.070312 C 37.152344 41.0625 37.304688 41.082031 37.527344 41.25 Z M 37.527344 41.25 "/>
<path style=" stroke:none;fill-rule:nonzero;fill:rgb(0%,0%,0%);fill-opacity:1;" d="M 24.140625 4.320312 C 23.832031 4.519531 23.578125 4.714844 23.578125 4.753906 C 23.578125 4.800781 23.738281 5.117188 23.925781 5.484375 C 24.957031 7.480469 25.367188 9.789062 24.984375 11.417969 C 24.816406 12.113281 24.394531 12.992188 24 13.433594 C 23.851562 13.613281 23.71875 13.800781 23.71875 13.847656 C 23.71875 13.894531 23.953125 14.15625 24.234375 14.4375 L 24.75 14.945312 L 25.058594 14.585938 C 26.972656 12.320312 27.214844 9.308594 25.753906 5.738281 C 25.351562 4.742188 24.910156 3.929688 24.769531 3.945312 C 24.730469 3.945312 24.449219 4.117188 24.140625 4.320312 Z M 24.140625 4.320312 "/>
<path style=" stroke:none;fill-rule:nonzero;fill:rgb(0%,0%,0%);fill-opacity:1;" d="M 39 3.976562 C 39 5.679688 38.222656 7.03125 36.824219 7.734375 C 36.421875 7.929688 35.972656 8.082031 35.625 8.117188 L 35.0625 8.183594 L 35.0625 9.722656 L 35.558594 9.777344 C 37.566406 9.984375 39 11.710938 39 13.929688 L 39 14.4375 L 40.5 14.4375 L 40.5 13.988281 C 40.5 12.375 41.15625 11.089844 42.355469 10.320312 C 42.851562 10.011719 43.660156 9.75 44.128906 9.75 L 44.4375 9.75 L 44.4375 8.183594 L 43.875 8.117188 C 42.75 7.988281 41.484375 7.117188 40.96875 6.09375 C 40.726562 5.605469 40.5 4.621094 40.5 3.957031 L 40.5 3.46875 L 39 3.46875 Z M 39.84375 7.21875 C 39.84375 7.359375 40.960938 8.511719 41.304688 8.726562 L 41.625 8.925781 L 41.25 9.195312 C 40.78125 9.542969 40.171875 10.164062 39.957031 10.519531 C 39.804688 10.773438 39.65625 10.867188 39.65625 10.707031 C 39.65625 10.527344 38.953125 9.730469 38.464844 9.355469 L 37.949219 8.960938 L 38.164062 8.785156 C 38.605469 8.445312 39.394531 7.640625 39.542969 7.386719 C 39.695312 7.125 39.84375 7.039062 39.84375 7.21875 Z M 39.84375 7.21875 "/>
<path style=" stroke:none;fill-rule:nonzero;fill:rgb(0%,0%,0%);fill-opacity:1;" d="M 4.78125 19.425781 C 4.78125 20.128906 4.59375 21.027344 4.351562 21.535156 C 3.804688 22.660156 2.597656 23.539062 1.40625 23.679688 L 0.84375 23.746094 L 0.84375 25.3125 L 1.152344 25.3125 C 1.574219 25.3125 2.398438 25.566406 2.867188 25.835938 C 3.414062 26.15625 4.097656 26.914062 4.359375 27.496094 C 4.59375 27.992188 4.78125 28.929688 4.78125 29.550781 L 4.78125 29.90625 L 6.28125 29.90625 L 6.28125 29.390625 C 6.28125 27.308594 7.714844 25.574219 9.628906 25.332031 L 10.171875 25.265625 L 10.199219 24.507812 L 10.226562 23.746094 L 9.664062 23.679688 C 9.308594 23.644531 8.859375 23.492188 8.457031 23.296875 C 7.058594 22.59375 6.28125 21.242188 6.28125 19.539062 L 6.28125 19.03125 L 4.78125 19.03125 Z M 5.738281 22.941406 C 5.945312 23.277344 6.414062 23.773438 6.929688 24.195312 L 7.332031 24.535156 L 6.851562 24.882812 C 6.589844 25.078125 6.179688 25.480469 5.945312 25.789062 L 5.511719 26.335938 L 5.117188 25.820312 C 4.914062 25.527344 4.492188 25.117188 4.199219 24.890625 L 3.65625 24.488281 L 3.976562 24.289062 C 4.320312 24.066406 5.4375 22.921875 5.4375 22.78125 C 5.4375 22.601562 5.585938 22.6875 5.738281 22.941406 Z M 5.738281 22.941406 "/>
<path style=" stroke:none;fill-rule:nonzero;fill:rgb(0%,0%,0%);fill-opacity:1;" d="M 42.09375 19.585938 C 42.09375 20.785156 41.738281 21.730469 40.960938 22.546875 C 40.386719 23.148438 39.664062 23.523438 38.8125 23.652344 L 38.148438 23.765625 L 38.203125 25.265625 L 38.765625 25.332031 C 39.84375 25.472656 40.996094 26.242188 41.558594 27.195312 C 41.878906 27.742188 42.09375 28.585938 42.09375 29.316406 L 42.09375 29.90625 L 43.667969 29.90625 L 43.707031 28.988281 C 43.734375 28.246094 43.789062 27.984375 43.996094 27.5625 C 44.296875 26.925781 44.792969 26.335938 45.320312 25.976562 C 45.796875 25.640625 46.742188 25.3125 47.203125 25.3125 L 47.53125 25.3125 L 47.53125 23.71875 L 47.277344 23.71875 C 46.273438 23.710938 44.960938 22.976562 44.363281 22.097656 C 43.914062 21.429688 43.753906 20.914062 43.695312 19.96875 L 43.640625 19.078125 L 42.871094 19.050781 L 42.09375 19.023438 Z M 43.632812 23.605469 C 43.882812 23.878906 44.230469 24.1875 44.410156 24.289062 L 44.71875 24.488281 L 44.269531 24.84375 C 43.789062 25.226562 43.238281 25.789062 43.011719 26.136719 C 42.871094 26.34375 42.871094 26.34375 42.488281 25.835938 C 42.273438 25.566406 41.898438 25.171875 41.652344 24.976562 C 41.410156 24.777344 41.164062 24.589844 41.128906 24.5625 C 41.089844 24.523438 41.289062 24.320312 41.570312 24.101562 C 41.851562 23.886719 42.261719 23.476562 42.476562 23.183594 L 42.882812 22.667969 L 43.03125 22.882812 C 43.105469 23.007812 43.378906 23.335938 43.632812 23.605469 Z M 43.632812 23.605469 "/>
</g>
</svg>
