<?xml version="1.0" encoding="UTF-8"?>
<svg xmlns="http://www.w3.org/2000/svg" xmlns:xlink="http://www.w3.org/1999/xlink" width="250px" height="250px" viewBox="0 0 250 250" version="1.1">
<defs>
<clipPath id="clip1">
  <path d="M 26 24 L 32 24 L 32 27 L 26 27 Z M 26 24 "/>
</clipPath>
<clipPath id="clip2">
  <path d="M 26.507812 24.898438 L 27.117188 26.699219 C 27.207031 26.96875 27.472656 27.136719 27.753906 27.101562 L 30.433594 26.808594 C 30.710938 26.773438 30.925781 26.550781 30.953125 26.269531 L 31.117188 24.378906 C 31.128906 24.25 31.082031 24.128906 30.992188 24.039062 C 30.902344 23.953125 30.777344 23.910156 30.652344 23.921875 L 26.859375 24.347656 C 26.734375 24.359375 26.621094 24.429688 26.550781 24.539062 C 26.484375 24.644531 26.464844 24.777344 26.507812 24.898438 Z M 26.507812 24.898438 "/>
</clipPath>
</defs>
<g id="surface1">
<path style="fill:none;stroke-width:1.081625;stroke-linecap:butt;stroke-linejoin:miter;stroke:rgb(14.901961%,19.607843%,21.960784%);stroke-opacity:1;stroke-miterlimit:10;" d="M 438.632812 283.164062 L 42.929688 283.164062 " transform="matrix(0.1,0,0,0.1,0,0)"/>
<path style=" stroke:none;fill-rule:nonzero;fill:rgb(14.901961%,19.607843%,21.960784%);fill-opacity:1;" d="M 11.550781 16.785156 C 11.550781 16.507812 11.679688 16.308594 11.964844 16.308594 C 12.25 16.308594 12.382812 16.507812 12.382812 16.785156 L 12.382812 17.75 C 12.382812 18.023438 12.257812 18.226562 11.964844 18.226562 C 11.675781 18.226562 11.550781 18.027344 11.550781 17.75 Z M 11.675781 17.757812 C 11.675781 17.957031 11.757812 18.113281 11.964844 18.113281 C 12.171875 18.113281 12.257812 17.964844 12.257812 17.757812 L 12.257812 16.777344 C 12.257812 16.574219 12.175781 16.421875 11.964844 16.421875 C 11.753906 16.421875 11.675781 16.570312 11.675781 16.777344 Z M 11.675781 17.757812 "/>
<path style=" stroke:none;fill-rule:nonzero;fill:rgb(14.901961%,19.607843%,21.960784%);fill-opacity:1;" d="M 12.578125 16.785156 C 12.578125 16.507812 12.707031 16.308594 12.992188 16.308594 C 13.277344 16.308594 13.410156 16.507812 13.410156 16.785156 L 13.410156 17.75 C 13.410156 18.023438 13.285156 18.226562 12.992188 18.226562 C 12.699219 18.226562 12.578125 18.027344 12.578125 17.75 Z M 12.703125 17.757812 C 12.703125 17.957031 12.785156 18.113281 12.992188 18.113281 C 13.199219 18.113281 13.285156 17.964844 13.285156 17.757812 L 13.285156 16.777344 C 13.285156 16.574219 13.203125 16.421875 12.992188 16.421875 C 12.78125 16.421875 12.703125 16.570312 12.703125 16.777344 Z M 12.703125 17.757812 "/>
<path style=" stroke:none;fill-rule:nonzero;fill:rgb(14.901961%,19.607843%,21.960784%);fill-opacity:1;" d="M 14.007812 16.324219 C 14.296875 16.324219 14.410156 16.507812 14.410156 16.78125 L 14.410156 16.988281 C 14.410156 17.285156 14.273438 17.433594 13.972656 17.433594 L 13.738281 17.433594 L 13.738281 18.210938 L 13.613281 18.210938 L 13.613281 16.324219 Z M 13.972656 17.324219 C 14.191406 17.324219 14.285156 17.222656 14.285156 16.996094 L 14.285156 16.777344 C 14.285156 16.570312 14.21875 16.4375 14.007812 16.4375 L 13.738281 16.4375 L 13.738281 17.324219 Z M 13.972656 17.324219 "/>
<path style=" stroke:none;fill-rule:nonzero;fill:rgb(14.901961%,19.607843%,21.960784%);fill-opacity:1;" d="M 15.394531 16.777344 L 15.394531 16.820312 L 15.273438 16.820312 L 15.273438 16.769531 C 15.273438 16.570312 15.199219 16.421875 14.992188 16.421875 C 14.789062 16.421875 14.714844 16.570312 14.714844 16.769531 C 14.714844 17.226562 15.394531 17.234375 15.394531 17.753906 C 15.394531 18.027344 15.277344 18.226562 14.988281 18.226562 C 14.699219 18.226562 14.582031 18.027344 14.582031 17.753906 L 14.582031 17.65625 L 14.699219 17.65625 L 14.699219 17.753906 C 14.699219 17.953125 14.777344 18.101562 14.984375 18.101562 C 15.195312 18.101562 15.269531 17.957031 15.269531 17.753906 C 15.269531 17.300781 14.589844 17.292969 14.589844 16.769531 C 14.589844 16.484375 14.714844 16.300781 14.988281 16.300781 C 15.265625 16.296875 15.394531 16.507812 15.394531 16.777344 Z M 15.394531 16.777344 "/>
<path style=" stroke:none;fill-rule:nonzero;fill:rgb(14.901961%,19.607843%,21.960784%);fill-opacity:1;" d="M 15.699219 17.972656 L 15.699219 18.210938 L 15.578125 18.210938 L 15.578125 17.972656 Z M 15.699219 17.972656 "/>
<path style=" stroke:none;fill-rule:nonzero;fill:rgb(14.901961%,19.607843%,21.960784%);fill-opacity:1;" d="M 16.039062 17.972656 L 16.039062 18.210938 L 15.917969 18.210938 L 15.917969 17.972656 Z M 16.039062 17.972656 "/>
<path style=" stroke:none;fill-rule:nonzero;fill:rgb(14.901961%,19.607843%,21.960784%);fill-opacity:1;" d="M 16.378906 17.972656 L 16.378906 18.210938 L 16.257812 18.210938 L 16.257812 17.972656 Z M 16.378906 17.972656 "/>
<path style=" stroke:none;fill-rule:nonzero;fill:rgb(14.901961%,19.607843%,21.960784%);fill-opacity:1;" d="M 7.125 24.667969 L 9.25 19.640625 L 10.527344 19.640625 L 10.527344 24.667969 L 11.078125 24.667969 L 11.078125 25.730469 L 10.527344 25.730469 L 10.527344 27.078125 L 9.378906 27.078125 L 9.378906 25.730469 L 7.125 25.730469 Z M 9.378906 24.667969 L 9.378906 21.871094 L 8.199219 24.667969 Z M 9.378906 24.667969 "/>
<path style=" stroke:none;fill-rule:nonzero;fill:rgb(14.901961%,19.607843%,21.960784%);fill-opacity:1;" d="M 11.515625 21.425781 C 11.515625 20.238281 12.140625 19.558594 13.289062 19.558594 C 14.433594 19.558594 15.0625 20.238281 15.0625 21.425781 L 15.0625 25.292969 C 15.0625 26.484375 14.433594 27.164062 13.289062 27.164062 C 12.140625 27.164062 11.515625 26.484375 11.515625 25.292969 Z M 12.683594 25.367188 C 12.683594 25.898438 12.914062 26.101562 13.289062 26.101562 C 13.660156 26.101562 13.894531 25.902344 13.894531 25.367188 L 13.894531 21.351562 C 13.894531 20.820312 13.660156 20.617188 13.289062 20.617188 C 12.914062 20.617188 12.683594 20.820312 12.683594 21.351562 Z M 12.683594 25.367188 "/>
<path style=" stroke:none;fill-rule:nonzero;fill:rgb(14.901961%,19.607843%,21.960784%);fill-opacity:1;" d="M 15.539062 24.667969 L 17.664062 19.640625 L 18.941406 19.640625 L 18.941406 24.667969 L 19.492188 24.667969 L 19.492188 25.730469 L 18.941406 25.730469 L 18.941406 27.078125 L 17.792969 27.078125 L 17.792969 25.730469 L 15.539062 25.730469 Z M 17.792969 24.667969 L 17.792969 21.871094 L 16.613281 24.667969 Z M 17.792969 24.667969 "/>
<path style=" stroke:none;fill-rule:nonzero;fill:rgb(14.901961%,19.607843%,21.960784%);fill-opacity:1;" d="M 7.636719 28.863281 C 7.925781 28.863281 8.039062 29.042969 8.039062 29.3125 L 8.039062 29.511719 C 8.039062 29.804688 7.902344 29.953125 7.609375 29.953125 L 7.378906 29.953125 L 7.378906 30.710938 L 7.253906 30.710938 L 7.253906 28.863281 Z M 7.605469 29.84375 C 7.820312 29.84375 7.914062 29.742188 7.914062 29.523438 L 7.914062 29.304688 C 7.914062 29.105469 7.84375 28.976562 7.636719 28.976562 L 7.378906 28.976562 L 7.378906 29.84375 Z M 7.605469 29.84375 "/>
<path style=" stroke:none;fill-rule:nonzero;fill:rgb(14.901961%,19.607843%,21.960784%);fill-opacity:1;" d="M 8.359375 30.300781 L 8.265625 30.710938 L 8.15625 30.710938 L 8.558594 28.855469 L 8.734375 28.855469 L 9.144531 30.710938 L 9.027344 30.710938 L 8.9375 30.300781 Z M 8.378906 30.195312 L 8.917969 30.195312 L 8.644531 28.992188 Z M 8.378906 30.195312 "/>
<path style=" stroke:none;fill-rule:nonzero;fill:rgb(14.901961%,19.607843%,21.960784%);fill-opacity:1;" d="M 10.121094 29.316406 L 10.121094 29.453125 L 10.007812 29.453125 L 10.007812 29.308594 C 10.007812 29.109375 9.929688 28.960938 9.726562 28.960938 C 9.523438 28.960938 9.445312 29.109375 9.445312 29.308594 L 9.445312 30.269531 C 9.445312 30.46875 9.523438 30.617188 9.726562 30.617188 C 9.929688 30.617188 10.007812 30.46875 10.007812 30.269531 L 10.007812 29.871094 L 9.761719 29.871094 L 9.761719 29.761719 L 10.121094 29.761719 L 10.121094 30.261719 C 10.121094 30.527344 10.007812 30.726562 9.722656 30.726562 C 9.441406 30.726562 9.324219 30.527344 9.324219 30.261719 L 9.324219 29.3125 C 9.324219 29.046875 9.4375 28.847656 9.722656 28.847656 C 10.007812 28.847656 10.121094 29.050781 10.121094 29.316406 Z M 10.121094 29.316406 "/>
<path style=" stroke:none;fill-rule:nonzero;fill:rgb(14.901961%,19.607843%,21.960784%);fill-opacity:1;" d="M 10.953125 29.71875 L 10.953125 29.832031 L 10.453125 29.832031 L 10.453125 30.601562 L 11.058594 30.601562 L 11.058594 30.710938 L 10.328125 30.710938 L 10.328125 28.863281 L 11.058594 28.863281 L 11.058594 28.976562 L 10.453125 28.976562 L 10.453125 29.71875 Z M 10.953125 29.71875 "/>
<path style=" stroke:none;fill-rule:nonzero;fill:rgb(14.901961%,19.607843%,21.960784%);fill-opacity:1;" d="M 11.773438 30.714844 L 11.664062 30.714844 L 11.664062 28.863281 L 11.820312 28.863281 L 12.378906 30.425781 L 12.378906 28.863281 L 12.488281 28.863281 L 12.488281 30.714844 L 12.351562 30.714844 L 11.773438 29.066406 Z M 11.773438 30.714844 "/>
<path style=" stroke:none;fill-rule:nonzero;fill:rgb(14.901961%,19.607843%,21.960784%);fill-opacity:1;" d="M 12.6875 29.316406 C 12.6875 29.046875 12.8125 28.847656 13.089844 28.847656 C 13.363281 28.847656 13.496094 29.046875 13.496094 29.316406 L 13.496094 30.261719 C 13.496094 30.53125 13.375 30.730469 13.089844 30.730469 C 12.804688 30.730469 12.6875 30.527344 12.6875 30.261719 Z M 12.808594 30.269531 C 12.808594 30.46875 12.890625 30.617188 13.09375 30.617188 C 13.296875 30.617188 13.382812 30.46875 13.382812 30.269531 L 13.382812 29.308594 C 13.382812 29.109375 13.300781 28.960938 13.09375 28.960938 C 12.886719 28.960938 12.808594 29.105469 12.808594 29.308594 Z M 12.808594 30.269531 "/>
<path style=" stroke:none;fill-rule:nonzero;fill:rgb(14.901961%,19.607843%,21.960784%);fill-opacity:1;" d="M 14.015625 30.714844 L 14.015625 28.976562 L 13.640625 28.976562 L 13.640625 28.863281 L 14.515625 28.863281 L 14.515625 28.976562 L 14.136719 28.976562 L 14.136719 30.714844 Z M 14.015625 30.714844 "/>
<path style=" stroke:none;fill-rule:nonzero;fill:rgb(14.901961%,19.607843%,21.960784%);fill-opacity:1;" d="M 15.675781 29.765625 L 15.675781 29.875 L 15.199219 29.875 L 15.199219 30.714844 L 15.078125 30.714844 L 15.078125 28.863281 L 15.777344 28.863281 L 15.777344 28.976562 L 15.199219 28.976562 L 15.199219 29.765625 Z M 15.675781 29.765625 "/>
<path style=" stroke:none;fill-rule:nonzero;fill:rgb(14.901961%,19.607843%,21.960784%);fill-opacity:1;" d="M 15.953125 29.316406 C 15.953125 29.046875 16.078125 28.847656 16.355469 28.847656 C 16.632812 28.847656 16.765625 29.046875 16.765625 29.316406 L 16.765625 30.261719 C 16.765625 30.53125 16.640625 30.730469 16.355469 30.730469 C 16.070312 30.730469 15.953125 30.527344 15.953125 30.261719 Z M 16.074219 30.269531 C 16.074219 30.46875 16.15625 30.617188 16.359375 30.617188 C 16.5625 30.617188 16.648438 30.46875 16.648438 30.269531 L 16.648438 29.308594 C 16.648438 29.109375 16.566406 28.960938 16.359375 28.960938 C 16.152344 28.960938 16.074219 29.105469 16.074219 29.308594 Z M 16.074219 30.269531 "/>
<path style=" stroke:none;fill-rule:nonzero;fill:rgb(14.901961%,19.607843%,21.960784%);fill-opacity:1;" d="M 17.085938 30.265625 C 17.085938 30.46875 17.160156 30.617188 17.363281 30.617188 C 17.566406 30.617188 17.640625 30.464844 17.640625 30.265625 L 17.640625 28.867188 L 17.753906 28.867188 L 17.753906 30.265625 C 17.753906 30.53125 17.644531 30.734375 17.359375 30.734375 C 17.078125 30.734375 16.960938 30.535156 16.960938 30.265625 L 16.960938 28.867188 L 17.082031 28.867188 Z M 17.085938 30.265625 "/>
<path style=" stroke:none;fill-rule:nonzero;fill:rgb(14.901961%,19.607843%,21.960784%);fill-opacity:1;" d="M 18.074219 30.714844 L 17.964844 30.714844 L 17.964844 28.863281 L 18.121094 28.863281 L 18.675781 30.425781 L 18.675781 28.863281 L 18.789062 28.863281 L 18.789062 30.714844 L 18.652344 30.714844 L 18.074219 29.066406 Z M 18.074219 30.714844 "/>
<path style=" stroke:none;fill-rule:nonzero;fill:rgb(14.901961%,19.607843%,21.960784%);fill-opacity:1;" d="M 19.398438 28.863281 C 19.6875 28.863281 19.808594 29.050781 19.808594 29.324219 L 19.808594 30.253906 C 19.808594 30.527344 19.6875 30.714844 19.398438 30.714844 L 19 30.714844 L 19 28.863281 Z M 19.398438 30.601562 C 19.605469 30.601562 19.691406 30.460938 19.691406 30.257812 L 19.691406 29.316406 C 19.691406 29.113281 19.601562 28.972656 19.398438 28.972656 L 19.117188 28.972656 L 19.117188 30.601562 Z M 19.398438 30.601562 "/>
<path style=" stroke:none;fill-rule:nonzero;fill:rgb(99.607843%,73.333333%,45.490196%);fill-opacity:1;" d="M 41.566406 8.214844 C 41.566406 8.214844 41.566406 7.71875 40.875 7.03125 C 40.183594 6.339844 39.738281 5.945312 39.738281 5.945312 C 39.738281 5.945312 39.394531 7.078125 40.039062 7.769531 C 40.511719 8.253906 41.019531 8.699219 41.566406 9.101562 Z M 41.566406 8.214844 "/>
<path style=" stroke:none;fill-rule:nonzero;fill:rgb(99.607843%,73.333333%,45.490196%);fill-opacity:1;" d="M 40.5625 11.300781 C 40.5625 11.300781 40.5625 10.804688 39.871094 10.117188 C 39.183594 9.425781 38.738281 9.03125 38.738281 9.03125 C 38.738281 9.03125 38.394531 10.164062 39.039062 10.855469 C 39.507812 11.339844 40.019531 11.789062 40.566406 12.1875 Z M 40.5625 11.300781 "/>
<path style=" stroke:none;fill-rule:nonzero;fill:rgb(99.607843%,73.333333%,45.490196%);fill-opacity:1;" d="M 41.523438 9.054688 C 41.523438 9.054688 41.574219 8.5625 42.335938 7.949219 C 43.09375 7.335938 43.578125 6.988281 43.578125 6.988281 C 43.578125 6.988281 43.800781 8.15625 43.089844 8.773438 C 42.570312 9.207031 42.015625 9.597656 41.429688 9.9375 Z M 41.523438 9.054688 "/>
<path style=" stroke:none;fill-rule:nonzero;fill:rgb(99.607843%,73.333333%,45.490196%);fill-opacity:1;" d="M 40.3125 12.691406 C 40.3125 12.691406 40.410156 12.210938 41.234375 11.679688 C 42.058594 11.148438 42.570312 10.855469 42.570312 10.855469 C 42.570312 10.855469 42.671875 12.039062 41.898438 12.578125 C 41.335938 12.957031 40.742188 13.285156 40.125 13.5625 Z M 40.3125 12.691406 "/>
<path style=" stroke:none;fill-rule:nonzero;fill:rgb(99.607843%,73.333333%,45.490196%);fill-opacity:1;" d="M 40.539062 16.660156 C 40.539062 16.660156 40.539062 16.164062 41.230469 15.476562 C 41.921875 14.785156 42.363281 14.390625 42.363281 14.390625 C 42.363281 14.390625 42.710938 15.523438 42.0625 16.214844 C 41.59375 16.703125 41.082031 17.148438 40.535156 17.546875 Z M 40.539062 16.660156 "/>
<path style=" stroke:none;fill-rule:nonzero;fill:rgb(99.607843%,73.333333%,45.490196%);fill-opacity:1;" d="M 40.527344 17.628906 C 40.527344 17.628906 40.597656 17.140625 40.011719 16.359375 C 39.425781 15.574219 39.042969 15.121094 39.042969 15.121094 C 39.042969 15.121094 38.542969 16.195312 39.078125 16.972656 C 39.472656 17.519531 39.917969 18.03125 40.398438 18.507812 Z M 40.527344 17.628906 "/>
<path style=" stroke:none;fill-rule:nonzero;fill:rgb(99.607843%,73.333333%,45.490196%);fill-opacity:1;" d="M 39.847656 20.5 C 39.847656 20.5 39.847656 20.007812 40.535156 19.316406 C 41.226562 18.625 41.671875 18.230469 41.671875 18.230469 C 41.671875 18.230469 42.015625 19.363281 41.371094 20.054688 C 40.902344 20.542969 40.390625 20.988281 39.84375 21.386719 Z M 39.847656 20.5 "/>
<path style=" stroke:none;fill-rule:nonzero;fill:rgb(99.607843%,73.333333%,45.490196%);fill-opacity:1;" d="M 40.308594 23.101562 C 40.308594 23.101562 40.183594 22.621094 40.675781 21.777344 C 41.167969 20.9375 41.5 20.441406 41.5 20.441406 C 41.5 20.441406 42.121094 21.453125 41.675781 22.28125 C 41.34375 22.871094 40.960938 23.433594 40.535156 23.960938 Z M 40.308594 23.101562 "/>
<path style="fill:none;stroke-width:1.081625;stroke-linecap:round;stroke-linejoin:round;stroke:rgb(14.901961%,19.607843%,21.960784%);stroke-opacity:1;stroke-miterlimit:4;" d="M 416.289062 80.859375 C 415.9375 86.015625 415.3125 91.132812 414.375 96.171875 C 411.640625 110.3125 404.84375 119.414062 402.109375 132.148438 C 399.375 144.882812 407.226562 161.289062 405.117188 177.65625 C 403.007812 194.023438 396.640625 203.125 398.476562 214.0625 C 400.273438 224.960938 409.84375 254.53125 409.84375 254.53125 " transform="matrix(0.1,0,0,0.1,0,0)"/>
<path style="fill:none;stroke-width:1.081625;stroke-linecap:round;stroke-linejoin:round;stroke:rgb(14.901961%,19.607843%,21.960784%);stroke-opacity:1;stroke-miterlimit:4;" d="M 415.15625 93.828125 L 422.617188 88.125 " transform="matrix(0.1,0,0,0.1,0,0)"/>
<path style="fill:none;stroke-width:1.081625;stroke-linecap:round;stroke-linejoin:round;stroke:rgb(14.901961%,19.607843%,21.960784%);stroke-opacity:1;stroke-miterlimit:4;" d="M 415.507812 87.226562 L 412.382812 81.71875 " transform="matrix(0.1,0,0,0.1,0,0)"/>
<path style="fill:none;stroke-width:1.081625;stroke-linecap:round;stroke-linejoin:round;stroke:rgb(14.901961%,19.607843%,21.960784%);stroke-opacity:1;stroke-miterlimit:4;" d="M 402.539062 131.5625 C 402.539062 131.5625 408.75 126.875 415.15625 122.226562 " transform="matrix(0.1,0,0,0.1,0,0)"/>
<path style="fill:none;stroke-width:1.081625;stroke-linecap:round;stroke-linejoin:round;stroke:rgb(14.901961%,19.607843%,21.960784%);stroke-opacity:1;stroke-miterlimit:4;" d="M 405.625 121.835938 C 405.625 121.835938 400.429688 111.640625 394.570312 104.882812 " transform="matrix(0.1,0,0,0.1,0,0)"/>
<path style="fill:none;stroke-width:1.081625;stroke-linecap:round;stroke-linejoin:round;stroke:rgb(14.901961%,19.607843%,21.960784%);stroke-opacity:1;stroke-miterlimit:4;" d="M 405.625 173.632812 C 409.21875 167.070312 413.710938 161.054688 418.984375 155.78125 " transform="matrix(0.1,0,0,0.1,0,0)"/>
<path style="fill:none;stroke-width:1.081625;stroke-linecap:round;stroke-linejoin:round;stroke:rgb(14.901961%,19.607843%,21.960784%);stroke-opacity:1;stroke-miterlimit:4;" d="M 404.414062 180.546875 C 402.539062 176.09375 400.273438 171.796875 397.65625 167.734375 C 394.023438 162.34375 393.515625 161.679688 393.515625 161.679688 " transform="matrix(0.1,0,0,0.1,0,0)"/>
<path style="fill:none;stroke-width:1.081625;stroke-linecap:round;stroke-linejoin:round;stroke:rgb(14.901961%,19.607843%,21.960784%);stroke-opacity:1;stroke-miterlimit:4;" d="M 398.476562 214.0625 C 400.039062 210.117188 401.914062 206.328125 404.0625 202.695312 C 406.25 199.335938 408.671875 196.132812 411.367188 193.164062 " transform="matrix(0.1,0,0,0.1,0,0)"/>
<path style="fill:none;stroke-width:1.081625;stroke-linecap:round;stroke-linejoin:round;stroke:rgb(14.901961%,19.607843%,21.960784%);stroke-opacity:1;stroke-miterlimit:4;" d="M 405.3125 239.609375 C 404.960938 235.859375 405.625 232.070312 407.1875 228.671875 C 409.804688 223.671875 412.734375 217.070312 413.945312 214.453125 " transform="matrix(0.1,0,0,0.1,0,0)"/>
<path style=" stroke:none;fill-rule:nonzero;fill:rgb(99.607843%,73.333333%,45.490196%);fill-opacity:1;" d="M 37.042969 14.800781 C 37.042969 14.800781 36.988281 14.492188 37.347656 13.984375 C 37.707031 13.476562 37.941406 13.183594 37.941406 13.183594 C 37.941406 13.183594 38.28125 13.855469 37.953125 14.359375 C 37.710938 14.714844 37.4375 15.050781 37.140625 15.359375 Z M 37.042969 14.800781 "/>
<path style=" stroke:none;fill-rule:nonzero;fill:rgb(99.607843%,73.333333%,45.490196%);fill-opacity:1;" d="M 38.007812 16.628906 C 38.007812 16.628906 37.953125 16.316406 38.3125 15.808594 C 38.671875 15.300781 38.902344 15.011719 38.902344 15.011719 C 38.902344 15.011719 39.242188 15.683594 38.917969 16.1875 C 38.675781 16.542969 38.402344 16.878906 38.101562 17.1875 Z M 38.007812 16.628906 "/>
<path style=" stroke:none;fill-rule:nonzero;fill:rgb(99.607843%,73.333333%,45.490196%);fill-opacity:1;" d="M 37.160156 15.328125 C 37.160156 15.328125 37.074219 15.027344 36.53125 14.722656 C 35.988281 14.417969 35.648438 14.253906 35.648438 14.253906 C 35.648438 14.253906 35.636719 15.011719 36.148438 15.320312 C 36.523438 15.535156 36.914062 15.71875 37.316406 15.871094 Z M 37.160156 15.328125 "/>
<path style=" stroke:none;fill-rule:nonzero;fill:rgb(99.607843%,73.333333%,45.490196%);fill-opacity:1;" d="M 38.316406 17.476562 C 38.316406 17.476562 38.199219 17.1875 37.628906 16.941406 C 37.054688 16.699219 36.699219 16.570312 36.699219 16.570312 C 36.699219 16.570312 36.765625 17.324219 37.308594 17.578125 C 37.703125 17.753906 38.109375 17.894531 38.527344 18 Z M 38.316406 17.476562 "/>
<path style=" stroke:none;fill-rule:nonzero;fill:rgb(99.607843%,73.333333%,45.490196%);fill-opacity:1;" d="M 38.601562 19.988281 C 38.601562 19.988281 38.546875 19.679688 38.039062 19.320312 C 37.53125 18.964844 37.210938 18.765625 37.210938 18.765625 C 37.210938 18.765625 37.113281 19.511719 37.59375 19.878906 C 37.941406 20.128906 38.308594 20.355469 38.691406 20.546875 Z M 38.601562 19.988281 "/>
<path style=" stroke:none;fill-rule:nonzero;fill:rgb(99.607843%,73.333333%,45.490196%);fill-opacity:1;" d="M 38.714844 20.601562 C 38.714844 20.601562 38.617188 20.300781 38.902344 19.746094 C 39.1875 19.195312 39.375 18.867188 39.375 18.867188 C 39.375 18.867188 39.808594 19.488281 39.554688 20.03125 C 39.363281 20.417969 39.140625 20.789062 38.890625 21.136719 Z M 38.714844 20.601562 "/>
<path style=" stroke:none;fill-rule:nonzero;fill:rgb(99.607843%,73.333333%,45.490196%);fill-opacity:1;" d="M 39.582031 23.089844 C 39.582031 23.089844 39.617188 22.777344 40.105469 22.390625 C 40.59375 22.003906 40.90625 21.789062 40.90625 21.789062 C 40.90625 21.789062 41.042969 22.535156 40.585938 22.925781 C 40.253906 23.195312 39.898438 23.441406 39.523438 23.65625 Z M 39.582031 23.089844 "/>
<path style=" stroke:none;fill-rule:nonzero;fill:rgb(99.607843%,73.333333%,45.490196%);fill-opacity:1;" d="M 39.453125 22.320312 C 39.453125 22.320312 39.402344 22.011719 38.894531 21.652344 C 38.386719 21.292969 38.0625 21.097656 38.0625 21.097656 C 38.0625 21.097656 37.96875 21.84375 38.445312 22.210938 C 38.792969 22.460938 39.164062 22.6875 39.546875 22.878906 Z M 39.453125 22.320312 "/>
<path style=" stroke:none;fill-rule:nonzero;fill:rgb(99.607843%,73.333333%,45.490196%);fill-opacity:1;" d="M 39.449219 24 C 39.449219 24 39.472656 23.6875 39.074219 23.210938 C 38.675781 22.738281 38.414062 22.460938 38.414062 22.460938 C 38.414062 22.460938 38.132812 23.160156 38.503906 23.636719 C 38.777344 23.96875 39.078125 24.28125 39.402344 24.5625 Z M 39.449219 24 "/>
<path style="fill:none;stroke-width:1.081625;stroke-linecap:round;stroke-linejoin:round;stroke:rgb(14.901961%,19.607843%,21.960784%);stroke-opacity:1;stroke-miterlimit:4;" d="M 369.882812 147.304688 C 370.664062 150.507812 371.640625 153.632812 372.734375 156.71875 C 375.976562 165.273438 381.25 170.234375 384.375 177.929688 C 387.460938 185.625 384.375 196.757812 387.421875 206.796875 C 390.46875 216.835938 395.507812 221.796875 395.546875 228.90625 C 395.585938 235.976562 392.773438 255.546875 392.773438 255.546875 " transform="matrix(0.1,0,0,0.1,0,0)"/>
<path style="fill:none;stroke-width:1.081625;stroke-linecap:round;stroke-linejoin:round;stroke:rgb(14.901961%,19.607843%,21.960784%);stroke-opacity:1;stroke-miterlimit:4;" d="M 371.992188 155.3125 L 366.71875 152.539062 " transform="matrix(0.1,0,0,0.1,0,0)"/>
<path style="fill:none;stroke-width:1.081625;stroke-linecap:round;stroke-linejoin:round;stroke:rgb(14.901961%,19.607843%,21.960784%);stroke-opacity:1;stroke-miterlimit:4;" d="M 371.09375 151.210938 L 372.421875 147.421875 " transform="matrix(0.1,0,0,0.1,0,0)"/>
<path style="fill:none;stroke-width:1.081625;stroke-linecap:round;stroke-linejoin:round;stroke:rgb(14.901961%,19.607843%,21.960784%);stroke-opacity:1;stroke-miterlimit:4;" d="M 383.984375 177.617188 C 383.984375 177.617188 379.609375 175.351562 375.078125 173.125 " transform="matrix(0.1,0,0,0.1,0,0)"/>
<path style="fill:none;stroke-width:1.081625;stroke-linecap:round;stroke-linejoin:round;stroke:rgb(14.901961%,19.607843%,21.960784%);stroke-opacity:1;stroke-miterlimit:4;" d="M 381.015625 171.835938 C 382.304688 167.734375 384.023438 163.75 386.132812 160 " transform="matrix(0.1,0,0,0.1,0,0)"/>
<path style="fill:none;stroke-width:1.081625;stroke-linecap:round;stroke-linejoin:round;stroke:rgb(14.901961%,19.607843%,21.960784%);stroke-opacity:1;stroke-miterlimit:4;" d="M 386.640625 204.335938 C 383.710938 200.585938 380.234375 197.304688 376.367188 194.609375 " transform="matrix(0.1,0,0,0.1,0,0)"/>
<path style="fill:none;stroke-width:1.081625;stroke-linecap:round;stroke-linejoin:round;stroke:rgb(14.901961%,19.607843%,21.960784%);stroke-opacity:1;stroke-miterlimit:4;" d="M 388.164062 208.515625 C 388.867188 205.546875 389.804688 202.617188 391.015625 199.765625 C 392.695312 196.015625 392.96875 195.507812 392.96875 195.507812 " transform="matrix(0.1,0,0,0.1,0,0)"/>
<path style="fill:none;stroke-width:1.081625;stroke-linecap:round;stroke-linejoin:round;stroke:rgb(14.901961%,19.607843%,21.960784%);stroke-opacity:1;stroke-miterlimit:4;" d="M 395.273438 234.257812 C 396.992188 232.109375 398.90625 230.117188 400.976562 228.359375 C 402.304688 227.382812 403.515625 226.289062 404.6875 225.117188 " transform="matrix(0.1,0,0,0.1,0,0)"/>
<path style="fill:none;stroke-width:1.081625;stroke-linecap:round;stroke-linejoin:round;stroke:rgb(14.901961%,19.607843%,21.960784%);stroke-opacity:1;stroke-miterlimit:4;" d="M 395.546875 228.90625 C 394.101562 226.601562 392.539062 224.414062 390.78125 222.382812 C 389.0625 220.507812 387.1875 218.789062 385.195312 217.226562 " transform="matrix(0.1,0,0,0.1,0,0)"/>
<path style="fill:none;stroke-width:1.081625;stroke-linecap:round;stroke-linejoin:round;stroke:rgb(14.901961%,19.607843%,21.960784%);stroke-opacity:1;stroke-miterlimit:4;" d="M 393.984375 245.664062 C 393.828125 243.28125 393.007812 240.976562 391.640625 239.023438 C 389.453125 236.132812 386.914062 232.34375 385.859375 230.859375 " transform="matrix(0.1,0,0,0.1,0,0)"/>
<path style=" stroke:none;fill-rule:nonzero;fill:rgb(14.901961%,19.607843%,21.960784%);fill-opacity:1;" d="M 41.648438 28.921875 L 38.605469 28.921875 C 38.449219 28.917969 38.320312 28.792969 38.320312 28.632812 L 37.867188 25.210938 L 42.386719 25.210938 L 41.933594 28.632812 C 41.933594 28.792969 41.804688 28.917969 41.648438 28.921875 Z M 41.648438 28.921875 "/>
<path style=" stroke:none;fill-rule:nonzero;fill:rgb(14.901961%,19.607843%,21.960784%);fill-opacity:1;" d="M 42.347656 25.800781 L 37.867188 25.800781 C 37.671875 25.800781 37.515625 25.640625 37.515625 25.445312 C 37.515625 25.351562 37.550781 25.261719 37.617188 25.195312 C 37.683594 25.128906 37.773438 25.09375 37.867188 25.09375 L 42.347656 25.09375 C 42.542969 25.09375 42.699219 25.25 42.699219 25.445312 C 42.699219 25.640625 42.542969 25.800781 42.347656 25.800781 Z M 42.347656 25.800781 "/>
<path style=" stroke:none;fill-rule:nonzero;fill:rgb(14.901961%,19.607843%,21.960784%);fill-opacity:1;" d="M 38.03125 32.929688 C 37.871094 32.929688 37.71875 32.84375 37.632812 32.707031 C 37.546875 32.570312 37.535156 32.398438 37.609375 32.25 C 37.796875 31.871094 37.660156 31.410156 37.289062 31.199219 C 36.585938 30.746094 34.941406 30.675781 34.367188 30.683594 L 34.359375 30.683594 C 34.097656 30.6875 33.886719 30.476562 33.882812 30.21875 C 33.882812 29.957031 34.089844 29.742188 34.351562 29.742188 C 34.59375 29.734375 36.726562 29.71875 37.800781 30.40625 C 38.855469 31.082031 38.691406 32.175781 38.457031 32.660156 C 38.378906 32.824219 38.214844 32.929688 38.03125 32.929688 Z M 38.03125 32.929688 "/>
<path style="fill-rule:nonzero;fill:rgb(100%,100%,100%);fill-opacity:1;stroke-width:1.081625;stroke-linecap:round;stroke-linejoin:round;stroke:rgb(14.901961%,19.607843%,21.960784%);stroke-opacity:1;stroke-miterlimit:4;" d="M 402.070312 354.179688 L 401.054688 357.734375 L 385.273438 331.835938 L 384.882812 326.210938 Z M 402.070312 354.179688 " transform="matrix(0.1,0,0,0.1,0,0)"/>
<path style="fill-rule:nonzero;fill:rgb(100%,100%,100%);fill-opacity:1;stroke-width:1.081625;stroke-linecap:round;stroke-linejoin:round;stroke:rgb(14.901961%,19.607843%,21.960784%);stroke-opacity:1;stroke-miterlimit:4;" d="M 401.054688 357.734375 L 405.976562 355.273438 L 406.835938 351.914062 L 402.070312 354.179688 Z M 401.054688 357.734375 " transform="matrix(0.1,0,0,0.1,0,0)"/>
<path style="fill-rule:nonzero;fill:rgb(100%,100%,100%);fill-opacity:1;stroke-width:1.081625;stroke-linecap:round;stroke-linejoin:round;stroke:rgb(14.901961%,19.607843%,21.960784%);stroke-opacity:1;stroke-miterlimit:4;" d="M 382.8125 323.320312 L 401.054688 322.695312 L 406.835938 351.914062 L 402.070312 354.179688 Z M 382.8125 323.320312 " transform="matrix(0.1,0,0,0.1,0,0)"/>
<path style="fill-rule:nonzero;fill:rgb(100%,100%,100%);fill-opacity:1;stroke-width:1.081625;stroke-linecap:round;stroke-linejoin:round;stroke:rgb(14.901961%,19.607843%,21.960784%);stroke-opacity:1;stroke-miterlimit:4;" d="M 380.3125 324.570312 L 398.554688 355.234375 L 392.539062 358.125 L 365.625 336.171875 Z M 380.3125 324.570312 " transform="matrix(0.1,0,0,0.1,0,0)"/>
<path style="fill-rule:nonzero;fill:rgb(100%,100%,100%);fill-opacity:1;stroke-width:1.081625;stroke-linecap:round;stroke-linejoin:round;stroke:rgb(14.901961%,19.607843%,21.960784%);stroke-opacity:1;stroke-miterlimit:4;" d="M 392.539062 358.125 L 391.71875 361.25 L 364.570312 339.6875 L 365.625 336.171875 Z M 392.539062 358.125 " transform="matrix(0.1,0,0,0.1,0,0)"/>
<path style="fill-rule:nonzero;fill:rgb(100%,100%,100%);fill-opacity:1;stroke-width:1.081625;stroke-linecap:round;stroke-linejoin:round;stroke:rgb(14.901961%,19.607843%,21.960784%);stroke-opacity:1;stroke-miterlimit:4;" d="M 392.539062 358.125 L 398.554688 355.234375 L 397.734375 358.359375 L 391.71875 361.25 Z M 392.539062 358.125 " transform="matrix(0.1,0,0,0.1,0,0)"/>
<path style="fill-rule:nonzero;fill:rgb(99.607843%,73.333333%,45.490196%);fill-opacity:1;stroke-width:1.081625;stroke-linecap:round;stroke-linejoin:round;stroke:rgb(14.901961%,19.607843%,21.960784%);stroke-opacity:1;stroke-miterlimit:4;" d="M 393.124191 329.100091 C 393.124191 334.182421 388.980987 338.325625 383.898657 338.325625 C 378.816327 338.325625 374.673123 334.182421 374.673123 329.100091 C 374.645502 323.99014 378.788706 319.846936 383.898657 319.874558 C 389.008608 319.846936 393.151812 323.99014 393.124191 329.100091 Z M 393.124191 329.100091 " transform="matrix(0.0707107,-0.0707107,0.0707107,0.0707107,-12.026,36.785)"/>
<path style="fill-rule:nonzero;fill:rgb(100%,100%,100%);fill-opacity:1;stroke-width:1.081625;stroke-linecap:round;stroke-linejoin:round;stroke:rgb(14.901961%,19.607843%,21.960784%);stroke-opacity:1;stroke-miterlimit:4;" d="M 189.179688 354.179688 L 190.195312 357.734375 L 205.9375 331.835938 L 206.367188 326.210938 Z M 189.179688 354.179688 " transform="matrix(0.1,0,0,0.1,0,0)"/>
<path style="fill-rule:nonzero;fill:rgb(100%,100%,100%);fill-opacity:1;stroke-width:1.081625;stroke-linecap:round;stroke-linejoin:round;stroke:rgb(14.901961%,19.607843%,21.960784%);stroke-opacity:1;stroke-miterlimit:4;" d="M 190.195312 357.734375 L 185.273438 355.273438 L 184.414062 351.914062 L 189.179688 354.179688 Z M 190.195312 357.734375 " transform="matrix(0.1,0,0,0.1,0,0)"/>
<path style="fill-rule:nonzero;fill:rgb(100%,100%,100%);fill-opacity:1;stroke-width:1.081625;stroke-linecap:round;stroke-linejoin:round;stroke:rgb(14.901961%,19.607843%,21.960784%);stroke-opacity:1;stroke-miterlimit:4;" d="M 208.4375 323.320312 L 190.195312 322.695312 L 184.414062 351.914062 L 189.179688 354.179688 Z M 208.4375 323.320312 " transform="matrix(0.1,0,0,0.1,0,0)"/>
<path style="fill-rule:nonzero;fill:rgb(100%,100%,100%);fill-opacity:1;stroke-width:1.081625;stroke-linecap:round;stroke-linejoin:round;stroke:rgb(14.901961%,19.607843%,21.960784%);stroke-opacity:1;stroke-miterlimit:4;" d="M 210.9375 324.570312 L 192.695312 355.234375 L 198.710938 358.125 L 225.625 336.171875 Z M 210.9375 324.570312 " transform="matrix(0.1,0,0,0.1,0,0)"/>
<path style="fill-rule:nonzero;fill:rgb(100%,100%,100%);fill-opacity:1;stroke-width:1.081625;stroke-linecap:round;stroke-linejoin:round;stroke:rgb(14.901961%,19.607843%,21.960784%);stroke-opacity:1;stroke-miterlimit:4;" d="M 198.710938 358.125 L 199.53125 361.25 L 226.679688 339.6875 L 225.625 336.171875 Z M 198.710938 358.125 " transform="matrix(0.1,0,0,0.1,0,0)"/>
<path style="fill-rule:nonzero;fill:rgb(100%,100%,100%);fill-opacity:1;stroke-width:1.081625;stroke-linecap:round;stroke-linejoin:round;stroke:rgb(14.901961%,19.607843%,21.960784%);stroke-opacity:1;stroke-miterlimit:4;" d="M 198.710938 358.125 L 192.695312 355.234375 L 193.515625 358.359375 L 199.53125 361.25 Z M 198.710938 358.125 " transform="matrix(0.1,0,0,0.1,0,0)"/>
<path style=" stroke:none;fill-rule:nonzero;fill:rgb(14.901961%,19.607843%,21.960784%);fill-opacity:1;" d="M 20.792969 33.242188 C 20.59375 33.242188 20.414062 33.117188 20.347656 32.929688 C 20.28125 32.742188 20.339844 32.53125 20.492188 32.40625 C 24.246094 29.351562 23.480469 24.800781 23.472656 24.753906 C 23.433594 24.5 23.605469 24.261719 23.859375 24.214844 C 24.109375 24.171875 24.351562 24.335938 24.402344 24.585938 C 24.441406 24.796875 25.269531 29.738281 21.089844 33.136719 C 21.007812 33.207031 20.902344 33.242188 20.792969 33.242188 Z M 20.792969 33.242188 "/>
<path style="fill-rule:nonzero;fill:rgb(67.843137%,67.843137%,67.843137%);fill-opacity:1;stroke-width:1.081625;stroke-linecap:round;stroke-linejoin:round;stroke:rgb(14.901961%,19.607843%,21.960784%);stroke-opacity:1;stroke-miterlimit:4;" d="M 262.975794 234.519175 C 263.000793 244.723732 254.719322 252.985021 244.50854 252.971457 C 234.303983 252.996456 226.004131 244.72121 226.017695 234.510428 C 226.031259 224.299646 234.31273 216.038357 244.478724 216.019583 C 254.689506 216.033147 262.989358 224.308393 262.975794 234.519175 Z M 262.975794 234.519175 " transform="matrix(0.0159364,-0.098722,0.098722,0.0159364,-2.597,43.853)"/>
<path style="fill-rule:nonzero;fill:rgb(99.607843%,73.333333%,45.490196%);fill-opacity:1;stroke-width:1.081625;stroke-linecap:round;stroke-linejoin:round;stroke:rgb(14.901961%,19.607843%,21.960784%);stroke-opacity:1;stroke-miterlimit:4;" d="M 216.585481 329.070702 C 216.585481 334.208275 212.442277 338.351479 207.332326 338.323857 C 202.249996 338.323857 198.106792 334.180654 198.106792 329.098324 C 198.079171 323.988372 202.222375 319.845168 207.359947 319.845168 C 212.442277 319.845168 216.585481 323.988372 216.585481 329.070702 Z M 216.585481 329.070702 " transform="matrix(0.0707107,-0.0707107,0.0707107,0.0707107,-17.197,24.3)"/>
<path style="fill-rule:nonzero;fill:rgb(67.843137%,67.843137%,67.843137%);fill-opacity:1;stroke-width:1.081625;stroke-linecap:round;stroke-linejoin:round;stroke:rgb(14.901961%,19.607843%,21.960784%);stroke-opacity:1;stroke-miterlimit:4;" d="M 323.320312 283.28125 C 323.320312 268.164062 310.195312 255.898438 293.984375 255.898438 C 277.773438 255.898438 264.648438 268.164062 264.648438 283.28125 C 264.648438 298.398438 277.773438 310.625 293.984375 310.625 C 310.195312 310.625 323.320312 298.398438 323.320312 283.28125 Z M 323.320312 283.28125 " transform="matrix(0.1,0,0,0.1,0,0)"/>
<path style="fill-rule:nonzero;fill:rgb(14.901961%,19.607843%,21.960784%);fill-opacity:1;stroke-width:1.081625;stroke-linecap:round;stroke-linejoin:round;stroke:rgb(14.901961%,19.607843%,21.960784%);stroke-opacity:1;stroke-miterlimit:4;" d="M 278.710938 271.5625 L 281.445312 282.265625 C 283.125 287.734375 288.476562 291.210938 294.140625 290.507812 C 299.804688 289.804688 304.140625 285.117188 304.414062 279.414062 L 304.960938 268.632812 Z M 278.710938 271.5625 " transform="matrix(0.1,0,0,0.1,0,0)"/>
<path style=" stroke:none;fill-rule:nonzero;fill:rgb(14.901961%,19.607843%,21.960784%);fill-opacity:1;" d="M 33.652344 21.777344 C 33.375 21.78125 33.101562 21.746094 32.835938 21.667969 L 32.910156 21.445312 C 32.925781 21.445312 34.238281 21.871094 35.574219 20.894531 L 35.714844 21.085938 C 35.117188 21.53125 34.398438 21.773438 33.652344 21.777344 Z M 33.652344 21.777344 "/>
<path style=" stroke:none;fill-rule:nonzero;fill:rgb(14.901961%,19.607843%,21.960784%);fill-opacity:1;" d="M 35.128906 23.554688 C 34.046875 21.972656 32.8125 22.089844 32.800781 22.09375 L 32.777344 21.859375 C 32.832031 21.851562 34.160156 21.722656 35.320312 23.421875 Z M 35.128906 23.554688 "/>
<path style=" stroke:none;fill-rule:nonzero;fill:rgb(14.901961%,19.607843%,21.960784%);fill-opacity:1;" d="M 34.851562 24.671875 C 33.453125 24.238281 32.613281 22.375 32.574219 22.296875 L 32.792969 22.195312 C 32.800781 22.214844 33.625 24.039062 34.921875 24.441406 Z M 34.851562 24.671875 "/>
<path style="fill:none;stroke-width:1.081625;stroke-linecap:butt;stroke-linejoin:miter;stroke:rgb(14.901961%,19.607843%,21.960784%);stroke-opacity:1;stroke-miterlimit:10;" d="M 355.820312 210.507812 L 359.609375 208.007812 " transform="matrix(0.1,0,0,0.1,0,0)"/>
<path style="fill:none;stroke-width:1.081625;stroke-linecap:butt;stroke-linejoin:miter;stroke:rgb(14.901961%,19.607843%,21.960784%);stroke-opacity:1;stroke-miterlimit:10;" d="M 351.171875 232.773438 L 353.710938 237.8125 " transform="matrix(0.1,0,0,0.1,0,0)"/>
<path style="fill:none;stroke-width:1.081625;stroke-linecap:butt;stroke-linejoin:miter;stroke:rgb(14.901961%,19.607843%,21.960784%);stroke-opacity:1;stroke-miterlimit:10;" d="M 346.796875 244.726562 C 348.789062 245.234375 350.820312 245.507812 352.851562 245.585938 " transform="matrix(0.1,0,0,0.1,0,0)"/>
<path style="fill-rule:nonzero;fill:rgb(100%,100%,100%);fill-opacity:1;stroke-width:1.081625;stroke-linecap:round;stroke-linejoin:round;stroke:rgb(14.901961%,19.607843%,21.960784%);stroke-opacity:1;stroke-miterlimit:4;" d="M 240.625 214.335938 L 244.101562 238.710938 L 330.976562 229.84375 L 330.664062 204.492188 Z M 240.625 214.335938 " transform="matrix(0.1,0,0,0.1,0,0)"/>
<path style="fill-rule:nonzero;fill:rgb(89.803922%,89.803922%,89.803922%);fill-opacity:1;stroke-width:1.081625;stroke-linecap:round;stroke-linejoin:round;stroke:rgb(14.901961%,19.607843%,21.960784%);stroke-opacity:1;stroke-miterlimit:4;" d="M 244.101562 238.710938 L 259.648438 278.046875 L 326.523438 271.367188 L 330.976562 229.84375 Z M 244.101562 238.710938 " transform="matrix(0.1,0,0,0.1,0,0)"/>
<path style=" stroke:none;fill-rule:nonzero;fill:rgb(14.901961%,19.607843%,21.960784%);fill-opacity:1;" d="M 26.507812 24.898438 L 27.117188 26.699219 C 27.207031 26.96875 27.472656 27.136719 27.753906 27.101562 L 30.433594 26.808594 C 30.710938 26.773438 30.925781 26.550781 30.953125 26.269531 L 31.117188 24.378906 C 31.128906 24.25 31.082031 24.128906 30.992188 24.039062 C 30.902344 23.953125 30.777344 23.910156 30.652344 23.921875 L 26.859375 24.347656 C 26.734375 24.359375 26.621094 24.429688 26.550781 24.539062 C 26.484375 24.644531 26.464844 24.777344 26.507812 24.898438 Z M 26.507812 24.898438 "/>
<g clip-path="url(#clip1)" clip-rule="nonzero">
<g clip-path="url(#clip2)" clip-rule="nonzero">
<path style="fill:none;stroke-width:1.081625;stroke-linecap:round;stroke-linejoin:round;stroke:rgb(100%,100%,100%);stroke-opacity:1;stroke-miterlimit:4;" d="M 265.078125 258.90625 L 276.132812 257.890625 L 279.648438 248.398438 L 287.890625 263.242188 L 292.109375 252.148438 L 294.21875 255.664062 L 314.257812 253.28125 " transform="matrix(0.1,0,0,0.1,0,0)"/>
</g>
</g>
<path style="fill:none;stroke-width:1.081625;stroke-linecap:round;stroke-linejoin:round;stroke:rgb(14.901961%,19.607843%,21.960784%);stroke-opacity:1;stroke-miterlimit:4;" d="M 265.078125 248.984375 L 271.171875 266.992188 C 272.070312 269.6875 274.726562 271.367188 277.539062 271.015625 L 304.335938 268.085938 C 307.109375 267.734375 309.257812 265.507812 309.53125 262.695312 L 311.171875 243.789062 C 311.289062 242.5 310.820312 241.289062 309.921875 240.390625 C 309.023438 239.53125 307.773438 239.101562 306.523438 239.21875 L 268.59375 243.476562 C 267.34375 243.59375 266.210938 244.296875 265.507812 245.390625 C 264.84375 246.445312 264.648438 247.773438 265.078125 248.984375 Z M 265.078125 248.984375 " transform="matrix(0.1,0,0,0.1,0,0)"/>
<path style="fill-rule:nonzero;fill:rgb(100%,100%,100%);fill-opacity:1;stroke-width:1.081625;stroke-linecap:round;stroke-linejoin:round;stroke:rgb(14.901961%,19.607843%,21.960784%);stroke-opacity:1;stroke-miterlimit:4;" d="M 325.742188 241.328125 C 325.742188 244.023438 323.554688 246.171875 320.898438 246.171875 C 318.203125 246.171875 316.015625 244.023438 316.015625 241.328125 C 316.015625 238.632812 318.203125 236.445312 320.898438 236.445312 C 323.554688 236.445312 325.742188 238.632812 325.742188 241.328125 Z M 325.742188 241.328125 " transform="matrix(0.1,0,0,0.1,0,0)"/>
<path style="fill-rule:nonzero;fill:rgb(99.607843%,73.333333%,45.490196%);fill-opacity:1;stroke-width:1.081625;stroke-linecap:round;stroke-linejoin:round;stroke:rgb(14.901961%,19.607843%,21.960784%);stroke-opacity:1;stroke-miterlimit:4;" d="M 324.84375 256.523438 C 324.84375 259.023438 322.8125 261.09375 320.273438 261.09375 C 317.773438 261.09375 315.742188 259.023438 315.742188 256.523438 C 315.742188 253.984375 317.773438 251.953125 320.273438 251.953125 C 322.8125 251.953125 324.84375 253.984375 324.84375 256.523438 Z M 324.84375 256.523438 " transform="matrix(0.1,0,0,0.1,0,0)"/>
<path style="fill-rule:nonzero;fill:rgb(99.607843%,73.333333%,45.490196%);fill-opacity:1;stroke-width:1.081625;stroke-linecap:round;stroke-linejoin:round;stroke:rgb(14.901961%,19.607843%,21.960784%);stroke-opacity:1;stroke-miterlimit:4;" d="M 261.71875 246.601562 C 262.5 249.179688 261.054688 251.875 258.476562 252.65625 C 255.898438 253.4375 253.203125 251.992188 252.421875 249.414062 C 251.640625 246.835938 253.085938 244.140625 255.664062 243.359375 C 256.914062 242.96875 258.242188 243.085938 259.375 243.710938 C 260.507812 244.335938 261.367188 245.351562 261.71875 246.601562 Z M 261.71875 246.601562 " transform="matrix(0.1,0,0,0.1,0,0)"/>
<path style="fill-rule:nonzero;fill:rgb(100%,100%,100%);fill-opacity:1;stroke-width:1.081625;stroke-linecap:round;stroke-linejoin:round;stroke:rgb(14.901961%,19.607843%,21.960784%);stroke-opacity:1;stroke-miterlimit:4;" d="M 265.446505 262.721568 C 265.415973 265.256537 263.376336 267.279743 260.862642 267.281971 C 258.348947 267.284199 256.325741 265.244563 256.323513 262.730868 C 256.321285 260.217174 258.339647 258.161207 260.853341 258.158979 C 263.388311 258.189512 265.444277 260.207874 265.446505 262.721568 Z M 265.446505 262.721568 " transform="matrix(0.0544639,-0.0838671,0.0838671,0.0544639,-10.155,33.844)"/>
<path style="fill-rule:nonzero;fill:rgb(99.607843%,73.333333%,45.490196%);fill-opacity:1;stroke-width:1.081625;stroke-linecap:round;stroke-linejoin:round;stroke:rgb(14.901961%,19.607843%,21.960784%);stroke-opacity:1;stroke-miterlimit:4;" d="M 289.296875 302.734375 C 289.296875 295.820312 283.515625 290.273438 276.367188 290.273438 C 269.21875 290.273438 263.4375 295.820312 263.4375 302.734375 C 263.4375 309.609375 269.21875 315.195312 276.367188 315.195312 C 283.515625 315.195312 289.296875 309.609375 289.296875 302.734375 Z M 289.296875 302.734375 " transform="matrix(0.1,0,0,0.1,0,0)"/>
<path style="fill-rule:nonzero;fill:rgb(14.901961%,19.607843%,21.960784%);fill-opacity:1;stroke-width:1.081625;stroke-linecap:round;stroke-linejoin:round;stroke:rgb(14.901961%,19.607843%,21.960784%);stroke-opacity:1;stroke-miterlimit:4;" d="M 257.382812 330.664062 L 269.21875 304.101562 C 270.234375 301.757812 272.890625 300.546875 275.351562 301.328125 C 277.929688 302.109375 279.453125 304.726562 278.828125 307.34375 L 271.054688 342.265625 Z M 257.382812 330.664062 " transform="matrix(0.1,0,0,0.1,0,0)"/>
<path style="fill-rule:nonzero;fill:rgb(67.843137%,67.843137%,67.843137%);fill-opacity:1;stroke-width:1.081625;stroke-linecap:round;stroke-linejoin:round;stroke:rgb(14.901961%,19.607843%,21.960784%);stroke-opacity:1;stroke-miterlimit:4;" d="M 253.4375 290 L 279.257812 350.78125 L 248.242188 355.039062 C 248.242188 355.039062 229.726562 336.210938 217.265625 300.351562 Z M 253.4375 290 " transform="matrix(0.1,0,0,0.1,0,0)"/>
<path style="fill-rule:nonzero;fill:rgb(100%,100%,100%);fill-opacity:1;stroke-width:1.081625;stroke-linecap:round;stroke-linejoin:round;stroke:rgb(14.901961%,19.607843%,21.960784%);stroke-opacity:1;stroke-miterlimit:4;" d="M 253.4375 289.960938 L 254.648438 284.179688 L 280.46875 346.171875 L 279.257812 350.742188 Z M 253.4375 289.960938 " transform="matrix(0.1,0,0,0.1,0,0)"/>
<path style="fill-rule:nonzero;fill:rgb(100%,100%,100%);fill-opacity:1;stroke-width:1.081625;stroke-linecap:round;stroke-linejoin:round;stroke:rgb(14.901961%,19.607843%,21.960784%);stroke-opacity:1;stroke-miterlimit:4;" d="M 254.648438 284.179688 L 219.375 294.804688 L 217.265625 300.273438 L 253.4375 289.960938 Z M 254.648438 284.179688 " transform="matrix(0.1,0,0,0.1,0,0)"/>
<path style="fill:none;stroke-width:1.081625;stroke-linecap:round;stroke-linejoin:round;stroke:rgb(14.901961%,19.607843%,21.960784%);stroke-opacity:1;stroke-miterlimit:4;" d="M 219.6875 306.054688 L 255.234375 295.117188 " transform="matrix(0.1,0,0,0.1,0,0)"/>
<path style="fill:none;stroke-width:1.081625;stroke-linecap:round;stroke-linejoin:round;stroke:rgb(14.901961%,19.607843%,21.960784%);stroke-opacity:1;stroke-miterlimit:4;" d="M 222.421875 312.421875 L 258.28125 302.734375 " transform="matrix(0.1,0,0,0.1,0,0)"/>
<path style="fill:none;stroke-width:1.081625;stroke-linecap:round;stroke-linejoin:round;stroke:rgb(14.901961%,19.607843%,21.960784%);stroke-opacity:1;stroke-miterlimit:4;" d="M 225.15625 319.140625 L 261.328125 309.414062 " transform="matrix(0.1,0,0,0.1,0,0)"/>
<path style="fill:none;stroke-width:1.081625;stroke-linecap:round;stroke-linejoin:round;stroke:rgb(14.901961%,19.607843%,21.960784%);stroke-opacity:1;stroke-miterlimit:4;" d="M 229.101562 327.34375 L 264.375 316.992188 " transform="matrix(0.1,0,0,0.1,0,0)"/>
<path style="fill:none;stroke-width:1.081625;stroke-linecap:round;stroke-linejoin:round;stroke:rgb(14.901961%,19.607843%,21.960784%);stroke-opacity:1;stroke-miterlimit:4;" d="M 232.851562 333.867188 L 268.007812 324.609375 " transform="matrix(0.1,0,0,0.1,0,0)"/>
<path style="fill:none;stroke-width:1.081625;stroke-linecap:round;stroke-linejoin:round;stroke:rgb(14.901961%,19.607843%,21.960784%);stroke-opacity:1;stroke-miterlimit:4;" d="M 236.71875 339.804688 L 271.054688 331.601562 " transform="matrix(0.1,0,0,0.1,0,0)"/>
<path style="fill:none;stroke-width:1.081625;stroke-linecap:round;stroke-linejoin:round;stroke:rgb(14.901961%,19.607843%,21.960784%);stroke-opacity:1;stroke-miterlimit:4;" d="M 241.132812 345.546875 L 273.164062 337.96875 " transform="matrix(0.1,0,0,0.1,0,0)"/>
<path style="fill-rule:nonzero;fill:rgb(100%,100%,100%);fill-opacity:1;stroke-width:1.081625;stroke-linecap:round;stroke-linejoin:round;stroke:rgb(14.901961%,19.607843%,21.960784%);stroke-opacity:1;stroke-miterlimit:4;" d="M 244.296875 350.234375 L 276.09375 344.960938 " transform="matrix(0.1,0,0,0.1,0,0)"/>
<path style="fill-rule:nonzero;fill:rgb(99.607843%,73.333333%,45.490196%);fill-opacity:1;stroke-width:1.081625;stroke-linecap:round;stroke-linejoin:round;stroke:rgb(14.901961%,19.607843%,21.960784%);stroke-opacity:1;stroke-miterlimit:4;" d="M 323.710938 302.734375 C 323.710938 295.820312 317.929688 290.273438 310.78125 290.273438 C 303.632812 290.273438 297.851562 295.820312 297.851562 302.734375 C 297.851562 309.609375 303.632812 315.195312 310.78125 315.195312 C 317.929688 315.195312 323.710938 309.609375 323.710938 302.734375 Z M 323.710938 302.734375 " transform="matrix(0.1,0,0,0.1,0,0)"/>
<path style="fill-rule:nonzero;fill:rgb(14.901961%,19.607843%,21.960784%);fill-opacity:1;stroke-width:1.081625;stroke-linecap:round;stroke-linejoin:round;stroke:rgb(14.901961%,19.607843%,21.960784%);stroke-opacity:1;stroke-miterlimit:4;" d="M 329.765625 330.664062 L 317.929688 304.101562 C 316.875 301.757812 314.21875 300.546875 311.757812 301.328125 C 309.21875 302.109375 307.695312 304.726562 308.320312 307.34375 L 316.09375 342.265625 Z M 329.765625 330.664062 " transform="matrix(0.1,0,0,0.1,0,0)"/>
<path style="fill-rule:nonzero;fill:rgb(67.843137%,67.843137%,67.843137%);fill-opacity:1;stroke-width:1.081625;stroke-linecap:round;stroke-linejoin:round;stroke:rgb(14.901961%,19.607843%,21.960784%);stroke-opacity:1;stroke-miterlimit:4;" d="M 333.710938 290 L 307.890625 350.78125 L 338.90625 355.039062 C 338.90625 355.039062 357.421875 336.210938 369.882812 300.351562 Z M 333.710938 290 " transform="matrix(0.1,0,0,0.1,0,0)"/>
<path style="fill-rule:nonzero;fill:rgb(100%,100%,100%);fill-opacity:1;stroke-width:1.081625;stroke-linecap:round;stroke-linejoin:round;stroke:rgb(14.901961%,19.607843%,21.960784%);stroke-opacity:1;stroke-miterlimit:4;" d="M 333.710938 289.960938 L 332.5 284.179688 L 306.679688 346.171875 L 307.890625 350.742188 Z M 333.710938 289.960938 " transform="matrix(0.1,0,0,0.1,0,0)"/>
<path style="fill-rule:nonzero;fill:rgb(100%,100%,100%);fill-opacity:1;stroke-width:1.081625;stroke-linecap:round;stroke-linejoin:round;stroke:rgb(14.901961%,19.607843%,21.960784%);stroke-opacity:1;stroke-miterlimit:4;" d="M 332.5 284.179688 L 367.773438 294.804688 L 369.882812 300.273438 L 333.710938 289.960938 Z M 332.5 284.179688 " transform="matrix(0.1,0,0,0.1,0,0)"/>
<path style="fill:none;stroke-width:1.081625;stroke-linecap:round;stroke-linejoin:round;stroke:rgb(14.901961%,19.607843%,21.960784%);stroke-opacity:1;stroke-miterlimit:4;" d="M 367.460938 306.054688 L 331.914062 295.117188 " transform="matrix(0.1,0,0,0.1,0,0)"/>
<path style="fill:none;stroke-width:1.081625;stroke-linecap:round;stroke-linejoin:round;stroke:rgb(14.901961%,19.607843%,21.960784%);stroke-opacity:1;stroke-miterlimit:4;" d="M 364.726562 312.421875 L 328.867188 302.734375 " transform="matrix(0.1,0,0,0.1,0,0)"/>
<path style="fill:none;stroke-width:1.081625;stroke-linecap:round;stroke-linejoin:round;stroke:rgb(14.901961%,19.607843%,21.960784%);stroke-opacity:1;stroke-miterlimit:4;" d="M 361.992188 319.140625 L 325.820312 309.414062 " transform="matrix(0.1,0,0,0.1,0,0)"/>
<path style="fill:none;stroke-width:1.081625;stroke-linecap:round;stroke-linejoin:round;stroke:rgb(14.901961%,19.607843%,21.960784%);stroke-opacity:1;stroke-miterlimit:4;" d="M 358.046875 327.34375 L 322.773438 316.992188 " transform="matrix(0.1,0,0,0.1,0,0)"/>
<path style="fill:none;stroke-width:1.081625;stroke-linecap:round;stroke-linejoin:round;stroke:rgb(14.901961%,19.607843%,21.960784%);stroke-opacity:1;stroke-miterlimit:4;" d="M 354.296875 333.867188 L 319.140625 324.609375 " transform="matrix(0.1,0,0,0.1,0,0)"/>
<path style="fill:none;stroke-width:1.081625;stroke-linecap:round;stroke-linejoin:round;stroke:rgb(14.901961%,19.607843%,21.960784%);stroke-opacity:1;stroke-miterlimit:4;" d="M 350.429688 339.804688 L 316.09375 331.601562 " transform="matrix(0.1,0,0,0.1,0,0)"/>
<path style="fill:none;stroke-width:1.081625;stroke-linecap:round;stroke-linejoin:round;stroke:rgb(14.901961%,19.607843%,21.960784%);stroke-opacity:1;stroke-miterlimit:4;" d="M 346.015625 345.546875 L 313.984375 337.96875 " transform="matrix(0.1,0,0,0.1,0,0)"/>
<path style="fill:none;stroke-width:1.081625;stroke-linecap:round;stroke-linejoin:round;stroke:rgb(14.901961%,19.607843%,21.960784%);stroke-opacity:1;stroke-miterlimit:4;" d="M 342.851562 350.234375 L 311.015625 344.960938 " transform="matrix(0.1,0,0,0.1,0,0)"/>
<path style="fill:none;stroke-width:1.081625;stroke-linecap:butt;stroke-linejoin:miter;stroke:rgb(14.901961%,19.607843%,21.960784%);stroke-opacity:1;stroke-miterlimit:10;" d="M 357.265625 238.007812 L 360.625 239.492188 " transform="matrix(0.1,0,0,0.1,0,0)"/>
<path style="fill:none;stroke-width:1.081625;stroke-linecap:butt;stroke-linejoin:miter;stroke:rgb(14.901961%,19.607843%,21.960784%);stroke-opacity:1;stroke-miterlimit:10;" d="M 355.195312 239.257812 L 358.554688 244.53125 " transform="matrix(0.1,0,0,0.1,0,0)"/>
<path style="fill:none;stroke-width:1.081625;stroke-linecap:butt;stroke-linejoin:miter;stroke:rgb(14.901961%,19.607843%,21.960784%);stroke-opacity:1;stroke-miterlimit:10;" d="M 353.28125 239.492188 L 352.65625 242.851562 " transform="matrix(0.1,0,0,0.1,0,0)"/>
<path style="fill:none;stroke-width:1.081625;stroke-linecap:butt;stroke-linejoin:miter;stroke:rgb(14.901961%,19.607843%,21.960784%);stroke-opacity:1;stroke-miterlimit:10;" d="M 361.484375 217.65625 L 369.648438 217.65625 " transform="matrix(0.1,0,0,0.1,0,0)"/>
<path style="fill:none;stroke-width:1.081625;stroke-linecap:butt;stroke-linejoin:miter;stroke:rgb(14.901961%,19.607843%,21.960784%);stroke-opacity:1;stroke-miterlimit:10;" d="M 355.195312 218.085938 L 366.914062 221.445312 " transform="matrix(0.1,0,0,0.1,0,0)"/>
<path style="fill:none;stroke-width:1.081625;stroke-linecap:butt;stroke-linejoin:miter;stroke:rgb(14.901961%,19.607843%,21.960784%);stroke-opacity:1;stroke-miterlimit:10;" d="M 359.609375 213.671875 L 367.148438 212.617188 " transform="matrix(0.1,0,0,0.1,0,0)"/>
<path style="fill:none;stroke-width:1.081625;stroke-linecap:butt;stroke-linejoin:miter;stroke:rgb(14.901961%,19.607843%,21.960784%);stroke-opacity:1;stroke-miterlimit:10;" d="M 332.5 239.6875 L 334.609375 245.78125 " transform="matrix(0.1,0,0,0.1,0,0)"/>
<path style="fill:none;stroke-width:1.081625;stroke-linecap:butt;stroke-linejoin:miter;stroke:rgb(14.901961%,19.607843%,21.960784%);stroke-opacity:1;stroke-miterlimit:10;" d="M 335.234375 239.257812 L 341.09375 248.945312 " transform="matrix(0.1,0,0,0.1,0,0)"/>
<path style="fill:none;stroke-width:1.081625;stroke-linecap:butt;stroke-linejoin:miter;stroke:rgb(14.901961%,19.607843%,21.960784%);stroke-opacity:1;stroke-miterlimit:10;" d="M 337.34375 233.59375 L 343.007812 235.507812 " transform="matrix(0.1,0,0,0.1,0,0)"/>
<path style="fill-rule:nonzero;fill:rgb(99.607843%,73.333333%,45.490196%);fill-opacity:1;stroke-width:0.540812;stroke-linecap:round;stroke-linejoin:round;stroke:rgb(14.901961%,19.607843%,21.960784%);stroke-opacity:1;stroke-miterlimit:4;" d="M 368.59375 230.46875 L 366.71875 232.539062 L 368.085938 234.960938 L 365.546875 233.789062 L 363.632812 235.859375 L 363.984375 233.085938 L 361.445312 231.914062 L 364.179688 231.367188 L 364.492188 228.554688 L 365.859375 231.015625 Z M 368.59375 230.46875 " transform="matrix(0.1,0,0,0.1,0,0)"/>
<path style="fill-rule:nonzero;fill:rgb(99.607843%,73.333333%,45.490196%);fill-opacity:1;stroke-width:0.540812;stroke-linecap:round;stroke-linejoin:round;stroke:rgb(14.901961%,19.607843%,21.960784%);stroke-opacity:1;stroke-miterlimit:4;" d="M 371.5625 202.734375 L 369.648438 204.804688 L 371.015625 207.265625 L 368.476562 206.09375 L 366.601562 208.125 L 366.914062 205.351562 L 364.375 204.179688 L 367.109375 203.632812 L 367.421875 200.859375 L 368.828125 203.28125 Z M 371.5625 202.734375 " transform="matrix(0.1,0,0,0.1,0,0)"/>
<path style="fill-rule:nonzero;fill:rgb(99.607843%,73.333333%,45.490196%);fill-opacity:1;stroke-width:0.540812;stroke-linecap:round;stroke-linejoin:round;stroke:rgb(14.901961%,19.607843%,21.960784%);stroke-opacity:1;stroke-miterlimit:4;" d="M 340.898438 251.25 L 339.023438 253.28125 L 340.390625 255.742188 L 337.851562 254.570312 L 335.9375 256.640625 L 336.25 253.867188 L 333.710938 252.695312 L 336.445312 252.148438 L 336.796875 249.335938 L 338.164062 251.796875 Z M 340.898438 251.25 " transform="matrix(0.1,0,0,0.1,0,0)"/>
<path style="fill-rule:nonzero;fill:rgb(67.843137%,67.843137%,67.843137%);fill-opacity:1;stroke-width:1.081625;stroke-linecap:round;stroke-linejoin:round;stroke:rgb(14.901961%,19.607843%,21.960784%);stroke-opacity:1;stroke-miterlimit:4;" d="M 264.414062 191.484375 C 264.414062 183.789062 258.085938 177.539062 250.3125 177.539062 C 242.5 177.539062 236.171875 183.789062 236.171875 191.484375 C 236.171875 199.21875 242.5 205.46875 250.3125 205.46875 C 258.085938 205.46875 264.414062 199.21875 264.414062 191.484375 Z M 264.414062 191.484375 " transform="matrix(0.1,0,0,0.1,0,0)"/>
<path style="fill-rule:nonzero;fill:rgb(67.843137%,67.843137%,67.843137%);fill-opacity:1;stroke-width:1.081625;stroke-linecap:round;stroke-linejoin:round;stroke:rgb(14.901961%,19.607843%,21.960784%);stroke-opacity:1;stroke-miterlimit:4;" d="M 325.898438 187.695312 C 325.898438 180 319.570312 173.75 311.796875 173.75 C 303.984375 173.75 297.695312 180 297.695312 187.695312 C 297.695312 195.390625 303.984375 201.640625 311.796875 201.640625 C 319.570312 201.640625 325.898438 195.390625 325.898438 187.695312 Z M 325.898438 187.695312 " transform="matrix(0.1,0,0,0.1,0,0)"/>
<path style="fill-rule:nonzero;fill:rgb(99.607843%,73.333333%,45.490196%);fill-opacity:1;stroke-width:1.081625;stroke-linecap:round;stroke-linejoin:round;stroke:rgb(14.901961%,19.607843%,21.960784%);stroke-opacity:1;stroke-miterlimit:4;" d="M 301.171875 216.992188 C 301.171875 207.65625 293.242188 200.039062 283.4375 200.039062 C 273.632812 200.039062 265.664062 207.65625 265.664062 216.992188 C 265.664062 226.367188 273.632812 233.984375 283.4375 233.984375 C 293.242188 233.984375 301.171875 226.367188 301.171875 216.992188 Z M 301.171875 216.992188 " transform="matrix(0.1,0,0,0.1,0,0)"/>
<path style="fill-rule:nonzero;fill:rgb(14.901961%,19.607843%,21.960784%);fill-opacity:1;stroke-width:1.081625;stroke-linecap:round;stroke-linejoin:round;stroke:rgb(14.901961%,19.607843%,21.960784%);stroke-opacity:1;stroke-miterlimit:4;" d="M 270.429688 208.28125 L 272.890625 219.0625 C 274.375 224.570312 279.648438 228.203125 285.3125 227.617188 C 291.015625 227.070312 295.46875 222.539062 295.898438 216.835938 L 296.757812 206.09375 Z M 270.429688 208.28125 " transform="matrix(0.1,0,0,0.1,0,0)"/>
<path style="fill-rule:nonzero;fill:rgb(100%,100%,100%);fill-opacity:1;stroke-width:1.081625;stroke-linecap:round;stroke-linejoin:round;stroke:rgb(14.901961%,19.607843%,21.960784%);stroke-opacity:1;stroke-miterlimit:4;" d="M 254.257812 162.96875 L 247.617188 189.609375 L 313.867188 184.21875 L 304.023438 158.867188 Z M 254.257812 162.96875 " transform="matrix(0.1,0,0,0.1,0,0)"/>
<path style="fill-rule:nonzero;fill:rgb(89.803922%,89.803922%,89.803922%);fill-opacity:1;stroke-width:1.081625;stroke-linecap:round;stroke-linejoin:round;stroke:rgb(14.901961%,19.607843%,21.960784%);stroke-opacity:1;stroke-miterlimit:4;" d="M 247.617188 189.609375 L 259.335938 218.75 L 311.328125 213.671875 L 313.867188 184.21875 Z M 247.617188 189.609375 " transform="matrix(0.1,0,0,0.1,0,0)"/>
<path style="fill-rule:nonzero;fill:rgb(99.607843%,73.333333%,45.490196%);fill-opacity:1;stroke-width:1.081625;stroke-linecap:round;stroke-linejoin:round;stroke:rgb(14.901961%,19.607843%,21.960784%);stroke-opacity:1;stroke-miterlimit:4;" d="M 277.382812 201.484375 C 277.226562 205.625 273.59375 208.90625 269.257812 209.21875 C 264.921875 209.53125 260.703125 206.835938 259.765625 202.734375 C 258.789062 198.046875 262.265625 193.4375 267.8125 193.085938 C 273.398438 192.734375 277.578125 196.757812 277.382812 201.484375 Z M 277.382812 201.484375 " transform="matrix(0.1,0,0,0.1,0,0)"/>
<path style="fill-rule:nonzero;fill:rgb(100%,100%,100%);fill-opacity:1;stroke-width:1.081625;stroke-linecap:round;stroke-linejoin:round;stroke:rgb(14.901961%,19.607843%,21.960784%);stroke-opacity:1;stroke-miterlimit:4;" d="M 274.101562 201.71875 C 273.984375 204.453125 271.796875 206.601562 269.101562 206.71875 C 266.328125 207.03125 263.789062 205.195312 263.203125 202.5 C 262.695312 199.6875 264.921875 196.992188 268.203125 196.796875 C 269.648438 196.601562 271.09375 197.070312 272.1875 197.96875 C 273.320312 198.90625 273.984375 200.273438 274.101562 201.71875 Z M 274.101562 201.71875 " transform="matrix(0.1,0,0,0.1,0,0)"/>
<path style="fill-rule:nonzero;fill:rgb(99.607843%,73.333333%,45.490196%);fill-opacity:1;stroke-width:1.081625;stroke-linecap:round;stroke-linejoin:round;stroke:rgb(14.901961%,19.607843%,21.960784%);stroke-opacity:1;stroke-miterlimit:4;" d="M 306.875 198.632812 C 306.71875 202.773438 303.085938 206.054688 298.75 206.367188 C 294.414062 206.71875 290.15625 203.984375 289.257812 199.882812 C 288.203125 195.195312 291.757812 190.585938 297.304688 190.195312 C 302.851562 189.84375 307.070312 193.90625 306.875 198.632812 Z M 306.875 198.632812 " transform="matrix(0.1,0,0,0.1,0,0)"/>
<path style="fill-rule:nonzero;fill:rgb(100%,100%,100%);fill-opacity:1;stroke-width:1.081625;stroke-linecap:round;stroke-linejoin:round;stroke:rgb(14.901961%,19.607843%,21.960784%);stroke-opacity:1;stroke-miterlimit:4;" d="M 303.554688 198.867188 C 303.4375 201.601562 301.289062 203.75 298.554688 203.867188 C 295.820312 204.179688 293.28125 202.34375 292.65625 199.648438 C 292.1875 196.796875 294.414062 194.140625 297.65625 193.945312 C 299.101562 193.75 300.546875 194.179688 301.679688 195.117188 C 302.773438 196.054688 303.476562 197.421875 303.554688 198.867188 Z M 303.554688 198.867188 " transform="matrix(0.1,0,0,0.1,0,0)"/>
<path style="fill-rule:nonzero;fill:rgb(14.901961%,19.607843%,21.960784%);fill-opacity:1;stroke-width:1.081625;stroke-linecap:round;stroke-linejoin:round;stroke:rgb(14.901961%,19.607843%,21.960784%);stroke-opacity:1;stroke-miterlimit:4;" d="M 277.734375 213.515625 C 276.445312 213.515625 275.390625 212.539062 275.351562 211.289062 C 275.273438 210 276.210938 208.90625 277.460938 208.789062 L 290.15625 207.539062 C 291.445312 207.382812 292.617188 208.359375 292.734375 209.648438 C 292.890625 210.9375 291.914062 212.109375 290.625 212.226562 L 278.007812 213.515625 Z M 277.734375 213.515625 " transform="matrix(0.1,0,0,0.1,0,0)"/>
<path style="fill-rule:nonzero;fill:rgb(99.607843%,73.333333%,45.490196%);fill-opacity:1;stroke-width:1.081625;stroke-linecap:round;stroke-linejoin:round;stroke:rgb(14.901961%,19.607843%,21.960784%);stroke-opacity:1;stroke-miterlimit:4;" d="M 260.273438 171.289062 C 260.273438 173.90625 258.125 176.054688 255.46875 176.054688 C 252.851562 176.054688 250.703125 173.90625 250.703125 171.289062 C 250.703125 168.632812 252.851562 166.484375 255.46875 166.484375 C 258.125 166.484375 260.273438 168.632812 260.273438 171.289062 Z M 260.273438 171.289062 " transform="matrix(0.1,0,0,0.1,0,0)"/>
<path style="fill-rule:nonzero;fill:rgb(99.607843%,73.333333%,45.490196%);fill-opacity:1;stroke-width:1.081625;stroke-linecap:round;stroke-linejoin:round;stroke:rgb(14.901961%,19.607843%,21.960784%);stroke-opacity:1;stroke-miterlimit:4;" d="M 256.601562 168.476562 C 256.601562 170.742188 254.765625 172.578125 252.539062 172.578125 C 250.273438 172.578125 248.4375 170.742188 248.4375 168.476562 C 248.4375 166.25 250.273438 164.414062 252.539062 164.414062 C 254.765625 164.414062 256.601562 166.25 256.601562 168.476562 Z M 256.601562 168.476562 " transform="matrix(0.1,0,0,0.1,0,0)"/>
<path style="fill-rule:nonzero;fill:rgb(99.607843%,73.333333%,45.490196%);fill-opacity:1;stroke-width:1.081625;stroke-linecap:round;stroke-linejoin:round;stroke:rgb(14.901961%,19.607843%,21.960784%);stroke-opacity:1;stroke-miterlimit:4;" d="M 251.71875 164.140625 C 251.71875 165.898438 250.273438 167.34375 248.515625 167.34375 C 246.71875 167.34375 245.273438 165.898438 245.273438 164.140625 C 245.273438 162.34375 246.71875 160.898438 248.515625 160.898438 C 249.375 160.898438 250.195312 161.25 250.78125 161.875 C 251.40625 162.460938 251.71875 163.28125 251.71875 164.140625 Z M 251.71875 164.140625 " transform="matrix(0.1,0,0,0.1,0,0)"/>
<path style="fill:none;stroke-width:1.081625;stroke-linecap:round;stroke-linejoin:round;stroke:rgb(14.901961%,19.607843%,21.960784%);stroke-opacity:1;stroke-miterlimit:4;" d="M 247.734375 163.007812 L 240.390625 156.210938 " transform="matrix(0.1,0,0,0.1,0,0)"/>
<path style="fill-rule:nonzero;fill:rgb(99.607843%,73.333333%,45.490196%);fill-opacity:1;stroke-width:1.081625;stroke-linecap:round;stroke-linejoin:round;stroke:rgb(14.901961%,19.607843%,21.960784%);stroke-opacity:1;stroke-miterlimit:4;" d="M 307.304688 167.96875 C 307.304688 170.625 305.15625 172.773438 302.539062 172.773438 C 299.882812 172.773438 297.734375 170.625 297.734375 167.96875 C 297.734375 165.3125 299.882812 163.164062 302.539062 163.164062 C 305.15625 163.164062 307.304688 165.3125 307.304688 167.96875 Z M 307.304688 167.96875 " transform="matrix(0.1,0,0,0.1,0,0)"/>
<path style="fill-rule:nonzero;fill:rgb(99.607843%,73.333333%,45.490196%);fill-opacity:1;stroke-width:1.081625;stroke-linecap:round;stroke-linejoin:round;stroke:rgb(14.901961%,19.607843%,21.960784%);stroke-opacity:1;stroke-miterlimit:4;" d="M 309.570312 165.195312 C 309.570312 167.421875 307.734375 169.257812 305.46875 169.257812 C 303.203125 169.257812 301.40625 167.421875 301.40625 165.195312 C 301.40625 162.929688 303.203125 161.09375 305.46875 161.09375 C 307.734375 161.09375 309.570312 162.929688 309.570312 165.195312 Z M 309.570312 165.195312 " transform="matrix(0.1,0,0,0.1,0,0)"/>
<path style="fill-rule:nonzero;fill:rgb(99.607843%,73.333333%,45.490196%);fill-opacity:1;stroke-width:1.081625;stroke-linecap:round;stroke-linejoin:round;stroke:rgb(14.901961%,19.607843%,21.960784%);stroke-opacity:1;stroke-miterlimit:4;" d="M 306.289062 160.820312 C 306.289062 162.617188 307.734375 164.0625 309.492188 164.023438 C 311.289062 164.023438 312.695312 162.578125 312.695312 160.820312 C 312.695312 159.023438 311.25 157.617188 309.492188 157.617188 C 308.632812 157.617188 307.8125 157.929688 307.226562 158.554688 C 306.601562 159.140625 306.25 159.960938 306.289062 160.820312 Z M 306.289062 160.820312 " transform="matrix(0.1,0,0,0.1,0,0)"/>
<path style="fill:none;stroke-width:1.081625;stroke-linecap:round;stroke-linejoin:round;stroke:rgb(14.901961%,19.607843%,21.960784%);stroke-opacity:1;stroke-miterlimit:4;" d="M 310.273438 159.6875 L 317.578125 152.890625 " transform="matrix(0.1,0,0,0.1,0,0)"/>
<path style="fill-rule:nonzero;fill:rgb(100%,100%,100%);fill-opacity:1;stroke-width:1.081625;stroke-linecap:round;stroke-linejoin:round;stroke:rgb(14.901961%,19.607843%,21.960784%);stroke-opacity:1;stroke-miterlimit:4;" d="M 299.53125 335.585938 C 299.53125 337.890625 298.007812 339.765625 296.132812 339.765625 C 294.257812 339.765625 292.734375 337.890625 292.734375 335.585938 C 292.734375 333.28125 294.257812 331.40625 296.132812 331.40625 C 298.007812 331.40625 299.53125 333.28125 299.53125 335.585938 Z M 299.53125 335.585938 " transform="matrix(0.1,0,0,0.1,0,0)"/>
<path style="fill-rule:nonzero;fill:rgb(100%,100%,100%);fill-opacity:1;stroke-width:1.081625;stroke-linecap:butt;stroke-linejoin:miter;stroke:rgb(14.901961%,19.607843%,21.960784%);stroke-opacity:1;stroke-miterlimit:10;" d="M 306.328125 339.0625 L 306.054688 339.0625 L 296.5625 337.695312 C 295.625 337.5 295 336.640625 295.117188 335.703125 C 295.273438 334.765625 296.132812 334.101562 297.070312 334.179688 L 306.5625 335.585938 C 307.5 335.664062 308.242188 336.484375 308.164062 337.460938 C 308.085938 338.398438 307.265625 339.140625 306.328125 339.101562 Z M 306.328125 339.0625 " transform="matrix(0.1,0,0,0.1,0,0)"/>
<path style="fill-rule:nonzero;fill:rgb(100%,100%,100%);fill-opacity:1;stroke-width:1.081625;stroke-linecap:round;stroke-linejoin:round;stroke:rgb(14.901961%,19.607843%,21.960784%);stroke-opacity:1;stroke-miterlimit:4;" d="M 173.671875 355.117188 C 172.421875 353.164062 172.695312 350.78125 174.335938 349.765625 C 175.976562 348.789062 178.203125 349.53125 179.453125 351.445312 C 180.664062 353.398438 180.390625 355.820312 178.789062 356.835938 C 177.1875 357.8125 174.921875 357.070312 173.671875 355.117188 Z M 173.671875 355.117188 " transform="matrix(0.1,0,0,0.1,0,0)"/>
<path style="fill-rule:nonzero;fill:rgb(100%,100%,100%);fill-opacity:1;stroke-width:1.081625;stroke-linecap:butt;stroke-linejoin:miter;stroke:rgb(14.901961%,19.607843%,21.960784%);stroke-opacity:1;stroke-miterlimit:10;" d="M 166.09375 355.78125 C 166.171875 355.742188 166.25 355.703125 166.328125 355.664062 L 175.078125 351.757812 C 175.976562 351.40625 176.953125 351.835938 177.34375 352.695312 C 177.734375 353.554688 177.382812 354.570312 176.523438 355 L 167.773438 358.90625 C 166.914062 359.257812 165.9375 358.945312 165.46875 358.125 C 165.039062 357.304688 165.3125 356.289062 166.09375 355.78125 Z M 166.09375 355.78125 " transform="matrix(0.1,0,0,0.1,0,0)"/>
<path style="fill-rule:nonzero;fill:rgb(100%,100%,100%);fill-opacity:1;stroke-width:1.081625;stroke-linecap:round;stroke-linejoin:round;stroke:rgb(14.901961%,19.607843%,21.960784%);stroke-opacity:1;stroke-miterlimit:4;" d="M 400.3125 310.3125 C 399.0625 308.359375 399.375 305.976562 400.9375 304.960938 C 402.539062 303.945312 404.84375 304.726562 406.054688 306.640625 C 407.304688 308.59375 407.03125 311.015625 405.429688 312.03125 C 403.828125 313.046875 401.523438 312.265625 400.3125 310.3125 Z M 400.3125 310.3125 " transform="matrix(0.1,0,0,0.1,0,0)"/>
<path style="fill-rule:nonzero;fill:rgb(100%,100%,100%);fill-opacity:1;stroke-width:1.081625;stroke-linecap:butt;stroke-linejoin:miter;stroke:rgb(14.901961%,19.607843%,21.960784%);stroke-opacity:1;stroke-miterlimit:10;" d="M 392.734375 311.015625 L 392.96875 310.898438 L 401.71875 306.953125 C 402.304688 306.679688 402.96875 306.71875 403.515625 307.109375 C 404.0625 307.460938 404.335938 308.125 404.257812 308.75 C 404.179688 309.414062 403.75 309.960938 403.164062 310.195312 L 394.414062 314.101562 C 393.554688 314.492188 392.578125 314.140625 392.109375 313.320312 C 391.679688 312.5 391.953125 311.484375 392.734375 311.015625 Z M 392.734375 311.015625 " transform="matrix(0.1,0,0,0.1,0,0)"/>
<path style="fill-rule:nonzero;fill:rgb(100%,100%,100%);fill-opacity:1;stroke-width:1.081625;stroke-linecap:butt;stroke-linejoin:miter;stroke:rgb(14.901961%,19.607843%,21.960784%);stroke-opacity:1;stroke-miterlimit:10;" d="M 231.171875 356.992188 C 227.1875 356.992188 223.945312 358.90625 223.945312 361.289062 C 223.945312 363.632812 227.1875 365.546875 231.171875 365.546875 C 235.15625 365.546875 238.398438 363.632812 238.398438 361.289062 C 238.398438 358.90625 235.15625 356.992188 231.171875 356.992188 Z M 231.171875 363.476562 C 229.101562 363.476562 227.460938 362.5 227.460938 361.289062 C 227.460938 360.078125 229.101562 359.0625 231.171875 359.0625 C 233.242188 359.0625 234.921875 360.078125 234.921875 361.289062 C 234.921875 362.5 233.242188 363.476562 231.171875 363.476562 Z M 231.171875 363.476562 " transform="matrix(0.1,0,0,0.1,0,0)"/>
<path style="fill-rule:nonzero;fill:rgb(100%,100%,100%);fill-opacity:1;stroke-width:1.081625;stroke-linecap:round;stroke-linejoin:round;stroke:rgb(14.901961%,19.607843%,21.960784%);stroke-opacity:1;stroke-miterlimit:4;" d="M 296.25 357.695312 L 291.328125 355.703125 L 286.40625 357.695312 L 285.15625 362.109375 L 288.59375 365.625 L 294.0625 365.625 L 297.460938 362.109375 Z M 292.734375 363.320312 L 289.921875 363.320312 L 288.203125 361.523438 L 288.828125 359.296875 L 291.328125 358.28125 L 293.828125 359.296875 L 294.453125 361.523438 Z M 292.734375 363.320312 " transform="matrix(0.1,0,0,0.1,0,0)"/>
<path style="fill-rule:nonzero;fill:rgb(100%,100%,100%);fill-opacity:1;stroke-width:1.081625;stroke-linecap:round;stroke-linejoin:round;stroke:rgb(14.901961%,19.607843%,21.960784%);stroke-opacity:1;stroke-miterlimit:4;" d="M 389.804688 293.789062 L 384.882812 291.796875 L 379.921875 293.789062 L 378.710938 298.203125 L 382.148438 301.757812 L 387.617188 301.757812 L 391.054688 298.203125 Z M 386.289062 299.414062 L 383.476562 299.414062 L 381.757812 297.65625 L 382.382812 295.390625 L 384.882812 294.414062 L 387.382812 295.390625 L 388.007812 297.65625 Z M 386.289062 299.414062 " transform="matrix(0.1,0,0,0.1,0,0)"/>
<path style="fill-rule:nonzero;fill:rgb(100%,100%,100%);fill-opacity:1;stroke-width:1.081625;stroke-linecap:round;stroke-linejoin:round;stroke:rgb(14.901961%,19.607843%,21.960784%);stroke-opacity:1;stroke-miterlimit:4;" d="M 329.257812 367.734375 C 329.140625 367.734375 328.984375 367.695312 328.867188 367.65625 C 328.203125 367.382812 327.617188 366.875 327.226562 366.289062 C 326.679688 365.429688 326.25 363.90625 327.109375 361.5625 C 327.734375 359.84375 329.179688 358.515625 330.976562 358.046875 C 333.242188 357.5 335.664062 358.046875 337.5 359.53125 C 337.734375 359.765625 337.890625 360.039062 337.929688 360.351562 C 337.929688 360.664062 337.851562 360.976562 337.65625 361.210938 C 337.226562 361.71875 336.484375 361.796875 335.976562 361.367188 C 334.765625 360.390625 333.125 360 331.5625 360.351562 C 330.507812 360.625 329.6875 361.40625 329.335938 362.421875 C 328.4375 364.804688 329.492188 365.429688 329.726562 365.507812 C 330.3125 365.742188 330.585938 366.445312 330.351562 367.03125 C 330.15625 367.460938 329.726562 367.734375 329.257812 367.734375 Z M 329.257812 367.734375 " transform="matrix(0.1,0,0,0.1,0,0)"/>
<path style="fill-rule:nonzero;fill:rgb(100%,100%,100%);fill-opacity:1;stroke-width:1.081625;stroke-linecap:round;stroke-linejoin:round;stroke:rgb(14.901961%,19.607843%,21.960784%);stroke-opacity:1;stroke-miterlimit:4;" d="M 353.632812 372.070312 C 353.28125 372.070312 352.890625 372.03125 352.539062 371.914062 L 333.359375 365.664062 C 332.109375 365.273438 331.171875 364.296875 330.898438 363.007812 C 330.625 361.757812 331.054688 360.46875 332.03125 359.609375 C 332.96875 358.75 334.335938 358.476562 335.546875 358.90625 L 354.765625 365.15625 C 356.40625 365.703125 357.421875 367.382812 357.148438 369.101562 C 356.875 370.78125 355.390625 372.070312 353.632812 372.070312 Z M 353.632812 372.070312 " transform="matrix(0.1,0,0,0.1,0,0)"/>
<path style="fill:none;stroke-width:1.081625;stroke-linecap:round;stroke-linejoin:round;stroke:rgb(14.901961%,19.607843%,21.960784%);stroke-opacity:1;stroke-miterlimit:4;" d="M 332.773438 365.507812 C 332.773438 365.507812 333.554688 360.625 339.648438 360.507812 " transform="matrix(0.1,0,0,0.1,0,0)"/>
<path style="fill:none;stroke-width:1.081625;stroke-linecap:round;stroke-linejoin:round;stroke:rgb(14.901961%,19.607843%,21.960784%);stroke-opacity:1;stroke-miterlimit:4;" d="M 336.875 366.5625 C 336.875 366.5625 337.65625 361.679688 343.75 361.5625 " transform="matrix(0.1,0,0,0.1,0,0)"/>
<path style="fill:none;stroke-width:1.081625;stroke-linecap:round;stroke-linejoin:round;stroke:rgb(14.901961%,19.607843%,21.960784%);stroke-opacity:1;stroke-miterlimit:4;" d="M 340.546875 367.929688 C 340.546875 367.929688 341.328125 363.046875 347.382812 362.929688 " transform="matrix(0.1,0,0,0.1,0,0)"/>
<path style="fill:none;stroke-width:1.081625;stroke-linecap:round;stroke-linejoin:round;stroke:rgb(14.901961%,19.607843%,21.960784%);stroke-opacity:1;stroke-miterlimit:4;" d="M 344.375 368.984375 C 344.375 368.984375 345.117188 364.140625 351.210938 363.984375 " transform="matrix(0.1,0,0,0.1,0,0)"/>
<path style="fill:none;stroke-width:1.081625;stroke-linecap:round;stroke-linejoin:round;stroke:rgb(14.901961%,19.607843%,21.960784%);stroke-opacity:1;stroke-miterlimit:4;" d="M 348.164062 370.351562 C 348.164062 370.351562 348.945312 365.507812 355.039062 365.351562 " transform="matrix(0.1,0,0,0.1,0,0)"/>
<path style="fill-rule:nonzero;fill:rgb(100%,100%,100%);fill-opacity:1;stroke-width:1.081625;stroke-linecap:round;stroke-linejoin:round;stroke:rgb(14.901961%,19.607843%,21.960784%);stroke-opacity:1;stroke-miterlimit:4;" d="M 353.632812 371.992188 C 353.515625 371.992188 353.359375 371.953125 353.242188 371.914062 C 352.578125 371.640625 351.992188 371.171875 351.601562 370.546875 C 351.054688 369.6875 350.625 368.164062 351.484375 365.820312 C 352.109375 364.101562 353.554688 362.773438 355.3125 362.304688 C 357.617188 361.757812 360.039062 362.34375 361.875 363.828125 C 362.109375 364.023438 362.265625 364.296875 362.304688 364.609375 C 362.304688 364.921875 362.226562 365.234375 362.03125 365.46875 C 361.601562 365.976562 360.859375 366.054688 360.351562 365.625 C 359.101562 364.648438 357.5 364.296875 355.9375 364.648438 C 354.882812 364.921875 354.0625 365.664062 353.671875 366.71875 C 352.8125 369.0625 353.867188 369.6875 354.101562 369.765625 C 354.609375 370 354.882812 370.546875 354.765625 371.09375 C 354.6875 371.640625 354.179688 372.03125 353.632812 372.03125 Z M 353.632812 371.992188 " transform="matrix(0.1,0,0,0.1,0,0)"/>
</g>
</svg>
