<svg xmlns="http://www.w3.org/2000/svg" viewBox="0 0 500 500"><g id="freepik--Shadow--inject-8"><ellipse cx="250.12" cy="438.79" rx="200.45" ry="10.01" style="fill:#f5f5f5"></ellipse></g><g id="freepik--Typewriter--inject-8"><path d="M346.81,314.61H156v-39a4.34,4.34,0,0,1,4.34-4.35H342.46a4.35,4.35,0,0,1,4.35,4.35Z" style="fill:#407BFF"></path><g style="opacity:0.2"><path d="M160.37,271.29h182.1a4.33,4.33,0,0,1,4.33,4.33v39a0,0,0,0,1,0,0H156a0,0,0,0,1,0,0v-39A4.33,4.33,0,0,1,160.37,271.29Z"></path></g><rect x="160.34" y="202.63" width="182.17" height="111.97" style="fill:#263238"></rect><g style="opacity:0.9"><rect x="160.34" y="202.63" width="182.17" height="111.97" style="fill:#fff"></rect></g><g style="opacity:0.2"><path d="M321.54,237.08H179.89a.5.5,0,0,1,0-1H321.54a.5.5,0,1,1,0,1Z"></path></g><g style="opacity:0.2"><path d="M321.54,244.66H179.89a.5.5,0,0,1,0-1H321.54a.5.5,0,1,1,0,1Z"></path></g><g style="opacity:0.2"><path d="M321.54,252.24H179.89a.5.5,0,0,1-.5-.5.51.51,0,0,1,.5-.5H321.54a.51.51,0,0,1,.51.5A.5.5,0,0,1,321.54,252.24Z"></path></g><g style="opacity:0.2"><path d="M321.54,259.83H179.89a.51.51,0,0,1,0-1H321.54a.51.51,0,1,1,0,1Z"></path></g><g style="opacity:0.2"><path d="M321.54,267.41H179.89a.51.51,0,0,1-.5-.5.5.5,0,0,1,.5-.5H321.54a.5.5,0,0,1,.51.5A.51.51,0,0,1,321.54,267.41Z"></path></g><g style="opacity:0.2"><path d="M225.8,275H179.89a.5.5,0,0,1,0-1H225.8a.5.5,0,0,1,0,1Z"></path></g><g style="opacity:0.2"><path d="M321.54,297.74H179.89a.51.51,0,0,1,0-1H321.54a.51.51,0,1,1,0,1Z"></path></g><g style="opacity:0.2"><path d="M287.47,224.6H214a.5.5,0,0,1,0-1h73.5a.5.5,0,0,1,0,1Z"></path></g><path d="M380.85,437.06h-259a5.32,5.32,0,0,1-5.26-6.15l.53-3.4.11-.66,16-101.15c.06-.37.13-.74.22-1.1l.18-.65a13.13,13.13,0,0,1,12.59-9.34h210.3A13.15,13.15,0,0,1,369.07,324l.18.65c.08.36.15.73.21,1.1l16,101.15.11.66.54,3.4A5.33,5.33,0,0,1,380.85,437.06Z" style="fill:#407BFF"></path><polygon points="385.57 427.51 117.08 427.51 117.19 426.85 385.46 426.85 385.57 427.51" style="fill:#263238"></polygon><g style="opacity:0.30000000000000004"><path d="M144.79,360.18l-8.62,52a2.91,2.91,0,0,0,2.87,3.38H363.62a2.9,2.9,0,0,0,2.86-3.38l-8.62-52a2.9,2.9,0,0,0-2.86-2.43H147.66A2.91,2.91,0,0,0,144.79,360.18Z"></path></g><path d="M161.79,368.21a4.71,4.71,0,1,1-4.71-4.71A4.71,4.71,0,0,1,161.79,368.21Z" style="fill:#fff"></path><path d="M176.39,368.21a4.72,4.72,0,1,1-4.72-4.71A4.71,4.71,0,0,1,176.39,368.21Z" style="fill:#fff"></path><path d="M191,368.21a4.71,4.71,0,1,1-4.71-4.71A4.71,4.71,0,0,1,191,368.21Z" style="fill:#fff"></path><path d="M205.57,368.21a4.71,4.71,0,1,1-4.71-4.71A4.71,4.71,0,0,1,205.57,368.21Z" style="fill:#fff"></path><path d="M220.17,368.21a4.72,4.72,0,1,1-4.71-4.71A4.71,4.71,0,0,1,220.17,368.21Z" style="fill:#fff"></path><path d="M234.76,368.21a4.71,4.71,0,1,1-4.71-4.71A4.71,4.71,0,0,1,234.76,368.21Z" style="fill:#fff"></path><path d="M249.36,368.21a4.72,4.72,0,1,1-4.71-4.71A4.71,4.71,0,0,1,249.36,368.21Z" style="fill:#fff"></path><path d="M264,368.21a4.71,4.71,0,1,1-4.71-4.71A4.71,4.71,0,0,1,264,368.21Z" style="fill:#fff"></path><path d="M278.55,368.21a4.72,4.72,0,1,1-4.72-4.71A4.71,4.71,0,0,1,278.55,368.21Z" style="fill:#fff"></path><path d="M293.14,368.21a4.71,4.71,0,1,1-4.71-4.71A4.71,4.71,0,0,1,293.14,368.21Z" style="fill:#fff"></path><path d="M307.74,368.21A4.72,4.72,0,1,1,303,363.5,4.71,4.71,0,0,1,307.74,368.21Z" style="fill:#fff"></path><path d="M322.33,368.21a4.72,4.72,0,1,1-4.71-4.71A4.71,4.71,0,0,1,322.33,368.21Z" style="fill:#fff"></path><path d="M336.92,368.21a4.71,4.71,0,1,1-4.71-4.71A4.71,4.71,0,0,1,336.92,368.21Z" style="fill:#fff"></path><path d="M351.52,368.21a4.72,4.72,0,1,1-4.71-4.71A4.71,4.71,0,0,1,351.52,368.21Z" style="fill:#fff"></path><circle cx="157.08" cy="384.04" r="4.71" style="fill:#fff"></circle><circle cx="171.67" cy="384.04" r="4.71" style="fill:#fff"></circle><path d="M191,384a4.71,4.71,0,1,1-4.71-4.72A4.71,4.71,0,0,1,191,384Z" style="fill:#fff"></path><path d="M205.57,384a4.71,4.71,0,1,1-4.71-4.72A4.71,4.71,0,0,1,205.57,384Z" style="fill:#fff"></path><circle cx="215.46" cy="384.04" r="4.71" style="fill:#fff"></circle><circle cx="230.05" cy="384.04" r="4.71" style="fill:#fff"></circle><path d="M249.36,384a4.72,4.72,0,1,1-4.71-4.72A4.71,4.71,0,0,1,249.36,384Z" style="fill:#fff"></path><path d="M264,384a4.71,4.71,0,1,1-4.71-4.72A4.71,4.71,0,0,1,264,384Z" style="fill:#fff"></path><circle cx="273.83" cy="384.04" r="4.71" style="fill:#fff"></circle><circle cx="288.43" cy="384.04" r="4.71" style="fill:#fff"></circle><path d="M307.74,384a4.72,4.72,0,1,1-4.72-4.72A4.71,4.71,0,0,1,307.74,384Z" style="fill:#fff"></path><path d="M322.33,384a4.72,4.72,0,1,1-4.71-4.72A4.71,4.71,0,0,1,322.33,384Z" style="fill:#fff"></path><circle cx="332.21" cy="384.04" r="4.71" style="fill:#fff"></circle><circle cx="346.81" cy="384.04" r="4.71" style="fill:#fff"></circle><path d="M191,399.86a4.71,4.71,0,1,1-4.71-4.71A4.71,4.71,0,0,1,191,399.86Z" style="fill:#fff"></path><path d="M322.33,399.86a4.72,4.72,0,1,1-4.71-4.71A4.71,4.71,0,0,1,322.33,399.86Z" style="fill:#fff"></path><rect x="200.86" y="396.43" width="105.86" height="8.14" rx="4.06" style="fill:#fff"></rect><path d="M369.25,324.6H133.41l.18-.65H369.07Z" style="fill:#263238"></path><polygon points="147.35 307.99 146.44 314.61 230.25 314.61 230.25 307.99 147.35 307.99" style="fill:#263238"></polygon><polygon points="272.4 307.99 272.4 314.61 356.22 314.61 355.31 307.99 272.4 307.99" style="fill:#263238"></polygon><path d="M335.64,308h-1V289.61a2.28,2.28,0,0,0-2.27-2.28H170.29a2.28,2.28,0,0,0-2.27,2.28V308h-1V289.61a3.28,3.28,0,0,1,3.28-3.28H332.37a3.28,3.28,0,0,1,3.27,3.28Z" style="fill:#263238"></path><rect x="175.67" y="284.21" width="31.04" height="5.25" style="fill:#407BFF"></rect><rect x="296.18" y="284.21" width="31.04" height="5.25" style="fill:#407BFF"></rect><polygon points="255.94 302.54 255.94 314.61 244.1 314.61 244.1 302.54 248.56 302.54 248.56 305.66 251.47 305.66 251.47 302.54 255.94 302.54" style="fill:#407BFF"></polygon><g style="opacity:0.2"><polygon points="255.94 302.54 255.94 314.61 244.1 314.61 244.1 302.54 248.56 302.54 248.56 305.66 251.47 305.66 251.47 302.54 255.94 302.54"></polygon></g><rect x="140.17" y="294" width="20.17" height="6.47" style="fill:#263238"></rect><g style="opacity:0.5"><rect x="140.17" y="294" width="20.17" height="6.47" style="fill:#fff"></rect></g><rect x="140.17" y="289.89" width="8.06" height="15.04" style="fill:#407BFF"></rect><rect x="121.98" y="330.48" width="256.64" height="7.19" rx="3.59" style="fill:#407BFF"></rect><g style="opacity:0.30000000000000004"><rect x="121.98" y="330.48" width="256.64" height="7.19" rx="3.59" style="fill:#fff"></rect></g><circle cx="147.21" cy="348.36" r="3.01" style="fill:#263238"></circle><circle cx="157.08" cy="348.36" r="3.01" style="fill:#263238"></circle></g><g id="freepik--Books--inject-8"><rect x="371.19" y="241.23" width="29.79" height="195.83" rx="2.28" style="fill:#407BFF"></rect><rect x="371.2" y="241.23" width="29.79" height="195.83" rx="2.28" style="fill:#fff;opacity:0.4"></rect><rect x="371.2" y="267.8" width="29.79" height="2.77" style="fill:#263238"></rect><rect x="371.2" y="412.19" width="29.79" height="11.1" style="fill:#263238"></rect><rect x="371.2" y="403.72" width="29.79" height="2.77" style="fill:#263238"></rect><path d="M437.62,435.73l-24.23,1.19a2.75,2.75,0,0,1-2.89-2.62l-8.42-170.65-.14-2.69-.19-4-.13-2.69-.5-10.05a2.76,2.76,0,0,1,2.62-2.89l24.24-1.2a2.75,2.75,0,0,1,2.89,2.62l.5,10.05.13,2.69.19,4,.14,2.69,8.42,170.66A2.77,2.77,0,0,1,437.62,435.73Z" style="fill:#407BFF"></path><rect x="416.89" y="374.38" width="14.94" height="52.25" rx="0.75" transform="translate(-21.19 23.71) rotate(-3.12)" style="opacity:0.2"></rect><polygon points="431.5 255.5 401.75 256.96 401.62 254.28 431.37 252.81 431.5 255.5" style="fill:#263238"></polygon><polygon points="431.83 262.17 402.08 263.65 401.94 260.96 431.69 259.49 431.83 262.17" style="fill:#263238"></polygon></g><g id="freepik--Character--inject-8"><path d="M88.39,337.52,77.82,360.69,94.55,369l6.5-13.5c2.4-4.29,1.17-10.59-2-14.37C97.79,339.6,93.66,336.28,88.39,337.52Z" style="fill:#407BFF"></path><path d="M88.39,337.52,77.82,360.69,94.55,369l6.5-13.5c2.4-4.29,1.17-10.59-2-14.37C97.79,339.6,93.66,336.28,88.39,337.52Z" style="fill:#fff;opacity:0.2"></path><path d="M117.16,327.6s17.47,4.08,21.8,11.34,4.17,22.41,1,39.45,1.32,18.22-7.17,25.23-45.77,6.3-48.94-1.74c-2.62-6.67,8.47-31.05,6.13-43.07s-6.06-19,1.32-24.59S117.16,327.6,117.16,327.6Z" style="fill:#407BFF"></path><path d="M117.16,327.6s17.47,4.08,21.8,11.34,4.17,22.41,1,39.45,1.32,18.22-7.17,25.23-45.77,6.3-48.94-1.74c-2.62-6.67,8.47-31.05,6.13-43.07s-6.06-19,1.32-24.59S117.16,327.6,117.16,327.6Z" style="fill:#fff;opacity:0.4"></path><path d="M96.59,292.79c-1.79-1.21-6.6-.23-8.18,3.29-1.69,3.75-3.4,10.36-5.73,9.26a4.69,4.69,0,0,0,4.88,2.17s-1.49,2.65-4.24,2.44a7.33,7.33,0,0,0,7,3.34c4.55-.39,7.72-14.39,8.21-16.68C98,294.34,97.87,294.47,96.59,292.79Z" style="fill:#263238"></path><path d="M99.45,292.71a14.54,14.54,0,0,1,11.58.7c2.34,1.22,4.36,3.08,4.31,5.88a156.52,156.52,0,0,1-2,17.4l-22-10s-1.48-6,.82-9.62C93.42,295.19,96.64,293.7,99.45,292.71Z" style="fill:#263238"></path><path d="M96,293.17s5.34-6.07,15.36-1.72,4.13,17.85,4.13,17.85-1.55,5.72,1.15,6.41A6.91,6.91,0,0,1,114,316.8s1.19,1.35,2.22,1c0,0-1.34.93-4.24.37S96,293.17,96,293.17Z" style="fill:#263238"></path><path d="M103.75,324.77h0l0,.08,1.38,3.6a12.5,12.5,0,0,1,.19,4.07c-.4,1.4-.33,3.81,2.09,3.48,3.64-.49,9.8-6.43,9.87-8.07-2.23-4.82-4.27-10.52-4.51-15.32l-3.69,5Z" style="fill:#ffb573"></path><g style="opacity:0.2"><path d="M103.79,324.86l1.38,3.6c2.18-1.29,4.33-3.8,4.62-6.29.2-1.8-.77-3.36-1.49-3.38Z"></path></g><path d="M93.7,318.07c.3.79.63,1.56,1,2.31,3,6.68,11.66,6.39,16.42.73l0,0a12.67,12.67,0,0,0,1.17-1.64c2.9-4.8,1.69-8.12.35-15.81a10.63,10.63,0,0,0-16.73-6.92C89.81,301.06,90.66,310.24,93.7,318.07Z" style="fill:#ffb573"></path><path d="M102,310.55c.15.6,0,1.17-.44,1.28s-.84-.31-1-.91,0-1.18.43-1.28.84.31,1,.91" style="fill:#263238"></path><path d="M95.67,312.08c.16.61,0,1.18-.43,1.28s-.84-.31-1-.91,0-1.17.44-1.27.84.3,1,.9" style="fill:#263238"></path><path d="M100.88,318.68l-.21,0a.25.25,0,0,1-.25-.24.24.24,0,0,1,.24-.24,3.48,3.48,0,0,0,3.35-3.73.24.24,0,1,1,.48,0A4,4,0,0,1,100.88,318.68Z" style="fill:#263238"></path><path d="M112.79,304.34s-2.32.36-2.21,2.37.34,2.25.34,2.25l-2.7.87s0-7.71-2-7.4-.18-3.36-1.44-3.73c-3-.87-10.75-.13-13.26,4.86A11.87,11.87,0,0,1,95.23,296c3.43-2.87,10.79-4.17,14.17-.84S112.79,304.34,112.79,304.34Z" style="fill:#263238"></path><path d="M117.09,307.91a7.45,7.45,0,0,1-2.44,5.12c-1.94,1.72-4.05.26-4.46-2.17-.37-2.19.19-5.72,2.6-6.52a3.34,3.34,0,0,1,4.3,3.57" style="fill:#ffb573"></path><path d="M92.44,309.81a.29.29,0,0,0,.22-.21,1.61,1.61,0,0,1,.74-1,1.79,1.79,0,0,1,1.27-.1.31.31,0,0,0,.39-.2.31.31,0,0,0-.2-.39,2.4,2.4,0,0,0-1.75.15,2.19,2.19,0,0,0-1,1.41.3.3,0,0,0,.21.38A.22.22,0,0,0,92.44,309.81Z" style="fill:#263238"></path><path d="M103.79,307.4a.33.33,0,0,0,.13-.07.34.34,0,0,0,0-.48,2.69,2.69,0,0,0-1.76-.82,2.42,2.42,0,0,0-1.77.79.34.34,0,1,0,.47.49,1.78,1.78,0,0,1,1.28-.59,2.09,2.09,0,0,1,1.28.59A.33.33,0,0,0,103.79,307.4Z" style="fill:#263238"></path><path d="M97.57,310.11a6.82,6.82,0,0,1-1.22,3.72c-1.24,1.67,2.09,2.1,2.09,2.1Z" style="fill:#ed893e"></path><path d="M111.4,404.58s-53-27.72-60.12-7.07c-5.7,16.49,31.79,39.67,64.28,41.4Z" style="fill:#263238"></path><polygon points="84.93 430.57 97.42 430.04 92.4 436.63 80.33 437.39 84.93 430.57" style="fill:#ffb573"></polygon><path d="M88.3,430.12s-8.72-2.41-12.3-.45c-5.62,3.07-15.09,7.25-14,11.85s20.53-3.4,20.53-3.4Z" style="fill:#407BFF"></path><path d="M84.72,433s3,.21,2.33,2.5-4.55,2.62-4.55,2.62Z" style="fill:#407BFF"></path><path d="M102.35,403.64s57.45-24.61,59.8-1.12c1.74,17.32-34.11,32.75-73,35.57Z" style="fill:#263238"></path><path d="M114.39,430c-9.48-6.69-24.24-15.84-40-25.46,12.66,6.32,21.23,10.95,27.5,14.75,7.5-4.58,18-8.05,26.81-10.72-7.69,4-18.15,8.62-25.06,12.69C111.57,426.75,114.26,429.88,114.39,430Z" style="opacity:0.2"></path><polygon points="120.12 431.39 114.73 432.08 115.47 438.16 125.07 437.95 120.12 431.39" style="fill:#ffb573"></polygon><path d="M116.73,431.12S125.3,428.25,129,430c5.77,2.76,15.45,6.42,14.64,11.08s-20.69-2.3-20.69-2.3Z" style="fill:#407BFF"></path><path d="M120.45,433.8s-2.93.37-2.19,2.62,4.68,2.37,4.68,2.37Z" style="fill:#407BFF"></path><path d="M143,354.1c1.32,5.78,2.37,11.48,3.16,17.33.41,2.92.73,5.86,1,8.85a90.17,90.17,0,0,1,.32,9.3c0,.83-.09,1.69-.19,2.62a16.87,16.87,0,0,1-.7,3.37c-.06.17-.12.36-.22.59s-.16.39-.3.67-.26.49-.46.8l-.34.47a4.64,4.64,0,0,1-.41.48c-.17.18-.35.36-.54.53l-.31.26-.45.3a6.34,6.34,0,0,1-1.74.78,7.41,7.41,0,0,1-2.25.22,9.29,9.29,0,0,1-2.33-.47,15.19,15.19,0,0,1-1.5-.59,35.94,35.94,0,0,1-4.4-2.49c-1.31-.85-2.54-1.75-3.75-2.64A153.57,153.57,0,0,1,114.12,383l3.93-5.1c4.88,2.91,9.84,5.86,14.71,8.53,1.22.66,2.45,1.28,3.63,1.86a24.52,24.52,0,0,0,3.33,1.38,4,4,0,0,0,.54.12c.1,0,.16,0-.22-.07a3.44,3.44,0,0,0-1.17.12,4.46,4.46,0,0,0-1.25.55,2.62,2.62,0,0,0-.34.24l-.21.17a2.73,2.73,0,0,0-.35.33,4.71,4.71,0,0,0-.76,1.1,5.14,5.14,0,0,1,0-.89c0-.5,0-1.09-.07-1.69-.18-2.47-.55-5.22-1-7.93s-.94-5.5-1.44-8.27l-3.14-16.68Z" style="fill:#ffb573"></path><path d="M90,380a115.66,115.66,0,0,1-8.4,10.61c-.74.86-1.54,1.7-2.38,2.55a32.76,32.76,0,0,1-2.85,2.58c-.29.23-.63.45-1,.71a7.58,7.58,0,0,1-1.79.84,7.39,7.39,0,0,1-.93.21c-.17,0-.49,0-.73,0h-.4l-.54-.05-.58-.14-.63-.21a5.11,5.11,0,0,1-1.31-.78,6.06,6.06,0,0,1-1-1.16,4.87,4.87,0,0,1-.57-1.08l-.1-.28-.06-.19-.11-.4a6.41,6.41,0,0,1-.1-.72c0-.16,0-.34,0-.52s0-.33,0-.43,0-.5.06-.67l.1-.52c.15-.71.31-1.46.48-2.05s.32-1.21.51-1.76c1.77-4.86,3.37-8.69,5.11-12.82s3.88-8.72,5.87-12.66l9.68,4.81c-1.73,3.86-3.55,8.83-5.4,12.63,0,0,0,0,0,0l3-2.46Z" style="fill:#ffb573"></path><path d="M84.27,376.3s-10.42,6.28-12.37,8.45c0,0,7.36-7.33,13.08-11Z" style="opacity:0.2"></path><path d="M137.59,337.35c3.49,3.15,8.23,12,9.28,29.47l-16.45,1s-4.11-15.55-3.88-24.54c.09-3.37,1.29-5.33,2.76-6.45A6.52,6.52,0,0,1,137.59,337.35Z" style="fill:#407BFF"></path><path d="M137.59,337.35c3.49,3.15,8.23,12,9.28,29.47l-16.45,1s-4.11-15.55-3.88-24.54c.09-3.37,1.29-5.33,2.76-6.45A6.52,6.52,0,0,1,137.59,337.35Z" style="fill:#fff;opacity:0.2"></path><polygon points="86.29 385.41 101.03 390.5 117.67 388.75 115.72 365.19 99.58 366.64 84.77 361.74 86.29 385.41" style="fill:#407BFF"></polygon><polygon points="85.3 361.92 86.46 361.13 99.64 365.54 114.91 364.13 115 365.26 99.58 366.64 85.3 361.92" style="fill:#f5f5f5"></polygon><polygon points="99.58 366.64 101.03 390.5 86.29 385.41 84.77 361.74 99.58 366.64" style="opacity:0.2"></polygon><path d="M118.4,376s.44-.45-.22-2.08a8.41,8.41,0,0,0-2-3l.34,4.9s-3.23,1.72-3.44,4.25c-.42,5.1,2.91,6.46,4,6.74s2.84-2.67,2.91-5.74A8.09,8.09,0,0,0,118.4,376Z" style="fill:#ffb573"></path><path d="M83.63,374.44s-.48-.39,0-2.09a8.64,8.64,0,0,1,1.61-3.24l.34,4.88s3.33,1.34,3.85,3.83c1,5-2.11,6.76-3.12,7.18s-3.14-2.32-3.59-5.35A8.22,8.22,0,0,1,83.63,374.44Z" style="fill:#ffb573"></path></g></svg>
