<?xml version="1.0" encoding="UTF-8"?>
<svg xmlns="http://www.w3.org/2000/svg" xmlns:xlink="http://www.w3.org/1999/xlink" width="45px" height="44px" viewBox="0 0 44 44" version="1.1">
<g id="surface1">
<path style=" stroke:none;fill-rule:evenodd;fill:rgb(42.352941%,45.882353%,94.509804%);fill-opacity:1;" d="M 26.847656 23.386719 L 26.179688 23.386719 L 26.179688 34.679688 L 26.847656 34.679688 Z M 26.847656 23.386719 "/>
<path style=" stroke:none;fill-rule:evenodd;fill:rgb(42.352941%,45.882353%,94.509804%);fill-opacity:1;" d="M 26.191406 31.601562 L 26.671875 32.089844 L 31.457031 27.148438 L 30.976562 26.664062 Z M 26.191406 31.601562 "/>
<path style=" stroke:none;fill-rule:evenodd;fill:rgb(42.352941%,45.882353%,94.509804%);fill-opacity:1;" d="M 33.261719 17.191406 L 32.785156 16.703125 L 26.179688 23.378906 L 26.652344 23.867188 Z M 33.261719 17.191406 "/>
<path style=" stroke:none;fill-rule:evenodd;fill:rgb(42.352941%,45.882353%,94.509804%);fill-opacity:1;" d="M 34.367188 16.644531 C 34.367188 17.238281 33.898438 17.71875 33.316406 17.71875 C 32.738281 17.71875 32.265625 17.238281 32.265625 16.644531 C 32.265625 16.050781 32.738281 15.570312 33.316406 15.570312 C 33.898438 15.570312 34.367188 16.050781 34.367188 16.644531 Z M 34.367188 16.644531 "/>
<path style=" stroke:none;fill-rule:evenodd;fill:rgb(42.352941%,45.882353%,94.509804%);fill-opacity:1;" d="M 33.367188 21.238281 L 32.890625 20.75 L 26.285156 27.425781 L 26.757812 27.914062 Z M 33.367188 21.238281 "/>
<path style=" stroke:none;fill-rule:evenodd;fill:rgb(42.352941%,45.882353%,94.509804%);fill-opacity:1;" d="M 28.839844 10.199219 L 28.367188 9.703125 L 22.90625 15.128906 L 23.378906 15.625 Z M 28.839844 10.199219 "/>
<path style=" stroke:none;fill-rule:evenodd;fill:rgb(42.352941%,45.882353%,94.509804%);fill-opacity:1;" d="M 26.980469 18.179688 L 26.503906 18.675781 L 28.894531 21.09375 L 29.371094 20.601562 Z M 26.980469 18.179688 "/>
<path style=" stroke:none;fill-rule:evenodd;fill:rgb(42.352941%,45.882353%,94.509804%);fill-opacity:1;" d="M 31.71875 13.992188 L 31.238281 13.503906 L 28.871094 15.949219 L 29.351562 16.4375 Z M 31.71875 13.992188 "/>
<path style=" stroke:none;fill-rule:evenodd;fill:rgb(42.352941%,45.882353%,94.509804%);fill-opacity:1;" d="M 23.570312 15.140625 L 22.90625 15.140625 L 22.90625 38.851562 L 23.570312 38.851562 Z M 23.570312 15.140625 "/>
<path style=" stroke:none;fill-rule:evenodd;fill:rgb(42.352941%,45.882353%,94.509804%);fill-opacity:1;" d="M 17.023438 19.058594 L 16.355469 19.058594 L 16.355469 34.675781 L 17.023438 34.675781 Z M 17.023438 19.058594 "/>
<path style=" stroke:none;fill-rule:evenodd;fill:rgb(42.352941%,45.882353%,94.509804%);fill-opacity:1;" d="M 11.988281 22.535156 L 11.511719 23.027344 L 16.347656 27.917969 L 16.824219 27.425781 Z M 11.988281 22.535156 "/>
<path style=" stroke:none;fill-rule:evenodd;fill:rgb(42.352941%,45.882353%,94.509804%);fill-opacity:1;" d="M 10.625 17.015625 L 10.148438 17.5 L 16.347656 23.851562 L 16.824219 23.363281 Z M 10.625 17.015625 "/>
<path style=" stroke:none;fill-rule:evenodd;fill:rgb(42.352941%,45.882353%,94.509804%);fill-opacity:1;" d="M 10.824219 12.699219 L 10.347656 13.1875 L 16.546875 19.539062 L 17.023438 19.050781 Z M 10.824219 12.699219 "/>
<path style=" stroke:none;fill-rule:evenodd;fill:rgb(42.352941%,45.882353%,94.509804%);fill-opacity:1;" d="M 12.921875 22.910156 C 12.921875 23.503906 12.453125 23.984375 11.871094 23.984375 C 11.289062 23.984375 10.820312 23.503906 10.820312 22.910156 C 10.820312 22.316406 11.289062 21.835938 11.871094 21.835938 C 12.453125 21.835938 12.921875 22.316406 12.921875 22.910156 Z M 12.921875 22.910156 "/>
<path style=" stroke:none;fill-rule:evenodd;fill:rgb(42.352941%,45.882353%,94.509804%);fill-opacity:1;" d="M 11.273438 17.125 C 11.273438 17.71875 10.800781 18.199219 10.222656 18.199219 C 9.640625 18.199219 9.167969 17.71875 9.167969 17.125 C 9.167969 16.53125 9.640625 16.050781 10.222656 16.050781 C 10.800781 16.050781 11.273438 16.53125 11.273438 17.125 Z M 11.273438 17.125 "/>
<path style=" stroke:none;fill-rule:evenodd;fill:rgb(42.352941%,45.882353%,94.509804%);fill-opacity:1;" d="M 11.910156 13.222656 C 11.910156 13.816406 11.441406 14.296875 10.859375 14.296875 C 10.277344 14.296875 9.808594 13.816406 9.808594 13.222656 C 9.808594 12.628906 10.277344 12.148438 10.859375 12.148438 C 11.441406 12.148438 11.910156 12.628906 11.910156 13.222656 Z M 11.910156 13.222656 "/>
<path style=" stroke:none;fill-rule:evenodd;fill:rgb(42.352941%,45.882353%,94.509804%);fill-opacity:1;" d="M 16.980469 9.164062 L 16.507812 9.65625 L 20.5625 13.714844 L 21.03125 13.222656 Z M 16.980469 9.164062 "/>
<path style=" stroke:none;fill-rule:evenodd;fill:rgb(42.352941%,45.882353%,94.509804%);fill-opacity:1;" d="M 27.417969 14.347656 L 26.945312 14.839844 L 31 18.898438 L 31.46875 18.40625 Z M 27.417969 14.347656 "/>
<path style=" stroke:none;fill-rule:evenodd;fill:rgb(42.352941%,45.882353%,94.509804%);fill-opacity:1;" d="M 20.777344 8.359375 L 20.300781 8.851562 L 22.691406 11.273438 L 23.167969 10.777344 Z M 20.777344 8.359375 "/>
<path style=" stroke:none;fill-rule:evenodd;fill:rgb(42.352941%,45.882353%,94.509804%);fill-opacity:1;" d="M 25.363281 8.851562 L 24.890625 8.363281 L 18.28125 15.039062 L 18.757812 15.527344 Z M 25.363281 8.851562 "/>
<path style=" stroke:none;fill-rule:evenodd;fill:rgb(42.352941%,45.882353%,94.509804%);fill-opacity:1;" d="M 14.101562 10.5625 L 13.621094 11.050781 L 19.820312 17.398438 L 20.300781 16.914062 Z M 14.101562 10.5625 "/>
<path style=" stroke:none;fill-rule:evenodd;fill:rgb(42.352941%,45.882353%,94.509804%);fill-opacity:1;" d="M 20.296875 16.925781 L 19.632812 16.925781 L 19.632812 38.851562 L 20.296875 38.851562 Z M 20.296875 16.925781 "/>
<path style=" stroke:none;fill-rule:evenodd;fill:rgb(42.352941%,45.882353%,94.509804%);fill-opacity:1;" d="M 14.9375 10.6875 C 14.9375 11.28125 14.46875 11.761719 13.886719 11.761719 C 13.308594 11.761719 12.835938 11.28125 12.835938 10.6875 C 12.835938 10.097656 13.308594 9.613281 13.886719 9.613281 C 14.46875 9.613281 14.9375 10.097656 14.9375 10.6875 Z M 14.9375 10.6875 "/>
<path style=" stroke:none;fill-rule:evenodd;fill:rgb(42.352941%,45.882353%,94.509804%);fill-opacity:1;" d="M 17.875 9.429688 C 17.875 10.023438 17.402344 10.503906 16.824219 10.503906 C 16.242188 10.503906 15.769531 10.023438 15.769531 9.429688 C 15.769531 8.835938 16.242188 8.355469 16.824219 8.355469 C 17.402344 8.355469 17.875 8.835938 17.875 9.429688 Z M 17.875 9.429688 "/>
<path style=" stroke:none;fill-rule:evenodd;fill:rgb(42.352941%,45.882353%,94.509804%);fill-opacity:1;" d="M 21.371094 8.261719 C 21.371094 8.855469 20.898438 9.335938 20.320312 9.335938 C 19.738281 9.335938 19.265625 8.855469 19.265625 8.261719 C 19.265625 7.667969 19.738281 7.1875 20.320312 7.1875 C 20.898438 7.1875 21.371094 7.667969 21.371094 8.261719 Z M 21.371094 8.261719 "/>
<path style=" stroke:none;fill-rule:evenodd;fill:rgb(42.352941%,45.882353%,94.509804%);fill-opacity:1;" d="M 26.308594 8.261719 C 26.308594 8.855469 25.835938 9.335938 25.257812 9.335938 C 24.675781 9.335938 24.203125 8.855469 24.203125 8.261719 C 24.203125 7.667969 24.675781 7.1875 25.257812 7.1875 C 25.835938 7.1875 26.308594 7.667969 26.308594 8.261719 Z M 26.308594 8.261719 "/>
<path style=" stroke:none;fill-rule:evenodd;fill:rgb(42.352941%,45.882353%,94.509804%);fill-opacity:1;" d="M 28.328125 14.484375 C 28.328125 15.078125 27.859375 15.558594 27.277344 15.558594 C 26.699219 15.558594 26.226562 15.078125 26.226562 14.484375 C 26.226562 13.890625 26.699219 13.410156 27.277344 13.410156 C 27.859375 13.410156 28.328125 13.890625 28.328125 14.484375 Z M 28.328125 14.484375 "/>
<path style=" stroke:none;fill-rule:evenodd;fill:rgb(42.352941%,45.882353%,94.509804%);fill-opacity:1;" d="M 32.636719 13.742188 C 32.636719 14.335938 32.167969 14.816406 31.585938 14.816406 C 31.007812 14.816406 30.535156 14.335938 30.535156 13.742188 C 30.535156 13.148438 31.007812 12.667969 31.585938 12.667969 C 32.167969 12.667969 32.636719 13.148438 32.636719 13.742188 Z M 32.636719 13.742188 "/>
<path style=" stroke:none;fill-rule:evenodd;fill:rgb(42.352941%,45.882353%,94.509804%);fill-opacity:1;" d="M 27.511719 18.203125 C 27.511719 18.796875 27.042969 19.277344 26.460938 19.277344 C 25.878906 19.277344 25.410156 18.796875 25.410156 18.203125 C 25.410156 17.609375 25.878906 17.128906 26.460938 17.128906 C 27.042969 17.128906 27.511719 17.609375 27.511719 18.203125 Z M 27.511719 18.203125 "/>
<path style=" stroke:none;fill-rule:evenodd;fill:rgb(42.352941%,45.882353%,94.509804%);fill-opacity:1;" d="M 29.394531 10.191406 C 29.394531 10.785156 28.925781 11.265625 28.34375 11.265625 C 27.761719 11.265625 27.292969 10.785156 27.292969 10.191406 C 27.292969 9.597656 27.761719 9.117188 28.34375 9.117188 C 28.925781 9.117188 29.394531 9.597656 29.394531 10.191406 Z M 29.394531 10.191406 "/>
<path style=" stroke:none;fill-rule:evenodd;fill:rgb(42.352941%,45.882353%,94.509804%);fill-opacity:1;" d="M 34.847656 20.601562 C 34.847656 21.195312 34.378906 21.675781 33.796875 21.675781 C 33.214844 21.675781 32.746094 21.195312 32.746094 20.601562 C 32.746094 20.007812 33.214844 19.527344 33.796875 19.527344 C 34.378906 19.527344 34.847656 20.007812 34.847656 20.601562 Z M 34.847656 20.601562 "/>
<path style=" stroke:none;fill-rule:evenodd;fill:rgb(42.352941%,45.882353%,94.509804%);fill-opacity:1;" d="M 32.625 26.59375 C 32.625 27.1875 32.152344 27.667969 31.574219 27.667969 C 30.992188 27.667969 30.519531 27.1875 30.519531 26.59375 C 30.519531 26 30.992188 25.519531 31.574219 25.519531 C 32.152344 25.519531 32.625 26 32.625 26.59375 Z M 32.625 26.59375 "/>
<path style=" stroke:none;fill-rule:evenodd;fill:rgb(42.352941%,45.882353%,94.509804%);fill-opacity:1;" d="M 17.023438 34.726562 C 17.023438 34.4375 16.875 34.207031 16.6875 34.207031 C 16.503906 34.207031 16.355469 34.4375 16.355469 34.726562 C 16.355469 35.011719 16.503906 35.242188 16.6875 35.242188 C 16.875 35.242188 17.023438 35.011719 17.023438 34.726562 Z M 17.023438 34.726562 "/>
<path style=" stroke:none;fill-rule:evenodd;fill:rgb(42.352941%,45.882353%,94.509804%);fill-opacity:1;" d="M 20.296875 38.890625 C 20.296875 38.605469 20.148438 38.371094 19.960938 38.371094 C 19.777344 38.371094 19.628906 38.605469 19.628906 38.890625 C 19.628906 39.175781 19.777344 39.410156 19.960938 39.410156 C 20.148438 39.410156 20.296875 39.175781 20.296875 38.890625 Z M 20.296875 38.890625 "/>
<path style=" stroke:none;fill-rule:evenodd;fill:rgb(42.352941%,45.882353%,94.509804%);fill-opacity:1;" d="M 23.574219 38.910156 C 23.574219 38.621094 23.421875 38.390625 23.238281 38.390625 C 23.054688 38.390625 22.90625 38.621094 22.90625 38.910156 C 22.90625 39.195312 23.054688 39.425781 23.238281 39.425781 C 23.421875 39.425781 23.574219 39.195312 23.574219 38.910156 Z M 23.574219 38.910156 "/>
<path style=" stroke:none;fill-rule:evenodd;fill:rgb(42.352941%,45.882353%,94.509804%);fill-opacity:1;" d="M 26.84375 34.695312 C 26.84375 34.410156 26.695312 34.179688 26.511719 34.179688 C 26.328125 34.179688 26.179688 34.410156 26.179688 34.695312 C 26.179688 34.980469 26.328125 35.214844 26.511719 35.214844 C 26.695312 35.214844 26.84375 34.980469 26.84375 34.695312 Z M 26.84375 34.695312 "/>
</g>
</svg>
